<?xml version="1.0" encoding="UTF-8" standalone="no"?>
<!DOCTYPE svg PUBLIC "-//W3C//DTD SVG 1.1//EN"
 "http://www.w3.org/Graphics/SVG/1.1/DTD/svg11.dtd">
<!-- Generated by graphviz version 2.26.3 (20100126.1600)
 -->
<!-- Title: G Pages: 1 -->
<svg width="892pt" height="1484pt"
 viewBox="0.00 0.00 892.00 1484.00" xmlns="http://www.w3.org/2000/svg" xmlns:xlink="http://www.w3.org/1999/xlink">
<g id="graph1" class="graph" transform="scale(1 1) rotate(0) translate(4 1480)">
<title>G</title>
<polygon fill="white" stroke="white" points="-4,5 -4,-1480 889,-1480 889,5 -4,5"/>
<g id="graph2" class="cluster"><title>cluster_Global</title>
<polyline fill="none" stroke="gray" points="298,-368 864,-368 "/>
<path fill="none" stroke="gray" d="M864,-368C870,-368 876,-374 876,-380"/>
<polyline fill="none" stroke="gray" points="876,-380 876,-1456 "/>
<path fill="none" stroke="gray" d="M876,-1456C876,-1462 870,-1468 864,-1468"/>
<polyline fill="none" stroke="gray" points="864,-1468 298,-1468 "/>
<path fill="none" stroke="gray" d="M298,-1468C292,-1468 286,-1462 286,-1456"/>
<polyline fill="none" stroke="gray" points="286,-1456 286,-380 "/>
<path fill="none" stroke="gray" d="M286,-380C286,-374 292,-368 298,-368"/>
<text text-anchor="middle" x="581" y="-1454.1" font-family="Times Roman,serif" font-size="11.00" fill="gray">Global</text>
</g>
<!-- \\MonitoringReportTest -->
<g id="node2" class="node"><title>\\MonitoringReportTest</title>
<polygon fill="none" stroke="black" points="811,-1006 659,-1006 659,-970 811,-970 811,-1006"/>
<text text-anchor="middle" x="735" y="-985.1" font-family="Courier,monospace" font-size="11.00">MonitoringReportTest</text>
</g>
<!-- \\CakeTestCase -->
<g id="node25" class="node"><title>\\CakeTestCase</title>
<ellipse fill="none" stroke="black" cx="363" cy="-342" rx="82.0244" ry="18.3848"/>
<text text-anchor="middle" x="363" y="-338.4" font-family="Times Roman,serif" font-size="14.00" fill="gray">\CakeTestCase</text>
</g>
<!-- \\MonitoringReportTest&#45;&gt;\\CakeTestCase -->
<g id="edge3" class="edge"><title>\\MonitoringReportTest&#45;&gt;\\CakeTestCase</title>
<path fill="none" stroke="black" d="M658.937,-988.508C637.78,-984.811 616.62,-976.844 602,-961 420.756,-764.592 717.94,-554.011 530,-364 507.921,-341.678 474.988,-334.209 444.189,-333.062"/>
<polygon fill="none" stroke="black" points="443.898,-329.557 433.845,-332.903 443.79,-336.556 443.898,-329.557"/>
</g>
<!-- \\MonitoringTest -->
<g id="node3" class="node"><title>\\MonitoringTest</title>
<polygon fill="none" stroke="black" points="790,-952 680,-952 680,-916 790,-916 790,-952"/>
<text text-anchor="middle" x="735" y="-931.1" font-family="Courier,monospace" font-size="11.00">MonitoringTest</text>
</g>
<!-- \\MonitoringTest&#45;&gt;\\CakeTestCase -->
<g id="edge5" class="edge"><title>\\MonitoringTest&#45;&gt;\\CakeTestCase</title>
<path fill="none" stroke="black" d="M679.283,-936.778C652.234,-935.009 621.457,-927.837 602,-907 435.85,-729.068 702.215,-536.069 530,-364 507.883,-341.901 475.111,-334.424 444.443,-333.209"/>
<polygon fill="none" stroke="black" points="444.202,-329.704 434.141,-333.025 444.077,-336.703 444.202,-329.704"/>
</g>
<!-- \\AllMonitoringTest -->
<g id="node4" class="node"><title>\\AllMonitoringTest</title>
<polygon fill="none" stroke="black" points="800,-844 670,-844 670,-808 800,-808 800,-844"/>
<text text-anchor="middle" x="735" y="-823.1" font-family="Courier,monospace" font-size="11.00">AllMonitoringTest</text>
</g>
<!-- \\PHPUnit_Framework_TestSuite -->
<g id="node28" class="node"><title>\\PHPUnit_Framework_TestSuite</title>
<ellipse fill="none" stroke="black" cx="363" cy="-288" rx="166.877" ry="18.3848"/>
<text text-anchor="middle" x="363" y="-284.4" font-family="Times Roman,serif" font-size="14.00" fill="gray">\PHPUnit_Framework_TestSuite</text>
</g>
<!-- \\AllMonitoringTest&#45;&gt;\\PHPUnit_Framework_TestSuite -->
<g id="edge7" class="edge"><title>\\AllMonitoringTest&#45;&gt;\\PHPUnit_Framework_TestSuite</title>
<path fill="none" stroke="black" d="M669.229,-827.715C644.946,-824.862 619.189,-817.118 602,-799 452.317,-641.228 682.808,-469.747 530,-315 525.328,-310.269 520.176,-306.163 514.666,-302.609"/>
<polygon fill="none" stroke="black" points="516.142,-299.421 505.729,-297.469 512.652,-305.489 516.142,-299.421"/>
</g>
<!-- \\MonitoringControllerTest -->
<g id="node5" class="node"><title>\\MonitoringControllerTest</title>
<polygon fill="none" stroke="black" points="824,-736 646,-736 646,-700 824,-700 824,-736"/>
<text text-anchor="middle" x="735" y="-715.1" font-family="Courier,monospace" font-size="11.00">MonitoringControllerTest</text>
</g>
<!-- \\ControllerTestCase -->
<g id="node30" class="node"><title>\\ControllerTestCase</title>
<ellipse fill="none" stroke="black" cx="363" cy="-234" rx="106.773" ry="18.3848"/>
<text text-anchor="middle" x="363" y="-230.4" font-family="Times Roman,serif" font-size="14.00" fill="gray">\ControllerTestCase</text>
</g>
<!-- \\MonitoringControllerTest&#45;&gt;\\ControllerTestCase -->
<g id="edge9" class="edge"><title>\\MonitoringControllerTest&#45;&gt;\\ControllerTestCase</title>
<path fill="none" stroke="black" d="M645.227,-714.927C629.03,-710.465 613.624,-703.03 602,-691 467.358,-551.648 667.401,-397.632 530,-261 516.167,-247.245 498.27,-238.81 479.349,-233.86"/>
<polygon fill="none" stroke="black" points="479.906,-230.397 469.377,-231.58 478.345,-237.221 479.906,-230.397"/>
</g>
<!-- \\MonitoringRunTaskTest -->
<g id="node6" class="node"><title>\\MonitoringRunTaskTest</title>
<polygon fill="none" stroke="black" points="814,-898 656,-898 656,-862 814,-862 814,-898"/>
<text text-anchor="middle" x="735" y="-877.1" font-family="Courier,monospace" font-size="11.00">MonitoringRunTaskTest</text>
</g>
<!-- \\MonitoringRunTaskTest&#45;&gt;\\CakeTestCase -->
<g id="edge11" class="edge"><title>\\MonitoringRunTaskTest&#45;&gt;\\CakeTestCase</title>
<path fill="none" stroke="black" d="M655.726,-879.623C635.745,-875.675 616.016,-867.796 602,-853 450.923,-693.521 686.511,-518.149 530,-364 507.912,-342.245 475.478,-334.736 445.055,-333.404"/>
<polygon fill="none" stroke="black" points="444.908,-329.9 434.833,-333.177 444.753,-336.898 444.908,-329.9"/>
</g>
<!-- \\MonitoringRunTaskTestCheckerTimeouted -->
<g id="node7" class="node"><title>\\MonitoringRunTaskTestCheckerTimeouted</title>
<polygon fill="none" stroke="black" points="868,-1438 602,-1438 602,-1402 868,-1402 868,-1438"/>
<text text-anchor="middle" x="735" y="-1417.1" font-family="Courier,monospace" font-size="11.00">MonitoringRunTaskTestCheckerTimeouted</text>
</g>
<!-- \\MonitoringChecker -->
<g id="node18" class="node"><title>\\MonitoringChecker</title>
<polygon fill="none" stroke="black" points="429,-1330 297,-1330 297,-1294 429,-1294 429,-1330"/>
<text text-anchor="start" x="329" y="-1317.43" font-family="Courier,monospace" font-size="11.00">«abstract»</text>
<text text-anchor="start" x="305.5" y="-1304.23" font-family="Courier,monospace" font-size="11.00">MonitoringChecker</text>
</g>
<!-- \\MonitoringRunTaskTestCheckerTimeouted&#45;&gt;\\MonitoringChecker -->
<g id="edge13" class="edge"><title>\\MonitoringRunTaskTestCheckerTimeouted&#45;&gt;\\MonitoringChecker</title>
<path fill="none" stroke="black" d="M638.768,-1401.97C626.34,-1399.2 613.829,-1396.19 602,-1393 538.882,-1375.97 468.143,-1351.27 420.112,-1333.63"/>
<polygon fill="none" stroke="black" points="421.112,-1330.27 410.518,-1330.09 418.688,-1336.84 421.112,-1330.27"/>
</g>
<!-- \\MonitoringRunTaskTestCheckerTrue -->
<g id="node8" class="node"><title>\\MonitoringRunTaskTestCheckerTrue</title>
<polygon fill="none" stroke="black" points="851,-1384 619,-1384 619,-1348 851,-1348 851,-1384"/>
<text text-anchor="middle" x="735" y="-1363.1" font-family="Courier,monospace" font-size="11.00">MonitoringRunTaskTestCheckerTrue</text>
</g>
<!-- \\MonitoringRunTaskTestCheckerTrue&#45;&gt;\\MonitoringChecker -->
<g id="edge15" class="edge"><title>\\MonitoringRunTaskTestCheckerTrue&#45;&gt;\\MonitoringChecker</title>
<path fill="none" stroke="black" d="M618.318,-1349.06C559.888,-1340.58 490.808,-1330.55 439.247,-1323.07"/>
<polygon fill="none" stroke="black" points="439.576,-1319.58 429.177,-1321.61 438.57,-1326.51 439.576,-1319.58"/>
</g>
<!-- \\MonitoringRunTaskTestCheckerFalse -->
<g id="node9" class="node"><title>\\MonitoringRunTaskTestCheckerFalse</title>
<polygon fill="none" stroke="black" points="854,-1330 616,-1330 616,-1294 854,-1294 854,-1330"/>
<text text-anchor="middle" x="735" y="-1309.1" font-family="Courier,monospace" font-size="11.00">MonitoringRunTaskTestCheckerFalse</text>
</g>
<!-- \\MonitoringRunTaskTestCheckerFalse&#45;&gt;\\MonitoringChecker -->
<g id="edge17" class="edge"><title>\\MonitoringRunTaskTestCheckerFalse&#45;&gt;\\MonitoringChecker</title>
<path fill="none" stroke="black" d="M615.249,-1312C557.525,-1312 490.008,-1312 439.359,-1312"/>
<polygon fill="none" stroke="black" points="439.139,-1308.5 429.139,-1312 439.139,-1315.5 439.139,-1308.5"/>
</g>
<!-- \\MonitoringUpdateTaskTest -->
<g id="node10" class="node"><title>\\MonitoringUpdateTaskTest</title>
<polygon fill="none" stroke="black" points="824,-1060 646,-1060 646,-1024 824,-1024 824,-1060"/>
<text text-anchor="middle" x="735" y="-1039.1" font-family="Courier,monospace" font-size="11.00">MonitoringUpdateTaskTest</text>
</g>
<!-- \\MonitoringUpdateTaskTest&#45;&gt;\\CakeTestCase -->
<g id="edge19" class="edge"><title>\\MonitoringUpdateTaskTest&#45;&gt;\\CakeTestCase</title>
<path fill="none" stroke="black" d="M645.378,-1039.62C628.97,-1035.14 613.443,-1027.52 602,-1015 405.645,-800.099 733.682,-571.97 530,-364 507.94,-341.475 474.841,-334.021 443.914,-332.938"/>
<polygon fill="none" stroke="black" points="443.573,-329.434 433.528,-332.803 443.482,-336.433 443.573,-329.434"/>
</g>
<!-- \\MonitoringFixture -->
<g id="node11" class="node"><title>\\MonitoringFixture</title>
<polygon fill="none" stroke="black" points="800,-628 670,-628 670,-592 800,-592 800,-628"/>
<text text-anchor="middle" x="735" y="-607.1" font-family="Courier,monospace" font-size="11.00">MonitoringFixture</text>
</g>
<!-- \\CakeTestFixture -->
<g id="node37" class="node"><title>\\CakeTestFixture</title>
<ellipse fill="none" stroke="black" cx="363" cy="-180" rx="92.1303" ry="18.3848"/>
<text text-anchor="middle" x="363" y="-176.4" font-family="Times Roman,serif" font-size="14.00" fill="gray">\CakeTestFixture</text>
</g>
<!-- \\MonitoringFixture&#45;&gt;\\CakeTestFixture -->
<g id="edge21" class="edge"><title>\\MonitoringFixture&#45;&gt;\\CakeTestFixture</title>
<path fill="none" stroke="black" d="M669.269,-611.302C645.139,-608.366 619.479,-600.674 602,-583 482.356,-462.023 652.039,-325.561 530,-207 512.041,-189.553 487.522,-180.732 462.805,-176.726"/>
<polygon fill="none" stroke="black" points="462.975,-173.217 452.594,-175.335 462.03,-180.153 462.975,-173.217"/>
</g>
<!-- \\MonitoringLogFixture -->
<g id="node12" class="node"><title>\\MonitoringLogFixture</title>
<polygon fill="none" stroke="black" points="811,-682 659,-682 659,-646 811,-646 811,-682"/>
<text text-anchor="middle" x="735" y="-661.1" font-family="Courier,monospace" font-size="11.00">MonitoringLogFixture</text>
</g>
<!-- \\MonitoringLogFixture&#45;&gt;\\CakeTestFixture -->
<g id="edge23" class="edge"><title>\\MonitoringLogFixture&#45;&gt;\\CakeTestFixture</title>
<path fill="none" stroke="black" d="M658.689,-663.964C637.778,-660.201 616.816,-652.335 602,-637 467.358,-497.648 667.401,-343.632 530,-207 511.983,-189.083 487.07,-180.193 461.98,-176.274"/>
<polygon fill="none" stroke="black" points="462.365,-172.795 451.995,-174.967 461.456,-179.736 462.365,-172.795"/>
</g>
<!-- \\Monitoring -->
<g id="node13" class="node"><title>\\Monitoring</title>
<polygon fill="none" stroke="black" points="777,-1168 693,-1168 693,-1132 777,-1132 777,-1168"/>
<text text-anchor="middle" x="735" y="-1147.1" font-family="Courier,monospace" font-size="11.00">Monitoring</text>
</g>
<!-- \\AppMonitoringModel -->
<g id="node16" class="node"><title>\\AppMonitoringModel</title>
<polygon fill="none" stroke="black" points="432,-1141 294,-1141 294,-1105 432,-1105 432,-1141"/>
<text text-anchor="middle" x="363" y="-1120.1" font-family="Courier,monospace" font-size="11.00">AppMonitoringModel</text>
</g>
<!-- \\Monitoring&#45;&gt;\\AppMonitoringModel -->
<g id="edge25" class="edge"><title>\\Monitoring&#45;&gt;\\AppMonitoringModel</title>
<path fill="none" stroke="black" d="M692.689,-1146.93C631.909,-1142.52 518.789,-1134.31 442.204,-1128.75"/>
<polygon fill="none" stroke="black" points="442.345,-1125.25 432.118,-1128.02 441.838,-1132.23 442.345,-1125.25"/>
</g>
<!-- \\MonitoringReport -->
<g id="node14" class="node"><title>\\MonitoringReport</title>
<polygon fill="none" stroke="black" points="797,-790 673,-790 673,-754 797,-754 797,-790"/>
<text text-anchor="middle" x="735" y="-769.1" font-family="Courier,monospace" font-size="11.00">MonitoringReport</text>
</g>
<!-- \\MonitoringLog -->
<g id="node15" class="node"><title>\\MonitoringLog</title>
<polygon fill="none" stroke="black" points="787,-1114 683,-1114 683,-1078 787,-1078 787,-1114"/>
<text text-anchor="middle" x="735" y="-1093.1" font-family="Courier,monospace" font-size="11.00">MonitoringLog</text>
</g>
<!-- \\MonitoringLog&#45;&gt;\\AppMonitoringModel -->
<g id="edge27" class="edge"><title>\\MonitoringLog&#45;&gt;\\AppMonitoringModel</title>
<path fill="none" stroke="black" d="M682.883,-1099.78C620.338,-1104.32 514.827,-1111.98 442.189,-1117.25"/>
<polygon fill="none" stroke="black" points="441.886,-1113.77 432.166,-1117.98 442.393,-1120.75 441.886,-1113.77"/>
</g>
<!-- \\AppModel -->
<g id="node42" class="node"><title>\\AppModel</title>
<ellipse fill="none" stroke="black" cx="62" cy="-1123" rx="62.2254" ry="18.3848"/>
<text text-anchor="middle" x="62" y="-1119.4" font-family="Times Roman,serif" font-size="14.00" fill="gray">\AppModel</text>
</g>
<!-- \\AppMonitoringModel&#45;&gt;\\AppModel -->
<g id="edge29" class="edge"><title>\\AppMonitoringModel&#45;&gt;\\AppModel</title>
<path fill="none" stroke="black" d="M293.945,-1123C246.143,-1123 182.655,-1123 134.187,-1123"/>
<polygon fill="none" stroke="black" points="134.084,-1119.5 124.084,-1123 134.084,-1126.5 134.084,-1119.5"/>
</g>
<!-- \\MonitoringSelfCheck -->
<g id="node17" class="node"><title>\\MonitoringSelfCheck</title>
<polygon fill="none" stroke="black" points="807,-1276 663,-1276 663,-1240 807,-1240 807,-1276"/>
<text text-anchor="middle" x="735" y="-1255.1" font-family="Courier,monospace" font-size="11.00">MonitoringSelfCheck</text>
</g>
<!-- \\MonitoringSelfCheck&#45;&gt;\\MonitoringChecker -->
<g id="edge31" class="edge"><title>\\MonitoringSelfCheck&#45;&gt;\\MonitoringChecker</title>
<path fill="none" stroke="black" d="M662.392,-1268.54C598.166,-1277.86 504.772,-1291.42 439.423,-1300.91"/>
<polygon fill="none" stroke="black" points="438.578,-1297.49 429.185,-1302.39 439.584,-1304.42 438.578,-1297.49"/>
</g>
<!-- \\MonitoringSelfFailCheck -->
<g id="node19" class="node"><title>\\MonitoringSelfFailCheck</title>
<polygon fill="none" stroke="black" points="821,-1222 649,-1222 649,-1186 821,-1186 821,-1222"/>
<text text-anchor="middle" x="735" y="-1201.1" font-family="Courier,monospace" font-size="11.00">MonitoringSelfFailCheck</text>
</g>
<!-- \\MonitoringSelfFailCheck&#45;&gt;\\MonitoringChecker -->
<g id="edge33" class="edge"><title>\\MonitoringSelfFailCheck&#45;&gt;\\MonitoringChecker</title>
<path fill="none" stroke="black" d="M648.773,-1219.85C633.126,-1223.19 617.014,-1226.95 602,-1231 538.882,-1248.03 468.143,-1272.73 420.112,-1290.37"/>
<polygon fill="none" stroke="black" points="418.688,-1287.16 410.518,-1293.91 421.112,-1293.73 418.688,-1287.16"/>
</g>
<!-- \\MonitoringController -->
<g id="node20" class="node"><title>\\MonitoringController</title>
<polygon fill="none" stroke="black" points="811,-574 659,-574 659,-538 811,-538 811,-574"/>
<text text-anchor="middle" x="735" y="-553.1" font-family="Courier,monospace" font-size="11.00">MonitoringController</text>
</g>
<!-- \\AppController -->
<g id="node46" class="node"><title>\\AppController</title>
<ellipse fill="none" stroke="black" cx="363" cy="-126" rx="82.0244" ry="18.3848"/>
<text text-anchor="middle" x="363" y="-122.4" font-family="Times Roman,serif" font-size="14.00" fill="gray">\AppController</text>
</g>
<!-- \\MonitoringController&#45;&gt;\\AppController -->
<g id="edge35" class="edge"><title>\\MonitoringController&#45;&gt;\\AppController</title>
<path fill="none" stroke="black" d="M658.912,-555.746C638.008,-551.977 616.994,-544.161 602,-529 482.356,-408.023 652.039,-271.561 530,-153 509.178,-132.771 479.538,-124.138 450.994,-121.163"/>
<polygon fill="none" stroke="black" points="451.213,-117.669 440.959,-120.336 450.638,-124.645 451.213,-117.669"/>
</g>
<!-- \\MonitoringShell -->
<g id="node21" class="node"><title>\\MonitoringShell</title>
<polygon fill="none" stroke="black" points="794,-520 676,-520 676,-484 794,-484 794,-520"/>
<text text-anchor="middle" x="735" y="-499.1" font-family="Courier,monospace" font-size="11.00">MonitoringShell</text>
</g>
<!-- \\AdvancedShell -->
<g id="node48" class="node"><title>\\AdvancedShell</title>
<ellipse fill="none" stroke="black" cx="363" cy="-72" rx="85.7684" ry="18.3848"/>
<text text-anchor="middle" x="363" y="-68.4" font-family="Times Roman,serif" font-size="14.00" fill="gray">\AdvancedShell</text>
</g>
<!-- \\MonitoringShell&#45;&gt;\\AdvancedShell -->
<g id="edge37" class="edge"><title>\\MonitoringShell&#45;&gt;\\AdvancedShell</title>
<path fill="none" stroke="black" d="M675.744,-503.983C649.827,-501.67 621.053,-494.265 602,-475 482.356,-354.023 652.039,-217.561 530,-99 510.387,-79.9459 482.951,-71.1801 455.976,-67.7395"/>
<polygon fill="none" stroke="black" points="455.985,-64.2217 445.677,-66.6712 455.263,-71.1844 455.985,-64.2217"/>
</g>
<!-- \\MonitoringUpdateTask -->
<g id="node22" class="node"><title>\\MonitoringUpdateTask</title>
<polygon fill="none" stroke="black" points="811,-466 659,-466 659,-430 811,-430 811,-466"/>
<text text-anchor="middle" x="735" y="-445.1" font-family="Courier,monospace" font-size="11.00">MonitoringUpdateTask</text>
</g>
<!-- \\AdvancedTask -->
<g id="node50" class="node"><title>\\AdvancedTask</title>
<ellipse fill="none" stroke="black" cx="363" cy="-18" rx="82.939" ry="18.3848"/>
<text text-anchor="middle" x="363" y="-14.4" font-family="Times Roman,serif" font-size="14.00" fill="gray">\AdvancedTask</text>
</g>
<!-- \\MonitoringUpdateTask&#45;&gt;\\AdvancedTask -->
<g id="edge39" class="edge"><title>\\MonitoringUpdateTask&#45;&gt;\\AdvancedTask</title>
<path fill="none" stroke="black" d="M658.912,-447.746C638.008,-443.977 616.994,-436.161 602,-421 482.356,-300.023 652.039,-163.561 530,-45 509.644,-25.224 480.861,-16.5307 452.912,-13.3711"/>
<polygon fill="none" stroke="black" points="452.945,-9.85984 442.671,-12.4471 452.316,-16.8315 452.945,-9.85984"/>
</g>
<!-- \\MonitoringRunTask -->
<g id="node23" class="node"><title>\\MonitoringRunTask</title>
<polygon fill="none" stroke="black" points="800,-412 670,-412 670,-376 800,-376 800,-412"/>
<text text-anchor="middle" x="735" y="-391.1" font-family="Courier,monospace" font-size="11.00">MonitoringRunTask</text>
</g>
<!-- \\MonitoringRunTask&#45;&gt;\\AdvancedTask -->
<g id="edge41" class="edge"><title>\\MonitoringRunTask&#45;&gt;\\AdvancedTask</title>
<path fill="none" stroke="black" d="M730.279,-375.757C713.977,-316.739 654.112,-129.909 530,-45 508.601,-30.3602 482.101,-22.6066 456.563,-18.7307"/>
<polygon fill="none" stroke="black" points="456.832,-15.2358 446.458,-17.3852 455.908,-22.1745 456.832,-15.2358"/>
</g>
</g>
</svg>
