<?xml version="1.0" encoding="UTF-8" standalone="no"?>
<!DOCTYPE svg PUBLIC "-//W3C//DTD SVG 1.1//EN"
 "http://www.w3.org/Graphics/SVG/1.1/DTD/svg11.dtd">
<!-- Generated by graphviz version 2.26.3 (20100126.1600)
 -->
<!-- Title: G Pages: 1 -->
<svg width="892pt" height="1484pt"
 viewBox="0.00 0.00 892.00 1484.00" xmlns="http://www.w3.org/2000/svg" xmlns:xlink="http://www.w3.org/1999/xlink">
<g id="graph1" class="graph" transform="scale(1 1) rotate(0) translate(4 1480)">
<title>G</title>
<polygon fill="white" stroke="white" points="-4,5 -4,-1480 889,-1480 889,5 -4,5"/>
<g id="graph2" class="cluster"><title>cluster_Global</title>
<polyline fill="none" stroke="gray" points="298,-368 864,-368 "/>
<path fill="none" stroke="gray" d="M864,-368C870,-368 876,-374 876,-380"/>
<polyline fill="none" stroke="gray" points="876,-380 876,-1456 "/>
<path fill="none" stroke="gray" d="M876,-1456C876,-1462 870,-1468 864,-1468"/>
<polyline fill="none" stroke="gray" points="864,-1468 298,-1468 "/>
<path fill="none" stroke="gray" d="M298,-1468C292,-1468 286,-1462 286,-1456"/>
<polyline fill="none" stroke="gray" points="286,-1456 286,-380 "/>
<path fill="none" stroke="gray" d="M286,-380C286,-374 292,-368 298,-368"/>
<text text-anchor="middle" x="581" y="-1454.1" font-family="Times Roman,serif" font-size="11.00" fill="gray">Global</text>
</g>
<!-- \\Monitoring -->
<g id="node2" class="node"><title>\\Monitoring</title>
<polygon fill="none" stroke="black" points="777,-1438 693,-1438 693,-1402 777,-1402 777,-1438"/>
<text text-anchor="middle" x="735" y="-1417.1" font-family="Courier,monospace" font-size="11.00">Monitoring</text>
</g>
<!-- \\AppMonitoringModel -->
<g id="node5" class="node"><title>\\AppMonitoringModel</title>
<polygon fill="none" stroke="black" points="432,-1384 294,-1384 294,-1348 432,-1348 432,-1384"/>
<text text-anchor="middle" x="363" y="-1363.1" font-family="Courier,monospace" font-size="11.00">AppMonitoringModel</text>
</g>
<!-- \\Monitoring&#45;&gt;\\AppMonitoringModel -->
<g id="edge3" class="edge"><title>\\Monitoring&#45;&gt;\\AppMonitoringModel</title>
<path fill="none" stroke="black" d="M692.689,-1413.86C631.909,-1405.04 518.789,-1388.61 442.204,-1377.5"/>
<polygon fill="none" stroke="black" points="442.517,-1374.01 432.118,-1376.03 441.511,-1380.93 442.517,-1374.01"/>
</g>
<!-- \\MonitoringReport -->
<g id="node3" class="node"><title>\\MonitoringReport</title>
<polygon fill="none" stroke="black" points="797,-1384 673,-1384 673,-1348 797,-1348 797,-1384"/>
<text text-anchor="middle" x="735" y="-1363.1" font-family="Courier,monospace" font-size="11.00">MonitoringReport</text>
</g>
<!-- \\MonitoringReport&#45;&gt;\\AppMonitoringModel -->
<g id="edge5" class="edge"><title>\\MonitoringReport&#45;&gt;\\AppMonitoringModel</title>
<path fill="none" stroke="black" d="M672.316,-1366C609.094,-1366 511.276,-1366 442.607,-1366"/>
<polygon fill="none" stroke="black" points="442.271,-1362.5 432.271,-1366 442.271,-1369.5 442.271,-1362.5"/>
</g>
<!-- \\MonitoringLog -->
<g id="node4" class="node"><title>\\MonitoringLog</title>
<polygon fill="none" stroke="black" points="787,-1330 683,-1330 683,-1294 787,-1294 787,-1330"/>
<text text-anchor="middle" x="735" y="-1309.1" font-family="Courier,monospace" font-size="11.00">MonitoringLog</text>
</g>
<!-- \\MonitoringLog&#45;&gt;\\AppMonitoringModel -->
<g id="edge7" class="edge"><title>\\MonitoringLog&#45;&gt;\\AppMonitoringModel</title>
<path fill="none" stroke="black" d="M682.883,-1319.57C620.338,-1328.64 514.827,-1343.96 442.189,-1354.5"/>
<polygon fill="none" stroke="black" points="441.56,-1351.06 432.166,-1355.96 442.565,-1357.99 441.56,-1351.06"/>
</g>
<!-- \\AppModel -->
<g id="node28" class="node"><title>\\AppModel</title>
<ellipse fill="none" stroke="black" cx="62" cy="-1366" rx="62.2254" ry="18.3848"/>
<text text-anchor="middle" x="62" y="-1362.4" font-family="Times Roman,serif" font-size="14.00" fill="gray">\AppModel</text>
</g>
<!-- \\AppMonitoringModel&#45;&gt;\\AppModel -->
<g id="edge9" class="edge"><title>\\AppMonitoringModel&#45;&gt;\\AppModel</title>
<path fill="none" stroke="black" d="M293.945,-1366C246.143,-1366 182.655,-1366 134.187,-1366"/>
<polygon fill="none" stroke="black" points="134.084,-1362.5 124.084,-1366 134.084,-1369.5 134.084,-1362.5"/>
</g>
<!-- \\MonitoringShell -->
<g id="node6" class="node"><title>\\MonitoringShell</title>
<polygon fill="none" stroke="black" points="794,-1006 676,-1006 676,-970 794,-970 794,-1006"/>
<text text-anchor="middle" x="735" y="-985.1" font-family="Courier,monospace" font-size="11.00">MonitoringShell</text>
</g>
<!-- \\AdvancedShell -->
<g id="node30" class="node"><title>\\AdvancedShell</title>
<ellipse fill="none" stroke="black" cx="363" cy="-342" rx="85.7684" ry="18.3848"/>
<text text-anchor="middle" x="363" y="-338.4" font-family="Times Roman,serif" font-size="14.00" fill="gray">\AdvancedShell</text>
</g>
<!-- \\MonitoringShell&#45;&gt;\\AdvancedShell -->
<g id="edge11" class="edge"><title>\\MonitoringShell&#45;&gt;\\AdvancedShell</title>
<path fill="none" stroke="black" d="M675.806,-990.628C649.581,-988.513 620.535,-981.086 602,-961 420.756,-764.592 717.94,-554.011 530,-364 508.937,-342.705 477.996,-334.928 448.452,-333.261"/>
<polygon fill="none" stroke="black" points="448.191,-329.751 438.079,-332.914 447.957,-336.747 448.191,-329.751"/>
</g>
<!-- \\MonitoringRunTask -->
<g id="node7" class="node"><title>\\MonitoringRunTask</title>
<polygon fill="none" stroke="black" points="800,-952 670,-952 670,-916 800,-916 800,-952"/>
<text text-anchor="middle" x="735" y="-931.1" font-family="Courier,monospace" font-size="11.00">MonitoringRunTask</text>
</g>
<!-- \\AdvancedTask -->
<g id="node32" class="node"><title>\\AdvancedTask</title>
<ellipse fill="none" stroke="black" cx="363" cy="-288" rx="82.939" ry="18.3848"/>
<text text-anchor="middle" x="363" y="-284.4" font-family="Times Roman,serif" font-size="14.00" fill="gray">\AdvancedTask</text>
</g>
<!-- \\MonitoringRunTask&#45;&gt;\\AdvancedTask -->
<g id="edge13" class="edge"><title>\\MonitoringRunTask&#45;&gt;\\AdvancedTask</title>
<path fill="none" stroke="black" d="M669.323,-935.989C644.904,-933.201 619.026,-925.432 602,-907 422.154,-712.303 713.703,-506.061 530,-315 509.788,-293.979 480.132,-285.202 451.399,-282.335"/>
<polygon fill="none" stroke="black" points="451.53,-278.834 441.291,-281.556 450.992,-285.814 451.53,-278.834"/>
</g>
<!-- \\MonitoringUpdateTask -->
<g id="node8" class="node"><title>\\MonitoringUpdateTask</title>
<polygon fill="none" stroke="black" points="811,-898 659,-898 659,-862 811,-862 811,-898"/>
<text text-anchor="middle" x="735" y="-877.1" font-family="Courier,monospace" font-size="11.00">MonitoringUpdateTask</text>
</g>
<!-- \\MonitoringUpdateTask&#45;&gt;\\AdvancedTask -->
<g id="edge15" class="edge"><title>\\MonitoringUpdateTask&#45;&gt;\\AdvancedTask</title>
<path fill="none" stroke="black" d="M658.718,-880.328C637.681,-876.601 616.643,-868.662 602,-853 437.247,-676.777 698.244,-487.893 530,-315 509.754,-294.195 480.245,-285.43 451.645,-282.511"/>
<polygon fill="none" stroke="black" points="451.829,-279.014 441.584,-281.712 451.275,-285.992 451.829,-279.014"/>
</g>
<!-- \\MonitoringSelfFailCheck -->
<g id="node9" class="node"><title>\\MonitoringSelfFailCheck</title>
<polygon fill="none" stroke="black" points="821,-1276 649,-1276 649,-1240 821,-1240 821,-1276"/>
<text text-anchor="middle" x="735" y="-1255.1" font-family="Courier,monospace" font-size="11.00">MonitoringSelfFailCheck</text>
</g>
<!-- \\MonitoringChecker -->
<g id="node10" class="node"><title>\\MonitoringChecker</title>
<polygon fill="none" stroke="black" points="429,-1168 297,-1168 297,-1132 429,-1132 429,-1168"/>
<text text-anchor="start" x="329" y="-1155.43" font-family="Courier,monospace" font-size="11.00">«abstract»</text>
<text text-anchor="start" x="305.5" y="-1142.23" font-family="Courier,monospace" font-size="11.00">MonitoringChecker</text>
</g>
<!-- \\MonitoringSelfFailCheck&#45;&gt;\\MonitoringChecker -->
<g id="edge17" class="edge"><title>\\MonitoringSelfFailCheck&#45;&gt;\\MonitoringChecker</title>
<path fill="none" stroke="black" d="M648.773,-1242.15C633.126,-1238.81 617.014,-1235.05 602,-1231 538.882,-1213.97 468.143,-1189.27 420.112,-1171.63"/>
<polygon fill="none" stroke="black" points="421.112,-1168.27 410.518,-1168.09 418.688,-1174.84 421.112,-1168.27"/>
</g>
<!-- \\MonitoringSelfCheck -->
<g id="node11" class="node"><title>\\MonitoringSelfCheck</title>
<polygon fill="none" stroke="black" points="807,-1222 663,-1222 663,-1186 807,-1186 807,-1222"/>
<text text-anchor="middle" x="735" y="-1201.1" font-family="Courier,monospace" font-size="11.00">MonitoringSelfCheck</text>
</g>
<!-- \\MonitoringSelfCheck&#45;&gt;\\MonitoringChecker -->
<g id="edge19" class="edge"><title>\\MonitoringSelfCheck&#45;&gt;\\MonitoringChecker</title>
<path fill="none" stroke="black" d="M662.392,-1193.46C598.166,-1184.14 504.772,-1170.58 439.423,-1161.09"/>
<polygon fill="none" stroke="black" points="439.584,-1157.58 429.185,-1159.61 438.578,-1164.51 439.584,-1157.58"/>
</g>
<!-- \\MonitoringFixture -->
<g id="node12" class="node"><title>\\MonitoringFixture</title>
<polygon fill="none" stroke="black" points="800,-844 670,-844 670,-808 800,-808 800,-844"/>
<text text-anchor="middle" x="735" y="-823.1" font-family="Courier,monospace" font-size="11.00">MonitoringFixture</text>
</g>
<!-- \\CakeTestFixture -->
<g id="node37" class="node"><title>\\CakeTestFixture</title>
<ellipse fill="none" stroke="black" cx="363" cy="-234" rx="92.1303" ry="18.3848"/>
<text text-anchor="middle" x="363" y="-230.4" font-family="Times Roman,serif" font-size="14.00" fill="gray">\CakeTestFixture</text>
</g>
<!-- \\MonitoringFixture&#45;&gt;\\CakeTestFixture -->
<g id="edge21" class="edge"><title>\\MonitoringFixture&#45;&gt;\\CakeTestFixture</title>
<path fill="none" stroke="black" d="M669.436,-827.884C645.033,-825.081 619.137,-817.33 602,-799 437.247,-622.777 698.244,-433.893 530,-261 512.008,-242.511 486.702,-233.531 461.218,-229.712"/>
<polygon fill="none" stroke="black" points="461.432,-226.212 451.077,-228.453 460.57,-233.158 461.432,-226.212"/>
</g>
<!-- \\MonitoringLogFixture -->
<g id="node13" class="node"><title>\\MonitoringLogFixture</title>
<polygon fill="none" stroke="black" points="811,-790 659,-790 659,-754 811,-754 811,-790"/>
<text text-anchor="middle" x="735" y="-769.1" font-family="Courier,monospace" font-size="11.00">MonitoringLogFixture</text>
</g>
<!-- \\MonitoringLogFixture&#45;&gt;\\CakeTestFixture -->
<g id="edge23" class="edge"><title>\\MonitoringLogFixture&#45;&gt;\\CakeTestFixture</title>
<path fill="none" stroke="black" d="M658.86,-772.194C637.828,-768.462 616.757,-760.554 602,-745 452.317,-587.228 682.808,-415.747 530,-261 512.056,-242.828 487.033,-233.886 461.812,-230"/>
<polygon fill="none" stroke="black" points="462.138,-226.513 451.774,-228.71 461.246,-233.456 462.138,-226.513"/>
</g>
<!-- \\AllMonitoringTest -->
<g id="node14" class="node"><title>\\AllMonitoringTest</title>
<polygon fill="none" stroke="black" points="800,-736 670,-736 670,-700 800,-700 800,-736"/>
<text text-anchor="middle" x="735" y="-715.1" font-family="Courier,monospace" font-size="11.00">AllMonitoringTest</text>
</g>
<!-- \\PHPUnit_Framework_TestSuite -->
<g id="node40" class="node"><title>\\PHPUnit_Framework_TestSuite</title>
<ellipse fill="none" stroke="black" cx="363" cy="-180" rx="166.877" ry="18.3848"/>
<text text-anchor="middle" x="363" y="-176.4" font-family="Times Roman,serif" font-size="14.00" fill="gray">\PHPUnit_Framework_TestSuite</text>
</g>
<!-- \\AllMonitoringTest&#45;&gt;\\PHPUnit_Framework_TestSuite -->
<g id="edge25" class="edge"><title>\\AllMonitoringTest&#45;&gt;\\PHPUnit_Framework_TestSuite</title>
<path fill="none" stroke="black" d="M669.229,-719.715C644.946,-716.862 619.189,-709.118 602,-691 452.317,-533.228 682.808,-361.747 530,-207 525.328,-202.269 520.176,-198.163 514.666,-194.609"/>
<polygon fill="none" stroke="black" points="516.142,-191.421 505.729,-189.469 512.652,-197.489 516.142,-191.421"/>
</g>
<!-- \\MonitoringTest -->
<g id="node15" class="node"><title>\\MonitoringTest</title>
<polygon fill="none" stroke="black" points="790,-682 680,-682 680,-646 790,-646 790,-682"/>
<text text-anchor="middle" x="735" y="-661.1" font-family="Courier,monospace" font-size="11.00">MonitoringTest</text>
</g>
<!-- \\CakeTestCase -->
<g id="node42" class="node"><title>\\CakeTestCase</title>
<ellipse fill="none" stroke="black" cx="363" cy="-126" rx="82.0244" ry="18.3848"/>
<text text-anchor="middle" x="363" y="-122.4" font-family="Times Roman,serif" font-size="14.00" fill="gray">\CakeTestCase</text>
</g>
<!-- \\MonitoringTest&#45;&gt;\\CakeTestCase -->
<g id="edge27" class="edge"><title>\\MonitoringTest&#45;&gt;\\CakeTestCase</title>
<path fill="none" stroke="black" d="M679.42,-666.648C652.408,-664.845 621.622,-657.682 602,-637 452.317,-479.228 682.808,-307.747 530,-153 509.325,-132.063 479.255,-123.378 450.31,-120.563"/>
<polygon fill="none" stroke="black" points="450.369,-117.057 440.136,-119.801 449.847,-124.038 450.369,-117.057"/>
</g>
<!-- \\MonitoringReportTest -->
<g id="node16" class="node"><title>\\MonitoringReportTest</title>
<polygon fill="none" stroke="black" points="811,-628 659,-628 659,-592 811,-592 811,-628"/>
<text text-anchor="middle" x="735" y="-607.1" font-family="Courier,monospace" font-size="11.00">MonitoringReportTest</text>
</g>
<!-- \\MonitoringReportTest&#45;&gt;\\CakeTestCase -->
<g id="edge29" class="edge"><title>\\MonitoringReportTest&#45;&gt;\\CakeTestCase</title>
<path fill="none" stroke="black" d="M658.689,-609.964C637.778,-606.201 616.816,-598.335 602,-583 467.358,-443.648 667.401,-289.632 530,-153 509.228,-132.345 479.293,-123.686 450.486,-120.811"/>
<polygon fill="none" stroke="black" points="450.602,-117.31 440.361,-120.025 450.061,-124.289 450.602,-117.31"/>
</g>
<!-- \\MonitoringRunTaskTest -->
<g id="node17" class="node"><title>\\MonitoringRunTaskTest</title>
<polygon fill="none" stroke="black" points="814,-574 656,-574 656,-538 814,-538 814,-574"/>
<text text-anchor="middle" x="735" y="-553.1" font-family="Courier,monospace" font-size="11.00">MonitoringRunTaskTest</text>
</g>
<!-- \\MonitoringRunTaskTest&#45;&gt;\\CakeTestCase -->
<g id="edge31" class="edge"><title>\\MonitoringRunTaskTest&#45;&gt;\\CakeTestCase</title>
<path fill="none" stroke="black" d="M655.794,-555.154C635.933,-551.181 616.248,-543.407 602,-529 482.356,-408.023 652.039,-271.561 530,-153 509.178,-132.771 479.538,-124.138 450.994,-121.163"/>
<polygon fill="none" stroke="black" points="451.213,-117.669 440.959,-120.336 450.638,-124.645 451.213,-117.669"/>
</g>
<!-- \\MonitoringRunTaskTestCheckerTimeouted -->
<g id="node18" class="node"><title>\\MonitoringRunTaskTestCheckerTimeouted</title>
<polygon fill="none" stroke="black" points="868,-1168 602,-1168 602,-1132 868,-1132 868,-1168"/>
<text text-anchor="middle" x="735" y="-1147.1" font-family="Courier,monospace" font-size="11.00">MonitoringRunTaskTestCheckerTimeouted</text>
</g>
<!-- \\MonitoringRunTaskTestCheckerTimeouted&#45;&gt;\\MonitoringChecker -->
<g id="edge33" class="edge"><title>\\MonitoringRunTaskTestCheckerTimeouted&#45;&gt;\\MonitoringChecker</title>
<path fill="none" stroke="black" d="M601.75,-1150C547.172,-1150 485.988,-1150 439.223,-1150"/>
<polygon fill="none" stroke="black" points="439.17,-1146.5 429.17,-1150 439.169,-1153.5 439.17,-1146.5"/>
</g>
<!-- \\MonitoringRunTaskTestCheckerTrue -->
<g id="node19" class="node"><title>\\MonitoringRunTaskTestCheckerTrue</title>
<polygon fill="none" stroke="black" points="851,-1114 619,-1114 619,-1078 851,-1078 851,-1114"/>
<text text-anchor="middle" x="735" y="-1093.1" font-family="Courier,monospace" font-size="11.00">MonitoringRunTaskTestCheckerTrue</text>
</g>
<!-- \\MonitoringRunTaskTestCheckerTrue&#45;&gt;\\MonitoringChecker -->
<g id="edge35" class="edge"><title>\\MonitoringRunTaskTestCheckerTrue&#45;&gt;\\MonitoringChecker</title>
<path fill="none" stroke="black" d="M622.824,-1114.01C592.701,-1118.7 560.128,-1123.66 530,-1128 500.482,-1132.25 467.982,-1136.6 439.559,-1140.3"/>
<polygon fill="none" stroke="black" points="438.751,-1136.88 429.284,-1141.64 439.652,-1143.82 438.751,-1136.88"/>
</g>
<!-- \\MonitoringRunTaskTestCheckerFalse -->
<g id="node20" class="node"><title>\\MonitoringRunTaskTestCheckerFalse</title>
<polygon fill="none" stroke="black" points="854,-1060 616,-1060 616,-1024 854,-1024 854,-1060"/>
<text text-anchor="middle" x="735" y="-1039.1" font-family="Courier,monospace" font-size="11.00">MonitoringRunTaskTestCheckerFalse</text>
</g>
<!-- \\MonitoringRunTaskTestCheckerFalse&#45;&gt;\\MonitoringChecker -->
<g id="edge37" class="edge"><title>\\MonitoringRunTaskTestCheckerFalse&#45;&gt;\\MonitoringChecker</title>
<path fill="none" stroke="black" d="M624.394,-1060.06C616.671,-1062.65 609.13,-1065.61 602,-1069 564.629,-1086.75 567.964,-1111.56 530,-1128 501.795,-1140.22 468.599,-1146.11 439.265,-1148.81"/>
<polygon fill="none" stroke="black" points="438.748,-1145.34 429.064,-1149.64 439.315,-1152.32 438.748,-1145.34"/>
</g>
<!-- \\MonitoringUpdateTaskTest -->
<g id="node21" class="node"><title>\\MonitoringUpdateTaskTest</title>
<polygon fill="none" stroke="black" points="824,-520 646,-520 646,-484 824,-484 824,-520"/>
<text text-anchor="middle" x="735" y="-499.1" font-family="Courier,monospace" font-size="11.00">MonitoringUpdateTaskTest</text>
</g>
<!-- \\MonitoringUpdateTaskTest&#45;&gt;\\CakeTestCase -->
<g id="edge39" class="edge"><title>\\MonitoringUpdateTaskTest&#45;&gt;\\CakeTestCase</title>
<path fill="none" stroke="black" d="M645.387,-498.333C629.275,-493.901 613.861,-486.629 602,-475 497.29,-372.333 636.742,-253.553 530,-153 509.152,-133.36 479.952,-124.766 451.789,-121.651"/>
<polygon fill="none" stroke="black" points="451.747,-118.134 441.478,-120.742 451.132,-125.107 451.747,-118.134"/>
</g>
<!-- \\MonitoringControllerTest -->
<g id="node22" class="node"><title>\\MonitoringControllerTest</title>
<polygon fill="none" stroke="black" points="824,-466 646,-466 646,-430 824,-430 824,-466"/>
<text text-anchor="middle" x="735" y="-445.1" font-family="Courier,monospace" font-size="11.00">MonitoringControllerTest</text>
</g>
<!-- \\ControllerTestCase -->
<g id="node50" class="node"><title>\\ControllerTestCase</title>
<ellipse fill="none" stroke="black" cx="363" cy="-72" rx="106.773" ry="18.3848"/>
<text text-anchor="middle" x="363" y="-68.4" font-family="Times Roman,serif" font-size="14.00" fill="gray">\ControllerTestCase</text>
</g>
<!-- \\MonitoringControllerTest&#45;&gt;\\ControllerTestCase -->
<g id="edge41" class="edge"><title>\\MonitoringControllerTest&#45;&gt;\\ControllerTestCase</title>
<path fill="none" stroke="black" d="M645.387,-444.333C629.275,-439.901 613.861,-432.629 602,-421 497.29,-318.333 636.742,-199.553 530,-99 515.982,-85.7952 498.19,-77.5835 479.475,-72.6733"/>
<polygon fill="none" stroke="black" points="480.151,-69.2373 469.62,-70.3976 478.576,-76.0578 480.151,-69.2373"/>
</g>
<!-- \\MonitoringController -->
<g id="node23" class="node"><title>\\MonitoringController</title>
<polygon fill="none" stroke="black" points="811,-412 659,-412 659,-376 811,-376 811,-412"/>
<text text-anchor="middle" x="735" y="-391.1" font-family="Courier,monospace" font-size="11.00">MonitoringController</text>
</g>
<!-- \\AppController -->
<g id="node52" class="node"><title>\\AppController</title>
<ellipse fill="none" stroke="black" cx="363" cy="-18" rx="82.0244" ry="18.3848"/>
<text text-anchor="middle" x="363" y="-14.4" font-family="Times Roman,serif" font-size="14.00" fill="gray">\AppController</text>
</g>
<!-- \\MonitoringController&#45;&gt;\\AppController -->
<g id="edge43" class="edge"><title>\\MonitoringController&#45;&gt;\\AppController</title>
<path fill="none" stroke="black" d="M730.279,-375.757C713.977,-316.739 654.112,-129.909 530,-45 508.28,-30.1406 481.305,-22.3755 455.414,-18.5589"/>
<polygon fill="none" stroke="black" points="455.541,-15.0464 445.176,-17.2404 454.647,-21.9891 455.541,-15.0464"/>
</g>
</g>
</svg>
