<?xml version="1.0" encoding="UTF-8" standalone="no"?>
<!DOCTYPE svg PUBLIC "-//W3C//DTD SVG 1.1//EN"
 "http://www.w3.org/Graphics/SVG/1.1/DTD/svg11.dtd">
<!-- Generated by graphviz version 2.26.3 (20100126.1600)
 -->
<!-- Title: G Pages: 1 -->
<svg width="892pt" height="1592pt"
 viewBox="0.00 0.00 892.00 1592.00" xmlns="http://www.w3.org/2000/svg" xmlns:xlink="http://www.w3.org/1999/xlink">
<g id="graph1" class="graph" transform="scale(1 1) rotate(0) translate(4 1588)">
<title>G</title>
<polygon fill="white" stroke="white" points="-4,5 -4,-1588 889,-1588 889,5 -4,5"/>
<g id="graph2" class="cluster"><title>cluster_Global</title>
<polyline fill="none" stroke="gray" points="298,-422 864,-422 "/>
<path fill="none" stroke="gray" d="M864,-422C870,-422 876,-428 876,-434"/>
<polyline fill="none" stroke="gray" points="876,-434 876,-1564 "/>
<path fill="none" stroke="gray" d="M876,-1564C876,-1570 870,-1576 864,-1576"/>
<polyline fill="none" stroke="gray" points="864,-1576 298,-1576 "/>
<path fill="none" stroke="gray" d="M298,-1576C292,-1576 286,-1570 286,-1564"/>
<polyline fill="none" stroke="gray" points="286,-1564 286,-434 "/>
<path fill="none" stroke="gray" d="M286,-434C286,-428 292,-422 298,-422"/>
<text text-anchor="middle" x="581" y="-1562.1" font-family="Times Roman,serif" font-size="11.00" fill="gray">Global</text>
</g>
<!-- \\MonitoringRunTaskTest -->
<g id="node2" class="node"><title>\\MonitoringRunTaskTest</title>
<polygon fill="none" stroke="black" points="814,-1114 656,-1114 656,-1078 814,-1078 814,-1114"/>
<text text-anchor="middle" x="735" y="-1093.1" font-family="Courier,monospace" font-size="11.00">MonitoringRunTaskTest</text>
</g>
<!-- \\CakeTestCase -->
<g id="node26" class="node"><title>\\CakeTestCase</title>
<ellipse fill="none" stroke="black" cx="363" cy="-396" rx="82.0244" ry="18.3848"/>
<text text-anchor="middle" x="363" y="-392.4" font-family="Times Roman,serif" font-size="14.00" fill="gray">\CakeTestCase</text>
</g>
<!-- \\MonitoringRunTaskTest&#45;&gt;\\CakeTestCase -->
<g id="edge3" class="edge"><title>\\MonitoringRunTaskTest&#45;&gt;\\CakeTestCase</title>
<path fill="none" stroke="black" d="M655.719,-1096.02C635.616,-1092.1 615.827,-1084.13 602,-1069 405.645,-854.099 733.682,-625.97 530,-418 507.94,-395.475 474.841,-388.021 443.914,-386.938"/>
<polygon fill="none" stroke="black" points="443.573,-383.434 433.528,-386.803 443.482,-390.433 443.573,-383.434"/>
</g>
<!-- \\MonitoringRunTaskTestCheckerTimeouted -->
<g id="node3" class="node"><title>\\MonitoringRunTaskTestCheckerTimeouted</title>
<polygon fill="none" stroke="black" points="868,-1546 602,-1546 602,-1510 868,-1510 868,-1546"/>
<text text-anchor="middle" x="735" y="-1525.1" font-family="Courier,monospace" font-size="11.00">MonitoringRunTaskTestCheckerTimeouted</text>
</g>
<!-- \\MonitoringChecker -->
<g id="node18" class="node"><title>\\MonitoringChecker</title>
<polygon fill="none" stroke="black" points="429,-1438 297,-1438 297,-1402 429,-1402 429,-1438"/>
<text text-anchor="start" x="329" y="-1425.43" font-family="Courier,monospace" font-size="11.00">«abstract»</text>
<text text-anchor="start" x="305.5" y="-1412.23" font-family="Courier,monospace" font-size="11.00">MonitoringChecker</text>
</g>
<!-- \\MonitoringRunTaskTestCheckerTimeouted&#45;&gt;\\MonitoringChecker -->
<g id="edge5" class="edge"><title>\\MonitoringRunTaskTestCheckerTimeouted&#45;&gt;\\MonitoringChecker</title>
<path fill="none" stroke="black" d="M638.768,-1509.97C626.34,-1507.2 613.829,-1504.19 602,-1501 538.882,-1483.97 468.143,-1459.27 420.112,-1441.63"/>
<polygon fill="none" stroke="black" points="421.112,-1438.27 410.518,-1438.09 418.688,-1444.84 421.112,-1438.27"/>
</g>
<!-- \\MonitoringRunTaskTestCheckerTrue -->
<g id="node4" class="node"><title>\\MonitoringRunTaskTestCheckerTrue</title>
<polygon fill="none" stroke="black" points="851,-1492 619,-1492 619,-1456 851,-1456 851,-1492"/>
<text text-anchor="middle" x="735" y="-1471.1" font-family="Courier,monospace" font-size="11.00">MonitoringRunTaskTestCheckerTrue</text>
</g>
<!-- \\MonitoringRunTaskTestCheckerTrue&#45;&gt;\\MonitoringChecker -->
<g id="edge7" class="edge"><title>\\MonitoringRunTaskTestCheckerTrue&#45;&gt;\\MonitoringChecker</title>
<path fill="none" stroke="black" d="M618.318,-1457.06C559.888,-1448.58 490.808,-1438.55 439.247,-1431.07"/>
<polygon fill="none" stroke="black" points="439.576,-1427.58 429.177,-1429.61 438.57,-1434.51 439.576,-1427.58"/>
</g>
<!-- \\MonitoringRunTaskTestCheckerFalse -->
<g id="node5" class="node"><title>\\MonitoringRunTaskTestCheckerFalse</title>
<polygon fill="none" stroke="black" points="854,-1438 616,-1438 616,-1402 854,-1402 854,-1438"/>
<text text-anchor="middle" x="735" y="-1417.1" font-family="Courier,monospace" font-size="11.00">MonitoringRunTaskTestCheckerFalse</text>
</g>
<!-- \\MonitoringRunTaskTestCheckerFalse&#45;&gt;\\MonitoringChecker -->
<g id="edge9" class="edge"><title>\\MonitoringRunTaskTestCheckerFalse&#45;&gt;\\MonitoringChecker</title>
<path fill="none" stroke="black" d="M615.249,-1420C557.525,-1420 490.008,-1420 439.359,-1420"/>
<polygon fill="none" stroke="black" points="439.139,-1416.5 429.139,-1420 439.139,-1423.5 439.139,-1416.5"/>
</g>
<!-- \\MonitoringUpdateTaskTest -->
<g id="node6" class="node"><title>\\MonitoringUpdateTaskTest</title>
<polygon fill="none" stroke="black" points="824,-1060 646,-1060 646,-1024 824,-1024 824,-1060"/>
<text text-anchor="middle" x="735" y="-1039.1" font-family="Courier,monospace" font-size="11.00">MonitoringUpdateTaskTest</text>
</g>
<!-- \\MonitoringUpdateTaskTest&#45;&gt;\\CakeTestCase -->
<g id="edge11" class="edge"><title>\\MonitoringUpdateTaskTest&#45;&gt;\\CakeTestCase</title>
<path fill="none" stroke="black" d="M645.473,-1039.53C629.058,-1035.06 613.505,-1027.47 602,-1015 420.756,-818.592 717.94,-608.011 530,-418 507.921,-395.678 474.988,-388.209 444.189,-387.062"/>
<polygon fill="none" stroke="black" points="443.898,-383.557 433.845,-386.903 443.79,-390.556 443.898,-383.557"/>
</g>
<!-- \\MonitoringControllerTest -->
<g id="node7" class="node"><title>\\MonitoringControllerTest</title>
<polygon fill="none" stroke="black" points="824,-898 646,-898 646,-862 824,-862 824,-898"/>
<text text-anchor="middle" x="735" y="-877.1" font-family="Courier,monospace" font-size="11.00">MonitoringControllerTest</text>
</g>
<!-- \\ControllerTestCase -->
<g id="node32" class="node"><title>\\ControllerTestCase</title>
<ellipse fill="none" stroke="black" cx="363" cy="-342" rx="106.773" ry="18.3848"/>
<text text-anchor="middle" x="363" y="-338.4" font-family="Times Roman,serif" font-size="14.00" fill="gray">\ControllerTestCase</text>
</g>
<!-- \\MonitoringControllerTest&#45;&gt;\\ControllerTestCase -->
<g id="edge13" class="edge"><title>\\MonitoringControllerTest&#45;&gt;\\ControllerTestCase</title>
<path fill="none" stroke="black" d="M645.397,-877.186C629.088,-872.722 613.595,-865.221 602,-853 452.317,-695.228 682.808,-523.747 530,-369 516.054,-354.877 497.832,-346.329 478.565,-341.396"/>
<polygon fill="none" stroke="black" points="479.248,-337.963 468.725,-339.197 477.721,-344.794 479.248,-337.963"/>
</g>
<!-- \\MonitoringReportTest -->
<g id="node8" class="node"><title>\\MonitoringReportTest</title>
<polygon fill="none" stroke="black" points="811,-1006 659,-1006 659,-970 811,-970 811,-1006"/>
<text text-anchor="middle" x="735" y="-985.1" font-family="Courier,monospace" font-size="11.00">MonitoringReportTest</text>
</g>
<!-- \\MonitoringReportTest&#45;&gt;\\CakeTestCase -->
<g id="edge15" class="edge"><title>\\MonitoringReportTest&#45;&gt;\\CakeTestCase</title>
<path fill="none" stroke="black" d="M658.706,-988.34C637.669,-984.612 616.633,-976.671 602,-961 435.85,-783.068 702.215,-590.069 530,-418 507.883,-395.901 475.111,-388.424 444.443,-387.209"/>
<polygon fill="none" stroke="black" points="444.202,-383.704 434.141,-387.025 444.077,-390.703 444.202,-383.704"/>
</g>
<!-- \\MonitoringTest -->
<g id="node9" class="node"><title>\\MonitoringTest</title>
<polygon fill="none" stroke="black" points="790,-952 680,-952 680,-916 790,-916 790,-952"/>
<text text-anchor="middle" x="735" y="-931.1" font-family="Courier,monospace" font-size="11.00">MonitoringTest</text>
</g>
<!-- \\MonitoringTest&#45;&gt;\\CakeTestCase -->
<g id="edge17" class="edge"><title>\\MonitoringTest&#45;&gt;\\CakeTestCase</title>
<path fill="none" stroke="black" d="M679.408,-936.661C652.391,-934.861 621.606,-927.697 602,-907 450.923,-747.521 686.511,-572.149 530,-418 507.912,-396.245 475.478,-388.736 445.055,-387.404"/>
<polygon fill="none" stroke="black" points="444.908,-383.9 434.833,-387.177 444.753,-390.898 444.908,-383.9"/>
</g>
<!-- \\AllMonitoringTest -->
<g id="node10" class="node"><title>\\AllMonitoringTest</title>
<polygon fill="none" stroke="black" points="800,-844 670,-844 670,-808 800,-808 800,-844"/>
<text text-anchor="middle" x="735" y="-823.1" font-family="Courier,monospace" font-size="11.00">AllMonitoringTest</text>
</g>
<!-- \\PHPUnit_Framework_TestSuite -->
<g id="node36" class="node"><title>\\PHPUnit_Framework_TestSuite</title>
<ellipse fill="none" stroke="black" cx="363" cy="-288" rx="166.877" ry="18.3848"/>
<text text-anchor="middle" x="363" y="-284.4" font-family="Times Roman,serif" font-size="14.00" fill="gray">\PHPUnit_Framework_TestSuite</text>
</g>
<!-- \\AllMonitoringTest&#45;&gt;\\PHPUnit_Framework_TestSuite -->
<g id="edge19" class="edge"><title>\\AllMonitoringTest&#45;&gt;\\PHPUnit_Framework_TestSuite</title>
<path fill="none" stroke="black" d="M669.229,-827.715C644.946,-824.862 619.189,-817.118 602,-799 452.317,-641.228 682.808,-469.747 530,-315 525.328,-310.269 520.176,-306.163 514.666,-302.609"/>
<polygon fill="none" stroke="black" points="516.142,-299.421 505.729,-297.469 512.652,-305.489 516.142,-299.421"/>
</g>
<!-- \\MonitoringLogFixture -->
<g id="node11" class="node"><title>\\MonitoringLogFixture</title>
<polygon fill="none" stroke="black" points="811,-790 659,-790 659,-754 811,-754 811,-790"/>
<text text-anchor="middle" x="735" y="-769.1" font-family="Courier,monospace" font-size="11.00">MonitoringLogFixture</text>
</g>
<!-- \\CakeTestFixture -->
<g id="node38" class="node"><title>\\CakeTestFixture</title>
<ellipse fill="none" stroke="black" cx="363" cy="-234" rx="92.1303" ry="18.3848"/>
<text text-anchor="middle" x="363" y="-230.4" font-family="Times Roman,serif" font-size="14.00" fill="gray">\CakeTestFixture</text>
</g>
<!-- \\MonitoringLogFixture&#45;&gt;\\CakeTestFixture -->
<g id="edge21" class="edge"><title>\\MonitoringLogFixture&#45;&gt;\\CakeTestFixture</title>
<path fill="none" stroke="black" d="M658.86,-772.194C637.828,-768.462 616.757,-760.554 602,-745 452.317,-587.228 682.808,-415.747 530,-261 512.056,-242.828 487.033,-233.886 461.812,-230"/>
<polygon fill="none" stroke="black" points="462.138,-226.513 451.774,-228.71 461.246,-233.456 462.138,-226.513"/>
</g>
<!-- \\MonitoringFixture -->
<g id="node12" class="node"><title>\\MonitoringFixture</title>
<polygon fill="none" stroke="black" points="800,-736 670,-736 670,-700 800,-700 800,-736"/>
<text text-anchor="middle" x="735" y="-715.1" font-family="Courier,monospace" font-size="11.00">MonitoringFixture</text>
</g>
<!-- \\MonitoringFixture&#45;&gt;\\CakeTestFixture -->
<g id="edge23" class="edge"><title>\\MonitoringFixture&#45;&gt;\\CakeTestFixture</title>
<path fill="none" stroke="black" d="M669.398,-719.553C645.139,-716.677 619.354,-708.961 602,-691 467.358,-551.648 667.401,-397.632 530,-261 511.983,-243.083 487.07,-234.193 461.98,-230.274"/>
<polygon fill="none" stroke="black" points="462.365,-226.795 451.995,-228.967 461.456,-233.736 462.365,-226.795"/>
</g>
<!-- \\MonitoringShell -->
<g id="node13" class="node"><title>\\MonitoringShell</title>
<polygon fill="none" stroke="black" points="794,-682 676,-682 676,-646 794,-646 794,-682"/>
<text text-anchor="middle" x="735" y="-661.1" font-family="Courier,monospace" font-size="11.00">MonitoringShell</text>
</g>
<!-- \\AdvancedShell -->
<g id="node41" class="node"><title>\\AdvancedShell</title>
<ellipse fill="none" stroke="black" cx="363" cy="-180" rx="85.7684" ry="18.3848"/>
<text text-anchor="middle" x="363" y="-176.4" font-family="Times Roman,serif" font-size="14.00" fill="gray">\AdvancedShell</text>
</g>
<!-- \\MonitoringShell&#45;&gt;\\AdvancedShell -->
<g id="edge25" class="edge"><title>\\MonitoringShell&#45;&gt;\\AdvancedShell</title>
<path fill="none" stroke="black" d="M675.877,-666.213C649.829,-663.978 620.909,-656.571 602,-637 467.358,-497.648 667.401,-343.632 530,-207 510.432,-187.542 482.731,-178.73 455.503,-175.37"/>
<polygon fill="none" stroke="black" points="455.808,-171.884 445.509,-174.37 455.111,-178.849 455.808,-171.884"/>
</g>
<!-- \\MonitoringUpdateTask -->
<g id="node14" class="node"><title>\\MonitoringUpdateTask</title>
<polygon fill="none" stroke="black" points="811,-628 659,-628 659,-592 811,-592 811,-628"/>
<text text-anchor="middle" x="735" y="-607.1" font-family="Courier,monospace" font-size="11.00">MonitoringUpdateTask</text>
</g>
<!-- \\AdvancedTask -->
<g id="node43" class="node"><title>\\AdvancedTask</title>
<ellipse fill="none" stroke="black" cx="363" cy="-126" rx="82.939" ry="18.3848"/>
<text text-anchor="middle" x="363" y="-122.4" font-family="Times Roman,serif" font-size="14.00" fill="gray">\AdvancedTask</text>
</g>
<!-- \\MonitoringUpdateTask&#45;&gt;\\AdvancedTask -->
<g id="edge27" class="edge"><title>\\MonitoringUpdateTask&#45;&gt;\\AdvancedTask</title>
<path fill="none" stroke="black" d="M658.689,-609.964C637.778,-606.201 616.816,-598.335 602,-583 467.358,-443.648 667.401,-289.632 530,-153 509.601,-132.715 480.364,-124.001 452.038,-120.972"/>
<polygon fill="none" stroke="black" points="452.332,-117.484 442.072,-120.128 451.741,-124.459 452.332,-117.484"/>
</g>
<!-- \\MonitoringRunTask -->
<g id="node15" class="node"><title>\\MonitoringRunTask</title>
<polygon fill="none" stroke="black" points="800,-574 670,-574 670,-538 800,-538 800,-574"/>
<text text-anchor="middle" x="735" y="-553.1" font-family="Courier,monospace" font-size="11.00">MonitoringRunTask</text>
</g>
<!-- \\MonitoringRunTask&#45;&gt;\\AdvancedTask -->
<g id="edge29" class="edge"><title>\\MonitoringRunTask&#45;&gt;\\AdvancedTask</title>
<path fill="none" stroke="black" d="M669.269,-557.302C645.139,-554.366 619.479,-546.674 602,-529 482.356,-408.023 652.039,-271.561 530,-153 509.644,-133.224 480.861,-124.531 452.912,-121.371"/>
<polygon fill="none" stroke="black" points="452.945,-117.86 442.671,-120.447 452.316,-124.832 452.945,-117.86"/>
</g>
<!-- \\MonitoringSelfFailCheck -->
<g id="node16" class="node"><title>\\MonitoringSelfFailCheck</title>
<polygon fill="none" stroke="black" points="821,-1384 649,-1384 649,-1348 821,-1348 821,-1384"/>
<text text-anchor="middle" x="735" y="-1363.1" font-family="Courier,monospace" font-size="11.00">MonitoringSelfFailCheck</text>
</g>
<!-- \\MonitoringSelfFailCheck&#45;&gt;\\MonitoringChecker -->
<g id="edge31" class="edge"><title>\\MonitoringSelfFailCheck&#45;&gt;\\MonitoringChecker</title>
<path fill="none" stroke="black" d="M648.721,-1378.52C585.286,-1387.73 499.882,-1400.13 439.008,-1408.97"/>
<polygon fill="none" stroke="black" points="438.471,-1405.51 429.077,-1410.41 439.477,-1412.44 438.471,-1405.51"/>
</g>
<!-- \\MonitoringSelfCheck -->
<g id="node17" class="node"><title>\\MonitoringSelfCheck</title>
<polygon fill="none" stroke="black" points="807,-1330 663,-1330 663,-1294 807,-1294 807,-1330"/>
<text text-anchor="middle" x="735" y="-1309.1" font-family="Courier,monospace" font-size="11.00">MonitoringSelfCheck</text>
</g>
<!-- \\MonitoringSelfCheck&#45;&gt;\\MonitoringChecker -->
<g id="edge33" class="edge"><title>\\MonitoringSelfCheck&#45;&gt;\\MonitoringChecker</title>
<path fill="none" stroke="black" d="M662.479,-1324.99C642.743,-1329 621.449,-1333.75 602,-1339 538.882,-1356.03 468.143,-1380.73 420.112,-1398.37"/>
<polygon fill="none" stroke="black" points="418.688,-1395.16 410.518,-1401.91 421.112,-1401.73 418.688,-1395.16"/>
</g>
<!-- \\MonitoringController -->
<g id="node19" class="node"><title>\\MonitoringController</title>
<polygon fill="none" stroke="black" points="811,-520 659,-520 659,-484 811,-484 811,-520"/>
<text text-anchor="middle" x="735" y="-499.1" font-family="Courier,monospace" font-size="11.00">MonitoringController</text>
</g>
<!-- \\AppController -->
<g id="node48" class="node"><title>\\AppController</title>
<ellipse fill="none" stroke="black" cx="363" cy="-72" rx="82.0244" ry="18.3848"/>
<text text-anchor="middle" x="363" y="-68.4" font-family="Times Roman,serif" font-size="14.00" fill="gray">\AppController</text>
</g>
<!-- \\MonitoringController&#45;&gt;\\AppController -->
<g id="edge35" class="edge"><title>\\MonitoringController&#45;&gt;\\AppController</title>
<path fill="none" stroke="black" d="M658.912,-501.746C638.008,-497.977 616.994,-490.161 602,-475 482.356,-354.023 652.039,-217.561 530,-99 509.178,-78.7712 479.538,-70.1384 450.994,-67.1626"/>
<polygon fill="none" stroke="black" points="451.213,-63.6689 440.959,-66.3363 450.638,-70.6453 451.213,-63.6689"/>
</g>
<!-- \\Monitoring -->
<g id="node20" class="node"><title>\\Monitoring</title>
<polygon fill="none" stroke="black" points="777,-1276 693,-1276 693,-1240 777,-1240 777,-1276"/>
<text text-anchor="middle" x="735" y="-1255.1" font-family="Courier,monospace" font-size="11.00">Monitoring</text>
</g>
<!-- \\AppMonitoringModel -->
<g id="node23" class="node"><title>\\AppMonitoringModel</title>
<polygon fill="none" stroke="black" points="432,-1222 294,-1222 294,-1186 432,-1186 432,-1222"/>
<text text-anchor="middle" x="363" y="-1201.1" font-family="Courier,monospace" font-size="11.00">AppMonitoringModel</text>
</g>
<!-- \\Monitoring&#45;&gt;\\AppMonitoringModel -->
<g id="edge37" class="edge"><title>\\Monitoring&#45;&gt;\\AppMonitoringModel</title>
<path fill="none" stroke="black" d="M692.689,-1251.86C631.909,-1243.04 518.789,-1226.61 442.204,-1215.5"/>
<polygon fill="none" stroke="black" points="442.517,-1212.01 432.118,-1214.03 441.511,-1218.93 442.517,-1212.01"/>
</g>
<!-- \\MonitoringLog -->
<g id="node21" class="node"><title>\\MonitoringLog</title>
<polygon fill="none" stroke="black" points="787,-1222 683,-1222 683,-1186 787,-1186 787,-1222"/>
<text text-anchor="middle" x="735" y="-1201.1" font-family="Courier,monospace" font-size="11.00">MonitoringLog</text>
</g>
<!-- \\MonitoringLog&#45;&gt;\\AppMonitoringModel -->
<g id="edge39" class="edge"><title>\\MonitoringLog&#45;&gt;\\AppMonitoringModel</title>
<path fill="none" stroke="black" d="M682.883,-1204C620.338,-1204 514.827,-1204 442.189,-1204"/>
<polygon fill="none" stroke="black" points="442.166,-1200.5 432.166,-1204 442.166,-1207.5 442.166,-1200.5"/>
</g>
<!-- \\MonitoringReport -->
<g id="node22" class="node"><title>\\MonitoringReport</title>
<polygon fill="none" stroke="black" points="797,-1168 673,-1168 673,-1132 797,-1132 797,-1168"/>
<text text-anchor="middle" x="735" y="-1147.1" font-family="Courier,monospace" font-size="11.00">MonitoringReport</text>
</g>
<!-- \\MonitoringReport&#45;&gt;\\AppMonitoringModel -->
<g id="edge41" class="edge"><title>\\MonitoringReport&#45;&gt;\\AppMonitoringModel</title>
<path fill="none" stroke="black" d="M672.254,-1160.19C631.704,-1166.68 577.776,-1175.13 530,-1182 501.385,-1186.12 469.966,-1190.34 442.176,-1193.96"/>
<polygon fill="none" stroke="black" points="441.579,-1190.51 432.114,-1195.27 442.482,-1197.45 441.579,-1190.51"/>
</g>
<!-- \\AppModel -->
<g id="node53" class="node"><title>\\AppModel</title>
<ellipse fill="none" stroke="black" cx="62" cy="-1204" rx="62.2254" ry="18.3848"/>
<text text-anchor="middle" x="62" y="-1200.4" font-family="Times Roman,serif" font-size="14.00" fill="gray">\AppModel</text>
</g>
<!-- \\AppMonitoringModel&#45;&gt;\\AppModel -->
<g id="edge43" class="edge"><title>\\AppMonitoringModel&#45;&gt;\\AppModel</title>
<path fill="none" stroke="black" d="M293.945,-1204C246.143,-1204 182.655,-1204 134.187,-1204"/>
<polygon fill="none" stroke="black" points="134.084,-1200.5 124.084,-1204 134.084,-1207.5 134.084,-1200.5"/>
</g>
<!-- \\MonitoringSchema -->
<g id="node24" class="node"><title>\\MonitoringSchema</title>
<polygon fill="none" stroke="black" points="797,-466 673,-466 673,-430 797,-430 797,-466"/>
<text text-anchor="middle" x="735" y="-445.1" font-family="Courier,monospace" font-size="11.00">MonitoringSchema</text>
</g>
<!-- \\CakeSchema -->
<g id="node55" class="node"><title>\\CakeSchema</title>
<ellipse fill="none" stroke="black" cx="363" cy="-18" rx="77.0746" ry="18.3848"/>
<text text-anchor="middle" x="363" y="-14.4" font-family="Times Roman,serif" font-size="14.00" fill="gray">\CakeSchema</text>
</g>
<!-- \\MonitoringSchema&#45;&gt;\\CakeSchema -->
<g id="edge45" class="edge"><title>\\MonitoringSchema&#45;&gt;\\CakeSchema</title>
<path fill="none" stroke="black" d="M731.758,-429.78C719.226,-365.151 667.613,-145.39 530,-45 507.072,-28.2738 477.658,-20.3279 449.922,-16.9168"/>
<polygon fill="none" stroke="black" points="450.105,-13.4169 439.795,-15.8574 449.376,-20.3789 450.105,-13.4169"/>
</g>
</g>
</svg>
