<?xml version="1.0" encoding="UTF-8" standalone="no"?>
<!DOCTYPE svg PUBLIC "-//W3C//DTD SVG 1.1//EN"
 "http://www.w3.org/Graphics/SVG/1.1/DTD/svg11.dtd">
<!-- Generated by graphviz version 2.26.3 (20100126.1600)
 -->
<!-- Title: G Pages: 1 -->
<svg width="892pt" height="1484pt"
 viewBox="0.00 0.00 892.00 1484.00" xmlns="http://www.w3.org/2000/svg" xmlns:xlink="http://www.w3.org/1999/xlink">
<g id="graph1" class="graph" transform="scale(1 1) rotate(0) translate(4 1480)">
<title>G</title>
<polygon fill="white" stroke="white" points="-4,5 -4,-1480 889,-1480 889,5 -4,5"/>
<g id="graph2" class="cluster"><title>cluster_Global</title>
<polyline fill="none" stroke="gray" points="298,-368 864,-368 "/>
<path fill="none" stroke="gray" d="M864,-368C870,-368 876,-374 876,-380"/>
<polyline fill="none" stroke="gray" points="876,-380 876,-1456 "/>
<path fill="none" stroke="gray" d="M876,-1456C876,-1462 870,-1468 864,-1468"/>
<polyline fill="none" stroke="gray" points="864,-1468 298,-1468 "/>
<path fill="none" stroke="gray" d="M298,-1468C292,-1468 286,-1462 286,-1456"/>
<polyline fill="none" stroke="gray" points="286,-1456 286,-380 "/>
<path fill="none" stroke="gray" d="M286,-380C286,-374 292,-368 298,-368"/>
<text text-anchor="middle" x="581" y="-1454.1" font-family="Times Roman,serif" font-size="11.00" fill="gray">Global</text>
</g>
<!-- \\MonitoringSelfFailCheck -->
<g id="node2" class="node"><title>\\MonitoringSelfFailCheck</title>
<polygon fill="none" stroke="black" points="821,-1438 649,-1438 649,-1402 821,-1402 821,-1438"/>
<text text-anchor="middle" x="735" y="-1417.1" font-family="Courier,monospace" font-size="11.00">MonitoringSelfFailCheck</text>
</g>
<!-- \\MonitoringChecker -->
<g id="node3" class="node"><title>\\MonitoringChecker</title>
<polygon fill="none" stroke="black" points="429,-1330 297,-1330 297,-1294 429,-1294 429,-1330"/>
<text text-anchor="start" x="329" y="-1317.43" font-family="Courier,monospace" font-size="11.00">«abstract»</text>
<text text-anchor="start" x="305.5" y="-1304.23" font-family="Courier,monospace" font-size="11.00">MonitoringChecker</text>
</g>
<!-- \\MonitoringSelfFailCheck&#45;&gt;\\MonitoringChecker -->
<g id="edge3" class="edge"><title>\\MonitoringSelfFailCheck&#45;&gt;\\MonitoringChecker</title>
<path fill="none" stroke="black" d="M648.773,-1404.15C633.126,-1400.81 617.014,-1397.05 602,-1393 538.882,-1375.97 468.143,-1351.27 420.112,-1333.63"/>
<polygon fill="none" stroke="black" points="421.112,-1330.27 410.518,-1330.09 418.688,-1336.84 421.112,-1330.27"/>
</g>
<!-- \\MonitoringSelfCheck -->
<g id="node4" class="node"><title>\\MonitoringSelfCheck</title>
<polygon fill="none" stroke="black" points="807,-1384 663,-1384 663,-1348 807,-1348 807,-1384"/>
<text text-anchor="middle" x="735" y="-1363.1" font-family="Courier,monospace" font-size="11.00">MonitoringSelfCheck</text>
</g>
<!-- \\MonitoringSelfCheck&#45;&gt;\\MonitoringChecker -->
<g id="edge5" class="edge"><title>\\MonitoringSelfCheck&#45;&gt;\\MonitoringChecker</title>
<path fill="none" stroke="black" d="M662.392,-1355.46C598.166,-1346.14 504.772,-1332.58 439.423,-1323.09"/>
<polygon fill="none" stroke="black" points="439.584,-1319.58 429.185,-1321.61 438.578,-1326.51 439.584,-1319.58"/>
</g>
<!-- \\MonitoringController -->
<g id="node5" class="node"><title>\\MonitoringController</title>
<polygon fill="none" stroke="black" points="811,-1006 659,-1006 659,-970 811,-970 811,-1006"/>
<text text-anchor="middle" x="735" y="-985.1" font-family="Courier,monospace" font-size="11.00">MonitoringController</text>
</g>
<!-- \\AppController -->
<g id="node27" class="node"><title>\\AppController</title>
<ellipse fill="none" stroke="black" cx="363" cy="-342" rx="82.0244" ry="18.3848"/>
<text text-anchor="middle" x="363" y="-338.4" font-family="Times Roman,serif" font-size="14.00" fill="gray">\AppController</text>
</g>
<!-- \\MonitoringController&#45;&gt;\\AppController -->
<g id="edge7" class="edge"><title>\\MonitoringController&#45;&gt;\\AppController</title>
<path fill="none" stroke="black" d="M658.937,-988.508C637.78,-984.811 616.62,-976.844 602,-961 420.756,-764.592 717.94,-554.011 530,-364 507.921,-341.678 474.988,-334.209 444.189,-333.062"/>
<polygon fill="none" stroke="black" points="443.898,-329.557 433.845,-332.903 443.79,-336.556 443.898,-329.557"/>
</g>
<!-- \\MonitoringRunTask -->
<g id="node6" class="node"><title>\\MonitoringRunTask</title>
<polygon fill="none" stroke="black" points="800,-952 670,-952 670,-916 800,-916 800,-952"/>
<text text-anchor="middle" x="735" y="-931.1" font-family="Courier,monospace" font-size="11.00">MonitoringRunTask</text>
</g>
<!-- \\AdvancedTask -->
<g id="node29" class="node"><title>\\AdvancedTask</title>
<ellipse fill="none" stroke="black" cx="363" cy="-288" rx="82.939" ry="18.3848"/>
<text text-anchor="middle" x="363" y="-284.4" font-family="Times Roman,serif" font-size="14.00" fill="gray">\AdvancedTask</text>
</g>
<!-- \\MonitoringRunTask&#45;&gt;\\AdvancedTask -->
<g id="edge9" class="edge"><title>\\MonitoringRunTask&#45;&gt;\\AdvancedTask</title>
<path fill="none" stroke="black" d="M669.323,-935.989C644.904,-933.201 619.026,-925.432 602,-907 422.154,-712.303 713.703,-506.061 530,-315 509.788,-293.979 480.132,-285.202 451.399,-282.335"/>
<polygon fill="none" stroke="black" points="451.53,-278.834 441.291,-281.556 450.992,-285.814 451.53,-278.834"/>
</g>
<!-- \\MonitoringUpdateTask -->
<g id="node7" class="node"><title>\\MonitoringUpdateTask</title>
<polygon fill="none" stroke="black" points="811,-898 659,-898 659,-862 811,-862 811,-898"/>
<text text-anchor="middle" x="735" y="-877.1" font-family="Courier,monospace" font-size="11.00">MonitoringUpdateTask</text>
</g>
<!-- \\MonitoringUpdateTask&#45;&gt;\\AdvancedTask -->
<g id="edge11" class="edge"><title>\\MonitoringUpdateTask&#45;&gt;\\AdvancedTask</title>
<path fill="none" stroke="black" d="M658.718,-880.328C637.681,-876.601 616.643,-868.662 602,-853 437.247,-676.777 698.244,-487.893 530,-315 509.754,-294.195 480.245,-285.43 451.645,-282.511"/>
<polygon fill="none" stroke="black" points="451.829,-279.014 441.584,-281.712 451.275,-285.992 451.829,-279.014"/>
</g>
<!-- \\MonitoringShell -->
<g id="node8" class="node"><title>\\MonitoringShell</title>
<polygon fill="none" stroke="black" points="794,-844 676,-844 676,-808 794,-808 794,-844"/>
<text text-anchor="middle" x="735" y="-823.1" font-family="Courier,monospace" font-size="11.00">MonitoringShell</text>
</g>
<!-- \\AdvancedShell -->
<g id="node32" class="node"><title>\\AdvancedShell</title>
<ellipse fill="none" stroke="black" cx="363" cy="-234" rx="85.7684" ry="18.3848"/>
<text text-anchor="middle" x="363" y="-230.4" font-family="Times Roman,serif" font-size="14.00" fill="gray">\AdvancedShell</text>
</g>
<!-- \\MonitoringShell&#45;&gt;\\AdvancedShell -->
<g id="edge13" class="edge"><title>\\MonitoringShell&#45;&gt;\\AdvancedShell</title>
<path fill="none" stroke="black" d="M675.923,-828.52C649.723,-826.38 620.665,-818.965 602,-799 437.247,-622.777 698.244,-433.893 530,-261 510.481,-240.942 482.352,-232.075 454.729,-228.848"/>
<polygon fill="none" stroke="black" points="454.873,-225.346 444.591,-227.904 454.224,-232.316 454.873,-225.346"/>
</g>
<!-- \\MonitoringLogFixture -->
<g id="node9" class="node"><title>\\MonitoringLogFixture</title>
<polygon fill="none" stroke="black" points="811,-790 659,-790 659,-754 811,-754 811,-790"/>
<text text-anchor="middle" x="735" y="-769.1" font-family="Courier,monospace" font-size="11.00">MonitoringLogFixture</text>
</g>
<!-- \\CakeTestFixture -->
<g id="node34" class="node"><title>\\CakeTestFixture</title>
<ellipse fill="none" stroke="black" cx="363" cy="-180" rx="92.1303" ry="18.3848"/>
<text text-anchor="middle" x="363" y="-176.4" font-family="Times Roman,serif" font-size="14.00" fill="gray">\CakeTestFixture</text>
</g>
<!-- \\MonitoringLogFixture&#45;&gt;\\CakeTestFixture -->
<g id="edge15" class="edge"><title>\\MonitoringLogFixture&#45;&gt;\\CakeTestFixture</title>
<path fill="none" stroke="black" d="M658.718,-772.328C637.681,-768.601 616.643,-760.662 602,-745 437.247,-568.777 698.244,-379.893 530,-207 512.008,-188.511 486.702,-179.531 461.218,-175.712"/>
<polygon fill="none" stroke="black" points="461.432,-172.212 451.077,-174.453 460.57,-179.158 461.432,-172.212"/>
</g>
<!-- \\MonitoringFixture -->
<g id="node10" class="node"><title>\\MonitoringFixture</title>
<polygon fill="none" stroke="black" points="800,-736 670,-736 670,-700 800,-700 800,-736"/>
<text text-anchor="middle" x="735" y="-715.1" font-family="Courier,monospace" font-size="11.00">MonitoringFixture</text>
</g>
<!-- \\MonitoringFixture&#45;&gt;\\CakeTestFixture -->
<g id="edge17" class="edge"><title>\\MonitoringFixture&#45;&gt;\\CakeTestFixture</title>
<path fill="none" stroke="black" d="M669.229,-719.715C644.946,-716.862 619.189,-709.118 602,-691 452.317,-533.228 682.808,-361.747 530,-207 512.056,-188.828 487.033,-179.886 461.812,-176"/>
<polygon fill="none" stroke="black" points="462.138,-172.513 451.774,-174.71 461.246,-179.456 462.138,-172.513"/>
</g>
<!-- \\MonitoringControllerTest -->
<g id="node11" class="node"><title>\\MonitoringControllerTest</title>
<polygon fill="none" stroke="black" points="824,-682 646,-682 646,-646 824,-646 824,-682"/>
<text text-anchor="middle" x="735" y="-661.1" font-family="Courier,monospace" font-size="11.00">MonitoringControllerTest</text>
</g>
<!-- \\ControllerTestCase -->
<g id="node37" class="node"><title>\\ControllerTestCase</title>
<ellipse fill="none" stroke="black" cx="363" cy="-126" rx="106.773" ry="18.3848"/>
<text text-anchor="middle" x="363" y="-122.4" font-family="Times Roman,serif" font-size="14.00" fill="gray">\ControllerTestCase</text>
</g>
<!-- \\MonitoringControllerTest&#45;&gt;\\ControllerTestCase -->
<g id="edge19" class="edge"><title>\\MonitoringControllerTest&#45;&gt;\\ControllerTestCase</title>
<path fill="none" stroke="black" d="M645.397,-661.186C629.088,-656.722 613.595,-649.221 602,-637 452.317,-479.228 682.808,-307.747 530,-153 516.054,-138.877 497.832,-130.329 478.565,-125.396"/>
<polygon fill="none" stroke="black" points="479.248,-121.963 468.725,-123.197 477.721,-128.794 479.248,-121.963"/>
</g>
<!-- \\AllMonitoringTest -->
<g id="node12" class="node"><title>\\AllMonitoringTest</title>
<polygon fill="none" stroke="black" points="800,-628 670,-628 670,-592 800,-592 800,-628"/>
<text text-anchor="middle" x="735" y="-607.1" font-family="Courier,monospace" font-size="11.00">AllMonitoringTest</text>
</g>
<!-- \\PHPUnit_Framework_TestSuite -->
<g id="node39" class="node"><title>\\PHPUnit_Framework_TestSuite</title>
<ellipse fill="none" stroke="black" cx="363" cy="-72" rx="166.877" ry="18.3848"/>
<text text-anchor="middle" x="363" y="-68.4" font-family="Times Roman,serif" font-size="14.00" fill="gray">\PHPUnit_Framework_TestSuite</text>
</g>
<!-- \\AllMonitoringTest&#45;&gt;\\PHPUnit_Framework_TestSuite -->
<g id="edge21" class="edge"><title>\\AllMonitoringTest&#45;&gt;\\PHPUnit_Framework_TestSuite</title>
<path fill="none" stroke="black" d="M669.229,-611.715C644.946,-608.862 619.189,-601.118 602,-583 452.317,-425.228 682.808,-253.747 530,-99 525.328,-94.2686 520.176,-90.1629 514.666,-86.6092"/>
<polygon fill="none" stroke="black" points="516.142,-83.421 505.729,-81.4687 512.652,-89.4887 516.142,-83.421"/>
</g>
<!-- \\MonitoringRunTaskTest -->
<g id="node13" class="node"><title>\\MonitoringRunTaskTest</title>
<polygon fill="none" stroke="black" points="814,-574 656,-574 656,-538 814,-538 814,-574"/>
<text text-anchor="middle" x="735" y="-553.1" font-family="Courier,monospace" font-size="11.00">MonitoringRunTaskTest</text>
</g>
<!-- \\CakeTestCase -->
<g id="node41" class="node"><title>\\CakeTestCase</title>
<ellipse fill="none" stroke="black" cx="363" cy="-18" rx="82.0244" ry="18.3848"/>
<text text-anchor="middle" x="363" y="-14.4" font-family="Times Roman,serif" font-size="14.00" fill="gray">\CakeTestCase</text>
</g>
<!-- \\MonitoringRunTaskTest&#45;&gt;\\CakeTestCase -->
<g id="edge23" class="edge"><title>\\MonitoringRunTaskTest&#45;&gt;\\CakeTestCase</title>
<path fill="none" stroke="black" d="M655.74,-555.61C635.76,-551.661 616.027,-543.785 602,-529 452.317,-371.228 682.808,-199.747 530,-45 509.325,-24.0629 479.255,-15.3782 450.31,-12.5626"/>
<polygon fill="none" stroke="black" points="450.369,-9.0573 440.136,-11.8009 449.847,-16.0378 450.369,-9.0573"/>
</g>
<!-- \\MonitoringRunTaskTestCheckerTimeouted -->
<g id="node14" class="node"><title>\\MonitoringRunTaskTestCheckerTimeouted</title>
<polygon fill="none" stroke="black" points="868,-1330 602,-1330 602,-1294 868,-1294 868,-1330"/>
<text text-anchor="middle" x="735" y="-1309.1" font-family="Courier,monospace" font-size="11.00">MonitoringRunTaskTestCheckerTimeouted</text>
</g>
<!-- \\MonitoringRunTaskTestCheckerTimeouted&#45;&gt;\\MonitoringChecker -->
<g id="edge25" class="edge"><title>\\MonitoringRunTaskTestCheckerTimeouted&#45;&gt;\\MonitoringChecker</title>
<path fill="none" stroke="black" d="M601.75,-1312C547.172,-1312 485.988,-1312 439.223,-1312"/>
<polygon fill="none" stroke="black" points="439.17,-1308.5 429.17,-1312 439.169,-1315.5 439.17,-1308.5"/>
</g>
<!-- \\MonitoringRunTaskTestCheckerTrue -->
<g id="node15" class="node"><title>\\MonitoringRunTaskTestCheckerTrue</title>
<polygon fill="none" stroke="black" points="851,-1276 619,-1276 619,-1240 851,-1240 851,-1276"/>
<text text-anchor="middle" x="735" y="-1255.1" font-family="Courier,monospace" font-size="11.00">MonitoringRunTaskTestCheckerTrue</text>
</g>
<!-- \\MonitoringRunTaskTestCheckerTrue&#45;&gt;\\MonitoringChecker -->
<g id="edge27" class="edge"><title>\\MonitoringRunTaskTestCheckerTrue&#45;&gt;\\MonitoringChecker</title>
<path fill="none" stroke="black" d="M618.318,-1274.94C559.888,-1283.42 490.808,-1293.45 439.247,-1300.93"/>
<polygon fill="none" stroke="black" points="438.57,-1297.49 429.177,-1302.39 439.576,-1304.42 438.57,-1297.49"/>
</g>
<!-- \\MonitoringRunTaskTestCheckerFalse -->
<g id="node16" class="node"><title>\\MonitoringRunTaskTestCheckerFalse</title>
<polygon fill="none" stroke="black" points="854,-1222 616,-1222 616,-1186 854,-1186 854,-1222"/>
<text text-anchor="middle" x="735" y="-1201.1" font-family="Courier,monospace" font-size="11.00">MonitoringRunTaskTestCheckerFalse</text>
</g>
<!-- \\MonitoringRunTaskTestCheckerFalse&#45;&gt;\\MonitoringChecker -->
<g id="edge29" class="edge"><title>\\MonitoringRunTaskTestCheckerFalse&#45;&gt;\\MonitoringChecker</title>
<path fill="none" stroke="black" d="M638.768,-1222.03C626.34,-1224.8 613.829,-1227.81 602,-1231 538.882,-1248.03 468.143,-1272.73 420.112,-1290.37"/>
<polygon fill="none" stroke="black" points="418.688,-1287.16 410.518,-1293.91 421.112,-1293.73 418.688,-1287.16"/>
</g>
<!-- \\MonitoringUpdateTaskTest -->
<g id="node17" class="node"><title>\\MonitoringUpdateTaskTest</title>
<polygon fill="none" stroke="black" points="824,-520 646,-520 646,-484 824,-484 824,-520"/>
<text text-anchor="middle" x="735" y="-499.1" font-family="Courier,monospace" font-size="11.00">MonitoringUpdateTaskTest</text>
</g>
<!-- \\MonitoringUpdateTaskTest&#45;&gt;\\CakeTestCase -->
<g id="edge31" class="edge"><title>\\MonitoringUpdateTaskTest&#45;&gt;\\CakeTestCase</title>
<path fill="none" stroke="black" d="M645.227,-498.927C629.03,-494.465 613.624,-487.03 602,-475 467.358,-335.648 667.401,-181.632 530,-45 509.228,-24.3448 479.293,-15.686 450.486,-12.8112"/>
<polygon fill="none" stroke="black" points="450.602,-9.30978 440.361,-12.0254 450.061,-16.2888 450.602,-9.30978"/>
</g>
<!-- \\MonitoringReportTest -->
<g id="node18" class="node"><title>\\MonitoringReportTest</title>
<polygon fill="none" stroke="black" points="811,-466 659,-466 659,-430 811,-430 811,-466"/>
<text text-anchor="middle" x="735" y="-445.1" font-family="Courier,monospace" font-size="11.00">MonitoringReportTest</text>
</g>
<!-- \\MonitoringReportTest&#45;&gt;\\CakeTestCase -->
<g id="edge33" class="edge"><title>\\MonitoringReportTest&#45;&gt;\\CakeTestCase</title>
<path fill="none" stroke="black" d="M658.912,-447.746C638.008,-443.977 616.994,-436.161 602,-421 482.356,-300.023 652.039,-163.561 530,-45 509.178,-24.7712 479.538,-16.1384 450.994,-13.1626"/>
<polygon fill="none" stroke="black" points="451.213,-9.66891 440.959,-12.3363 450.638,-16.6453 451.213,-9.66891"/>
</g>
<!-- \\MonitoringTest -->
<g id="node19" class="node"><title>\\MonitoringTest</title>
<polygon fill="none" stroke="black" points="790,-412 680,-412 680,-376 790,-376 790,-412"/>
<text text-anchor="middle" x="735" y="-391.1" font-family="Courier,monospace" font-size="11.00">MonitoringTest</text>
</g>
<!-- \\MonitoringTest&#45;&gt;\\CakeTestCase -->
<g id="edge35" class="edge"><title>\\MonitoringTest&#45;&gt;\\CakeTestCase</title>
<path fill="none" stroke="black" d="M730.279,-375.757C713.977,-316.739 654.112,-129.909 530,-45 508.28,-30.1406 481.305,-22.3755 455.414,-18.5589"/>
<polygon fill="none" stroke="black" points="455.541,-15.0464 445.176,-17.2404 454.647,-21.9891 455.541,-15.0464"/>
</g>
<!-- \\MonitoringReport -->
<g id="node20" class="node"><title>\\MonitoringReport</title>
<polygon fill="none" stroke="black" points="797,-1168 673,-1168 673,-1132 797,-1132 797,-1168"/>
<text text-anchor="middle" x="735" y="-1147.1" font-family="Courier,monospace" font-size="11.00">MonitoringReport</text>
</g>
<!-- \\AppMonitoringModel -->
<g id="node22" class="node"><title>\\AppMonitoringModel</title>
<polygon fill="none" stroke="black" points="432,-1114 294,-1114 294,-1078 432,-1078 432,-1114"/>
<text text-anchor="middle" x="363" y="-1093.1" font-family="Courier,monospace" font-size="11.00">AppMonitoringModel</text>
</g>
<!-- \\MonitoringReport&#45;&gt;\\AppMonitoringModel -->
<g id="edge37" class="edge"><title>\\MonitoringReport&#45;&gt;\\AppMonitoringModel</title>
<path fill="none" stroke="black" d="M672.316,-1140.9C608.964,-1131.7 510.874,-1117.47 442.185,-1107.49"/>
<polygon fill="none" stroke="black" points="442.67,-1104.03 432.271,-1106.06 441.665,-1110.96 442.67,-1104.03"/>
</g>
<!-- \\MonitoringLog -->
<g id="node21" class="node"><title>\\MonitoringLog</title>
<polygon fill="none" stroke="black" points="787,-1114 683,-1114 683,-1078 787,-1078 787,-1114"/>
<text text-anchor="middle" x="735" y="-1093.1" font-family="Courier,monospace" font-size="11.00">MonitoringLog</text>
</g>
<!-- \\MonitoringLog&#45;&gt;\\AppMonitoringModel -->
<g id="edge39" class="edge"><title>\\MonitoringLog&#45;&gt;\\AppMonitoringModel</title>
<path fill="none" stroke="black" d="M682.883,-1096C620.338,-1096 514.827,-1096 442.189,-1096"/>
<polygon fill="none" stroke="black" points="442.166,-1092.5 432.166,-1096 442.166,-1099.5 442.166,-1092.5"/>
</g>
<!-- \\AppModel -->
<g id="node51" class="node"><title>\\AppModel</title>
<ellipse fill="none" stroke="black" cx="62" cy="-1096" rx="62.2254" ry="18.3848"/>
<text text-anchor="middle" x="62" y="-1092.4" font-family="Times Roman,serif" font-size="14.00" fill="gray">\AppModel</text>
</g>
<!-- \\AppMonitoringModel&#45;&gt;\\AppModel -->
<g id="edge41" class="edge"><title>\\AppMonitoringModel&#45;&gt;\\AppModel</title>
<path fill="none" stroke="black" d="M293.945,-1096C246.143,-1096 182.655,-1096 134.187,-1096"/>
<polygon fill="none" stroke="black" points="134.084,-1092.5 124.084,-1096 134.084,-1099.5 134.084,-1092.5"/>
</g>
<!-- \\Monitoring -->
<g id="node23" class="node"><title>\\Monitoring</title>
<polygon fill="none" stroke="black" points="777,-1060 693,-1060 693,-1024 777,-1024 777,-1060"/>
<text text-anchor="middle" x="735" y="-1039.1" font-family="Courier,monospace" font-size="11.00">Monitoring</text>
</g>
<!-- \\Monitoring&#45;&gt;\\AppMonitoringModel -->
<g id="edge43" class="edge"><title>\\Monitoring&#45;&gt;\\AppMonitoringModel</title>
<path fill="none" stroke="black" d="M692.642,-1048.91C651.219,-1055.6 586.333,-1065.89 530,-1074 501.385,-1078.12 469.966,-1082.34 442.176,-1085.96"/>
<polygon fill="none" stroke="black" points="441.579,-1082.51 432.114,-1087.27 442.482,-1089.45 441.579,-1082.51"/>
</g>
</g>
</svg>
