<?xml version="1.0" encoding="UTF-8" standalone="no"?>
<!DOCTYPE svg PUBLIC "-//W3C//DTD SVG 1.1//EN"
 "http://www.w3.org/Graphics/SVG/1.1/DTD/svg11.dtd">
<!-- Generated by graphviz version 2.26.3 (20100126.1600)
 -->
<!-- Title: G Pages: 1 -->
<svg width="892pt" height="1484pt"
 viewBox="0.00 0.00 892.00 1484.00" xmlns="http://www.w3.org/2000/svg" xmlns:xlink="http://www.w3.org/1999/xlink">
<g id="graph1" class="graph" transform="scale(1 1) rotate(0) translate(4 1480)">
<title>G</title>
<polygon fill="white" stroke="white" points="-4,5 -4,-1480 889,-1480 889,5 -4,5"/>
<g id="graph2" class="cluster"><title>cluster_Global</title>
<polyline fill="none" stroke="gray" points="298,-368 864,-368 "/>
<path fill="none" stroke="gray" d="M864,-368C870,-368 876,-374 876,-380"/>
<polyline fill="none" stroke="gray" points="876,-380 876,-1456 "/>
<path fill="none" stroke="gray" d="M876,-1456C876,-1462 870,-1468 864,-1468"/>
<polyline fill="none" stroke="gray" points="864,-1468 298,-1468 "/>
<path fill="none" stroke="gray" d="M298,-1468C292,-1468 286,-1462 286,-1456"/>
<polyline fill="none" stroke="gray" points="286,-1456 286,-380 "/>
<path fill="none" stroke="gray" d="M286,-380C286,-374 292,-368 298,-368"/>
<text text-anchor="middle" x="581" y="-1454.1" font-family="Times Roman,serif" font-size="11.00" fill="gray">Global</text>
</g>
<!-- \\MonitoringChecker -->
<g id="node2" class="node"><title>\\MonitoringChecker</title>
<polygon fill="none" stroke="black" points="429,-1168 297,-1168 297,-1132 429,-1132 429,-1168"/>
<text text-anchor="start" x="329" y="-1155.43" font-family="Courier,monospace" font-size="11.00">«abstract»</text>
<text text-anchor="start" x="305.5" y="-1142.23" font-family="Courier,monospace" font-size="11.00">MonitoringChecker</text>
</g>
<!-- \\MonitoringSelfCheck -->
<g id="node3" class="node"><title>\\MonitoringSelfCheck</title>
<polygon fill="none" stroke="black" points="807,-1276 663,-1276 663,-1240 807,-1240 807,-1276"/>
<text text-anchor="middle" x="735" y="-1255.1" font-family="Courier,monospace" font-size="11.00">MonitoringSelfCheck</text>
</g>
<!-- \\MonitoringSelfCheck&#45;&gt;\\MonitoringChecker -->
<g id="edge3" class="edge"><title>\\MonitoringSelfCheck&#45;&gt;\\MonitoringChecker</title>
<path fill="none" stroke="black" d="M662.479,-1245.01C642.743,-1241 621.449,-1236.25 602,-1231 538.882,-1213.97 468.143,-1189.27 420.112,-1171.63"/>
<polygon fill="none" stroke="black" points="421.112,-1168.27 410.518,-1168.09 418.688,-1174.84 421.112,-1168.27"/>
</g>
<!-- \\MonitoringSelfFailCheck -->
<g id="node4" class="node"><title>\\MonitoringSelfFailCheck</title>
<polygon fill="none" stroke="black" points="821,-1222 649,-1222 649,-1186 821,-1186 821,-1222"/>
<text text-anchor="middle" x="735" y="-1201.1" font-family="Courier,monospace" font-size="11.00">MonitoringSelfFailCheck</text>
</g>
<!-- \\MonitoringSelfFailCheck&#45;&gt;\\MonitoringChecker -->
<g id="edge5" class="edge"><title>\\MonitoringSelfFailCheck&#45;&gt;\\MonitoringChecker</title>
<path fill="none" stroke="black" d="M648.721,-1191.48C585.286,-1182.27 499.882,-1169.87 439.008,-1161.03"/>
<polygon fill="none" stroke="black" points="439.477,-1157.56 429.077,-1159.59 438.471,-1164.49 439.477,-1157.56"/>
</g>
<!-- \\MonitoringUpdateTask -->
<g id="node5" class="node"><title>\\MonitoringUpdateTask</title>
<polygon fill="none" stroke="black" points="811,-1006 659,-1006 659,-970 811,-970 811,-1006"/>
<text text-anchor="middle" x="735" y="-985.1" font-family="Courier,monospace" font-size="11.00">MonitoringUpdateTask</text>
</g>
<!-- \\AdvancedTask -->
<g id="node27" class="node"><title>\\AdvancedTask</title>
<ellipse fill="none" stroke="black" cx="363" cy="-342" rx="82.939" ry="18.3848"/>
<text text-anchor="middle" x="363" y="-338.4" font-family="Times Roman,serif" font-size="14.00" fill="gray">\AdvancedTask</text>
</g>
<!-- \\MonitoringUpdateTask&#45;&gt;\\AdvancedTask -->
<g id="edge7" class="edge"><title>\\MonitoringUpdateTask&#45;&gt;\\AdvancedTask</title>
<path fill="none" stroke="black" d="M658.937,-988.508C637.78,-984.811 616.62,-976.844 602,-961 420.756,-764.592 717.94,-554.011 530,-364 508.198,-341.958 475.813,-334.399 445.35,-333.108"/>
<polygon fill="none" stroke="black" points="445.18,-329.604 435.111,-332.899 445.037,-336.603 445.18,-329.604"/>
</g>
<!-- \\MonitoringRunTask -->
<g id="node6" class="node"><title>\\MonitoringRunTask</title>
<polygon fill="none" stroke="black" points="800,-952 670,-952 670,-916 800,-916 800,-952"/>
<text text-anchor="middle" x="735" y="-931.1" font-family="Courier,monospace" font-size="11.00">MonitoringRunTask</text>
</g>
<!-- \\MonitoringRunTask&#45;&gt;\\AdvancedTask -->
<g id="edge9" class="edge"><title>\\MonitoringRunTask&#45;&gt;\\AdvancedTask</title>
<path fill="none" stroke="black" d="M669.424,-935.895C645.02,-933.094 619.126,-925.34 602,-907 435.85,-729.068 702.215,-536.069 530,-364 508.161,-342.18 475.936,-334.615 445.604,-333.258"/>
<polygon fill="none" stroke="black" points="445.485,-329.755 435.407,-333.024 445.324,-336.753 445.485,-329.755"/>
</g>
<!-- \\MonitoringShell -->
<g id="node7" class="node"><title>\\MonitoringShell</title>
<polygon fill="none" stroke="black" points="794,-898 676,-898 676,-862 794,-862 794,-898"/>
<text text-anchor="middle" x="735" y="-877.1" font-family="Courier,monospace" font-size="11.00">MonitoringShell</text>
</g>
<!-- \\AdvancedShell -->
<g id="node30" class="node"><title>\\AdvancedShell</title>
<ellipse fill="none" stroke="black" cx="363" cy="-288" rx="85.7684" ry="18.3848"/>
<text text-anchor="middle" x="363" y="-284.4" font-family="Times Roman,serif" font-size="14.00" fill="gray">\AdvancedShell</text>
</g>
<!-- \\MonitoringShell&#45;&gt;\\AdvancedShell -->
<g id="edge11" class="edge"><title>\\MonitoringShell&#45;&gt;\\AdvancedShell</title>
<path fill="none" stroke="black" d="M675.923,-882.52C649.723,-880.38 620.665,-872.965 602,-853 437.247,-676.777 698.244,-487.893 530,-315 510.481,-294.942 482.352,-286.075 454.729,-282.848"/>
<polygon fill="none" stroke="black" points="454.873,-279.346 444.591,-281.904 454.224,-286.316 454.873,-279.346"/>
</g>
<!-- \\MonitoringController -->
<g id="node8" class="node"><title>\\MonitoringController</title>
<polygon fill="none" stroke="black" points="811,-844 659,-844 659,-808 811,-808 811,-844"/>
<text text-anchor="middle" x="735" y="-823.1" font-family="Courier,monospace" font-size="11.00">MonitoringController</text>
</g>
<!-- \\AppController -->
<g id="node32" class="node"><title>\\AppController</title>
<ellipse fill="none" stroke="black" cx="363" cy="-234" rx="82.0244" ry="18.3848"/>
<text text-anchor="middle" x="363" y="-230.4" font-family="Times Roman,serif" font-size="14.00" fill="gray">\AppController</text>
</g>
<!-- \\MonitoringController&#45;&gt;\\AppController -->
<g id="edge13" class="edge"><title>\\MonitoringController&#45;&gt;\\AppController</title>
<path fill="none" stroke="black" d="M658.718,-826.328C637.681,-822.601 616.643,-814.662 602,-799 437.247,-622.777 698.244,-433.893 530,-261 509.387,-239.818 479.174,-231.117 450.093,-228.358"/>
<polygon fill="none" stroke="black" points="450.098,-224.849 439.872,-227.619 449.593,-231.831 450.098,-224.849"/>
</g>
<!-- \\Monitoring -->
<g id="node9" class="node"><title>\\Monitoring</title>
<polygon fill="none" stroke="black" points="777,-1438 693,-1438 693,-1402 777,-1402 777,-1438"/>
<text text-anchor="middle" x="735" y="-1417.1" font-family="Courier,monospace" font-size="11.00">Monitoring</text>
</g>
<!-- \\AppMonitoringModel -->
<g id="node11" class="node"><title>\\AppMonitoringModel</title>
<polygon fill="none" stroke="black" points="432,-1384 294,-1384 294,-1348 432,-1348 432,-1384"/>
<text text-anchor="middle" x="363" y="-1363.1" font-family="Courier,monospace" font-size="11.00">AppMonitoringModel</text>
</g>
<!-- \\Monitoring&#45;&gt;\\AppMonitoringModel -->
<g id="edge15" class="edge"><title>\\Monitoring&#45;&gt;\\AppMonitoringModel</title>
<path fill="none" stroke="black" d="M692.689,-1413.86C631.909,-1405.04 518.789,-1388.61 442.204,-1377.5"/>
<polygon fill="none" stroke="black" points="442.517,-1374.01 432.118,-1376.03 441.511,-1380.93 442.517,-1374.01"/>
</g>
<!-- \\MonitoringReport -->
<g id="node10" class="node"><title>\\MonitoringReport</title>
<polygon fill="none" stroke="black" points="797,-1384 673,-1384 673,-1348 797,-1348 797,-1384"/>
<text text-anchor="middle" x="735" y="-1363.1" font-family="Courier,monospace" font-size="11.00">MonitoringReport</text>
</g>
<!-- \\MonitoringReport&#45;&gt;\\AppMonitoringModel -->
<g id="edge17" class="edge"><title>\\MonitoringReport&#45;&gt;\\AppMonitoringModel</title>
<path fill="none" stroke="black" d="M672.316,-1366C609.094,-1366 511.276,-1366 442.607,-1366"/>
<polygon fill="none" stroke="black" points="442.271,-1362.5 432.271,-1366 442.271,-1369.5 442.271,-1362.5"/>
</g>
<!-- \\AppModel -->
<g id="node36" class="node"><title>\\AppModel</title>
<ellipse fill="none" stroke="black" cx="62" cy="-1366" rx="62.2254" ry="18.3848"/>
<text text-anchor="middle" x="62" y="-1362.4" font-family="Times Roman,serif" font-size="14.00" fill="gray">\AppModel</text>
</g>
<!-- \\AppMonitoringModel&#45;&gt;\\AppModel -->
<g id="edge19" class="edge"><title>\\AppMonitoringModel&#45;&gt;\\AppModel</title>
<path fill="none" stroke="black" d="M293.945,-1366C246.143,-1366 182.655,-1366 134.187,-1366"/>
<polygon fill="none" stroke="black" points="134.084,-1362.5 124.084,-1366 134.084,-1369.5 134.084,-1362.5"/>
</g>
<!-- \\MonitoringLog -->
<g id="node12" class="node"><title>\\MonitoringLog</title>
<polygon fill="none" stroke="black" points="787,-1330 683,-1330 683,-1294 787,-1294 787,-1330"/>
<text text-anchor="middle" x="735" y="-1309.1" font-family="Courier,monospace" font-size="11.00">MonitoringLog</text>
</g>
<!-- \\MonitoringLog&#45;&gt;\\AppMonitoringModel -->
<g id="edge21" class="edge"><title>\\MonitoringLog&#45;&gt;\\AppMonitoringModel</title>
<path fill="none" stroke="black" d="M682.883,-1319.57C620.338,-1328.64 514.827,-1343.96 442.189,-1354.5"/>
<polygon fill="none" stroke="black" points="441.56,-1351.06 432.166,-1355.96 442.565,-1357.99 441.56,-1351.06"/>
</g>
<!-- \\MonitoringLogFixture -->
<g id="node13" class="node"><title>\\MonitoringLogFixture</title>
<polygon fill="none" stroke="black" points="811,-790 659,-790 659,-754 811,-754 811,-790"/>
<text text-anchor="middle" x="735" y="-769.1" font-family="Courier,monospace" font-size="11.00">MonitoringLogFixture</text>
</g>
<!-- \\CakeTestFixture -->
<g id="node39" class="node"><title>\\CakeTestFixture</title>
<ellipse fill="none" stroke="black" cx="363" cy="-180" rx="92.1303" ry="18.3848"/>
<text text-anchor="middle" x="363" y="-176.4" font-family="Times Roman,serif" font-size="14.00" fill="gray">\CakeTestFixture</text>
</g>
<!-- \\MonitoringLogFixture&#45;&gt;\\CakeTestFixture -->
<g id="edge23" class="edge"><title>\\MonitoringLogFixture&#45;&gt;\\CakeTestFixture</title>
<path fill="none" stroke="black" d="M658.718,-772.328C637.681,-768.601 616.643,-760.662 602,-745 437.247,-568.777 698.244,-379.893 530,-207 512.008,-188.511 486.702,-179.531 461.218,-175.712"/>
<polygon fill="none" stroke="black" points="461.432,-172.212 451.077,-174.453 460.57,-179.158 461.432,-172.212"/>
</g>
<!-- \\MonitoringFixture -->
<g id="node14" class="node"><title>\\MonitoringFixture</title>
<polygon fill="none" stroke="black" points="800,-736 670,-736 670,-700 800,-700 800,-736"/>
<text text-anchor="middle" x="735" y="-715.1" font-family="Courier,monospace" font-size="11.00">MonitoringFixture</text>
</g>
<!-- \\MonitoringFixture&#45;&gt;\\CakeTestFixture -->
<g id="edge25" class="edge"><title>\\MonitoringFixture&#45;&gt;\\CakeTestFixture</title>
<path fill="none" stroke="black" d="M669.229,-719.715C644.946,-716.862 619.189,-709.118 602,-691 452.317,-533.228 682.808,-361.747 530,-207 512.056,-188.828 487.033,-179.886 461.812,-176"/>
<polygon fill="none" stroke="black" points="462.138,-172.513 451.774,-174.71 461.246,-179.456 462.138,-172.513"/>
</g>
<!-- \\AllMonitoringTest -->
<g id="node15" class="node"><title>\\AllMonitoringTest</title>
<polygon fill="none" stroke="black" points="800,-682 670,-682 670,-646 800,-646 800,-682"/>
<text text-anchor="middle" x="735" y="-661.1" font-family="Courier,monospace" font-size="11.00">AllMonitoringTest</text>
</g>
<!-- \\PHPUnit_Framework_TestSuite -->
<g id="node42" class="node"><title>\\PHPUnit_Framework_TestSuite</title>
<ellipse fill="none" stroke="black" cx="363" cy="-126" rx="166.877" ry="18.3848"/>
<text text-anchor="middle" x="363" y="-122.4" font-family="Times Roman,serif" font-size="14.00" fill="gray">\PHPUnit_Framework_TestSuite</text>
</g>
<!-- \\AllMonitoringTest&#45;&gt;\\PHPUnit_Framework_TestSuite -->
<g id="edge27" class="edge"><title>\\AllMonitoringTest&#45;&gt;\\PHPUnit_Framework_TestSuite</title>
<path fill="none" stroke="black" d="M669.229,-665.715C644.946,-662.862 619.189,-655.118 602,-637 452.317,-479.228 682.808,-307.747 530,-153 525.328,-148.269 520.176,-144.163 514.666,-140.609"/>
<polygon fill="none" stroke="black" points="516.142,-137.421 505.729,-135.469 512.652,-143.489 516.142,-137.421"/>
</g>
<!-- \\MonitoringUpdateTaskTest -->
<g id="node16" class="node"><title>\\MonitoringUpdateTaskTest</title>
<polygon fill="none" stroke="black" points="824,-628 646,-628 646,-592 824,-592 824,-628"/>
<text text-anchor="middle" x="735" y="-607.1" font-family="Courier,monospace" font-size="11.00">MonitoringUpdateTaskTest</text>
</g>
<!-- \\CakeTestCase -->
<g id="node44" class="node"><title>\\CakeTestCase</title>
<ellipse fill="none" stroke="black" cx="363" cy="-72" rx="82.0244" ry="18.3848"/>
<text text-anchor="middle" x="363" y="-68.4" font-family="Times Roman,serif" font-size="14.00" fill="gray">\CakeTestCase</text>
</g>
<!-- \\MonitoringUpdateTaskTest&#45;&gt;\\CakeTestCase -->
<g id="edge29" class="edge"><title>\\MonitoringUpdateTaskTest&#45;&gt;\\CakeTestCase</title>
<path fill="none" stroke="black" d="M645.397,-607.186C629.088,-602.722 613.595,-595.221 602,-583 452.317,-425.228 682.808,-253.747 530,-99 509.325,-78.0629 479.255,-69.3782 450.31,-66.5626"/>
<polygon fill="none" stroke="black" points="450.369,-63.0573 440.136,-65.8009 449.847,-70.0378 450.369,-63.0573"/>
</g>
<!-- \\MonitoringRunTaskTest -->
<g id="node17" class="node"><title>\\MonitoringRunTaskTest</title>
<polygon fill="none" stroke="black" points="814,-574 656,-574 656,-538 814,-538 814,-574"/>
<text text-anchor="middle" x="735" y="-553.1" font-family="Courier,monospace" font-size="11.00">MonitoringRunTaskTest</text>
</g>
<!-- \\MonitoringRunTaskTest&#45;&gt;\\CakeTestCase -->
<g id="edge31" class="edge"><title>\\MonitoringRunTaskTest&#45;&gt;\\CakeTestCase</title>
<path fill="none" stroke="black" d="M655.917,-555.441C635.937,-551.491 616.161,-543.657 602,-529 467.358,-389.648 667.401,-235.632 530,-99 509.228,-78.3448 479.293,-69.686 450.486,-66.8112"/>
<polygon fill="none" stroke="black" points="450.602,-63.3098 440.361,-66.0254 450.061,-70.2888 450.602,-63.3098"/>
</g>
<!-- \\MonitoringRunTaskTestCheckerTimeouted -->
<g id="node18" class="node"><title>\\MonitoringRunTaskTestCheckerTimeouted</title>
<polygon fill="none" stroke="black" points="868,-1168 602,-1168 602,-1132 868,-1132 868,-1168"/>
<text text-anchor="middle" x="735" y="-1147.1" font-family="Courier,monospace" font-size="11.00">MonitoringRunTaskTestCheckerTimeouted</text>
</g>
<!-- \\MonitoringRunTaskTestCheckerTimeouted&#45;&gt;\\MonitoringChecker -->
<g id="edge33" class="edge"><title>\\MonitoringRunTaskTestCheckerTimeouted&#45;&gt;\\MonitoringChecker</title>
<path fill="none" stroke="black" d="M601.75,-1150C547.172,-1150 485.988,-1150 439.223,-1150"/>
<polygon fill="none" stroke="black" points="439.17,-1146.5 429.17,-1150 439.169,-1153.5 439.17,-1146.5"/>
</g>
<!-- \\MonitoringRunTaskTestCheckerTrue -->
<g id="node19" class="node"><title>\\MonitoringRunTaskTestCheckerTrue</title>
<polygon fill="none" stroke="black" points="851,-1114 619,-1114 619,-1078 851,-1078 851,-1114"/>
<text text-anchor="middle" x="735" y="-1093.1" font-family="Courier,monospace" font-size="11.00">MonitoringRunTaskTestCheckerTrue</text>
</g>
<!-- \\MonitoringRunTaskTestCheckerTrue&#45;&gt;\\MonitoringChecker -->
<g id="edge35" class="edge"><title>\\MonitoringRunTaskTestCheckerTrue&#45;&gt;\\MonitoringChecker</title>
<path fill="none" stroke="black" d="M622.824,-1114.01C592.701,-1118.7 560.128,-1123.66 530,-1128 500.482,-1132.25 467.982,-1136.6 439.559,-1140.3"/>
<polygon fill="none" stroke="black" points="438.751,-1136.88 429.284,-1141.64 439.652,-1143.82 438.751,-1136.88"/>
</g>
<!-- \\MonitoringRunTaskTestCheckerFalse -->
<g id="node20" class="node"><title>\\MonitoringRunTaskTestCheckerFalse</title>
<polygon fill="none" stroke="black" points="854,-1060 616,-1060 616,-1024 854,-1024 854,-1060"/>
<text text-anchor="middle" x="735" y="-1039.1" font-family="Courier,monospace" font-size="11.00">MonitoringRunTaskTestCheckerFalse</text>
</g>
<!-- \\MonitoringRunTaskTestCheckerFalse&#45;&gt;\\MonitoringChecker -->
<g id="edge37" class="edge"><title>\\MonitoringRunTaskTestCheckerFalse&#45;&gt;\\MonitoringChecker</title>
<path fill="none" stroke="black" d="M624.394,-1060.06C616.671,-1062.65 609.13,-1065.61 602,-1069 564.629,-1086.75 567.964,-1111.56 530,-1128 501.795,-1140.22 468.599,-1146.11 439.265,-1148.81"/>
<polygon fill="none" stroke="black" points="438.748,-1145.34 429.064,-1149.64 439.315,-1152.32 438.748,-1145.34"/>
</g>
<!-- \\MonitoringControllerTest -->
<g id="node21" class="node"><title>\\MonitoringControllerTest</title>
<polygon fill="none" stroke="black" points="824,-412 646,-412 646,-376 824,-376 824,-412"/>
<text text-anchor="middle" x="735" y="-391.1" font-family="Courier,monospace" font-size="11.00">MonitoringControllerTest</text>
</g>
<!-- \\ControllerTestCase -->
<g id="node50" class="node"><title>\\ControllerTestCase</title>
<ellipse fill="none" stroke="black" cx="363" cy="-18" rx="106.773" ry="18.3848"/>
<text text-anchor="middle" x="363" y="-14.4" font-family="Times Roman,serif" font-size="14.00" fill="gray">\ControllerTestCase</text>
</g>
<!-- \\MonitoringControllerTest&#45;&gt;\\ControllerTestCase -->
<g id="edge39" class="edge"><title>\\MonitoringControllerTest&#45;&gt;\\ControllerTestCase</title>
<path fill="none" stroke="black" d="M730.279,-375.757C713.977,-316.739 654.112,-129.909 530,-45 514.795,-34.598 497.015,-27.6724 478.835,-23.1443"/>
<polygon fill="none" stroke="black" points="479.531,-19.7135 469.007,-20.9289 477.992,-26.5422 479.531,-19.7135"/>
</g>
<!-- \\MonitoringTest -->
<g id="node22" class="node"><title>\\MonitoringTest</title>
<polygon fill="none" stroke="black" points="790,-520 680,-520 680,-484 790,-484 790,-520"/>
<text text-anchor="middle" x="735" y="-499.1" font-family="Courier,monospace" font-size="11.00">MonitoringTest</text>
</g>
<!-- \\MonitoringTest&#45;&gt;\\CakeTestCase -->
<g id="edge41" class="edge"><title>\\MonitoringTest&#45;&gt;\\CakeTestCase</title>
<path fill="none" stroke="black" d="M679.441,-504.281C652.602,-502.352 621.964,-495.187 602,-475 482.356,-354.023 652.039,-217.561 530,-99 509.178,-78.7712 479.538,-70.1384 450.994,-67.1626"/>
<polygon fill="none" stroke="black" points="451.213,-63.6689 440.959,-66.3363 450.638,-70.6453 451.213,-63.6689"/>
</g>
<!-- \\MonitoringReportTest -->
<g id="node23" class="node"><title>\\MonitoringReportTest</title>
<polygon fill="none" stroke="black" points="811,-466 659,-466 659,-430 811,-430 811,-466"/>
<text text-anchor="middle" x="735" y="-445.1" font-family="Courier,monospace" font-size="11.00">MonitoringReportTest</text>
</g>
<!-- \\MonitoringReportTest&#45;&gt;\\CakeTestCase -->
<g id="edge43" class="edge"><title>\\MonitoringReportTest&#45;&gt;\\CakeTestCase</title>
<path fill="none" stroke="black" d="M658.856,-447.392C638.075,-443.59 617.141,-435.846 602,-421 497.29,-318.333 636.742,-199.553 530,-99 509.152,-79.3603 479.952,-70.7658 451.789,-67.6513"/>
<polygon fill="none" stroke="black" points="451.747,-64.1341 441.478,-66.7415 451.132,-71.107 451.747,-64.1341"/>
</g>
</g>
</svg>
