<?xml version="1.0" encoding="UTF-8" standalone="no"?>
<!DOCTYPE svg PUBLIC "-//W3C//DTD SVG 1.1//EN"
 "http://www.w3.org/Graphics/SVG/1.1/DTD/svg11.dtd">
<!-- Generated by graphviz version 2.26.3 (20100126.1600)
 -->
<!-- Title: G Pages: 1 -->
<svg width="892pt" height="1484pt"
 viewBox="0.00 0.00 892.00 1484.00" xmlns="http://www.w3.org/2000/svg" xmlns:xlink="http://www.w3.org/1999/xlink">
<g id="graph1" class="graph" transform="scale(1 1) rotate(0) translate(4 1480)">
<title>G</title>
<polygon fill="white" stroke="white" points="-4,5 -4,-1480 889,-1480 889,5 -4,5"/>
<g id="graph2" class="cluster"><title>cluster_Global</title>
<polyline fill="none" stroke="gray" points="298,-368 864,-368 "/>
<path fill="none" stroke="gray" d="M864,-368C870,-368 876,-374 876,-380"/>
<polyline fill="none" stroke="gray" points="876,-380 876,-1456 "/>
<path fill="none" stroke="gray" d="M876,-1456C876,-1462 870,-1468 864,-1468"/>
<polyline fill="none" stroke="gray" points="864,-1468 298,-1468 "/>
<path fill="none" stroke="gray" d="M298,-1468C292,-1468 286,-1462 286,-1456"/>
<polyline fill="none" stroke="gray" points="286,-1456 286,-380 "/>
<path fill="none" stroke="gray" d="M286,-380C286,-374 292,-368 298,-368"/>
<text text-anchor="middle" x="581" y="-1454.1" font-family="Times Roman,serif" font-size="11.00" fill="gray">Global</text>
</g>
<!-- \\MonitoringLogFixture -->
<g id="node2" class="node"><title>\\MonitoringLogFixture</title>
<polygon fill="none" stroke="black" points="811,-1060 659,-1060 659,-1024 811,-1024 811,-1060"/>
<text text-anchor="middle" x="735" y="-1039.1" font-family="Courier,monospace" font-size="11.00">MonitoringLogFixture</text>
</g>
<!-- \\CakeTestFixture -->
<g id="node25" class="node"><title>\\CakeTestFixture</title>
<ellipse fill="none" stroke="black" cx="363" cy="-342" rx="92.1303" ry="18.3848"/>
<text text-anchor="middle" x="363" y="-338.4" font-family="Times Roman,serif" font-size="14.00" fill="gray">\CakeTestFixture</text>
</g>
<!-- \\MonitoringLogFixture&#45;&gt;\\CakeTestFixture -->
<g id="edge3" class="edge"><title>\\MonitoringLogFixture&#45;&gt;\\CakeTestFixture</title>
<path fill="none" stroke="black" d="M658.84,-1042.6C637.679,-1038.9 616.542,-1030.92 602,-1015 405.645,-800.099 733.682,-571.97 530,-364 510.136,-343.718 481.323,-335.655 453.204,-333.46"/>
<polygon fill="none" stroke="black" points="453.067,-329.947 442.893,-332.905 452.691,-336.937 453.067,-329.947"/>
</g>
<!-- \\MonitoringFixture -->
<g id="node3" class="node"><title>\\MonitoringFixture</title>
<polygon fill="none" stroke="black" points="800,-1006 670,-1006 670,-970 800,-970 800,-1006"/>
<text text-anchor="middle" x="735" y="-985.1" font-family="Courier,monospace" font-size="11.00">MonitoringFixture</text>
</g>
<!-- \\MonitoringFixture&#45;&gt;\\CakeTestFixture -->
<g id="edge5" class="edge"><title>\\MonitoringFixture&#45;&gt;\\CakeTestFixture</title>
<path fill="none" stroke="black" d="M669.313,-989.998C644.894,-987.211 619.017,-979.441 602,-961 420.756,-764.592 717.94,-554.011 530,-364 510.128,-343.909 481.463,-335.851 453.475,-333.604"/>
<polygon fill="none" stroke="black" points="453.392,-330.094 443.212,-333.028 453,-337.083 453.392,-330.094"/>
</g>
<!-- \\MonitoringTest -->
<g id="node4" class="node"><title>\\MonitoringTest</title>
<polygon fill="none" stroke="black" points="790,-952 680,-952 680,-916 790,-916 790,-952"/>
<text text-anchor="middle" x="735" y="-931.1" font-family="Courier,monospace" font-size="11.00">MonitoringTest</text>
</g>
<!-- \\CakeTestCase -->
<g id="node28" class="node"><title>\\CakeTestCase</title>
<ellipse fill="none" stroke="black" cx="363" cy="-288" rx="82.0244" ry="18.3848"/>
<text text-anchor="middle" x="363" y="-284.4" font-family="Times Roman,serif" font-size="14.00" fill="gray">\CakeTestCase</text>
</g>
<!-- \\MonitoringTest&#45;&gt;\\CakeTestCase -->
<g id="edge7" class="edge"><title>\\MonitoringTest&#45;&gt;\\CakeTestCase</title>
<path fill="none" stroke="black" d="M679.189,-936.865C652.115,-935.119 621.345,-927.942 602,-907 422.154,-712.303 713.703,-506.061 530,-315 509.424,-293.6 479.06,-284.89 449.846,-282.185"/>
<polygon fill="none" stroke="black" points="449.798,-278.673 439.579,-281.468 449.311,-285.656 449.798,-278.673"/>
</g>
<!-- \\MonitoringReportTest -->
<g id="node5" class="node"><title>\\MonitoringReportTest</title>
<polygon fill="none" stroke="black" points="811,-898 659,-898 659,-862 811,-862 811,-898"/>
<text text-anchor="middle" x="735" y="-877.1" font-family="Courier,monospace" font-size="11.00">MonitoringReportTest</text>
</g>
<!-- \\MonitoringReportTest&#45;&gt;\\CakeTestCase -->
<g id="edge9" class="edge"><title>\\MonitoringReportTest&#45;&gt;\\CakeTestCase</title>
<path fill="none" stroke="black" d="M658.718,-880.328C637.681,-876.601 616.643,-868.662 602,-853 437.247,-676.777 698.244,-487.893 530,-315 509.387,-293.818 479.174,-285.117 450.093,-282.358"/>
<polygon fill="none" stroke="black" points="450.098,-278.849 439.872,-281.619 449.593,-285.831 450.098,-278.849"/>
</g>
<!-- \\MonitoringControllerTest -->
<g id="node6" class="node"><title>\\MonitoringControllerTest</title>
<polygon fill="none" stroke="black" points="824,-682 646,-682 646,-646 824,-646 824,-682"/>
<text text-anchor="middle" x="735" y="-661.1" font-family="Courier,monospace" font-size="11.00">MonitoringControllerTest</text>
</g>
<!-- \\ControllerTestCase -->
<g id="node31" class="node"><title>\\ControllerTestCase</title>
<ellipse fill="none" stroke="black" cx="363" cy="-234" rx="106.773" ry="18.3848"/>
<text text-anchor="middle" x="363" y="-230.4" font-family="Times Roman,serif" font-size="14.00" fill="gray">\ControllerTestCase</text>
</g>
<!-- \\MonitoringControllerTest&#45;&gt;\\ControllerTestCase -->
<g id="edge11" class="edge"><title>\\MonitoringControllerTest&#45;&gt;\\ControllerTestCase</title>
<path fill="none" stroke="black" d="M645.445,-660.713C629.232,-656.268 613.763,-648.894 602,-637 482.356,-516.023 652.039,-379.561 530,-261 516.098,-247.494 498.265,-239.157 479.451,-234.222"/>
<polygon fill="none" stroke="black" points="480.07,-230.773 469.539,-231.942 478.5,-237.595 480.07,-230.773"/>
</g>
<!-- \\MonitoringUpdateTaskTest -->
<g id="node7" class="node"><title>\\MonitoringUpdateTaskTest</title>
<polygon fill="none" stroke="black" points="824,-790 646,-790 646,-754 824,-754 824,-790"/>
<text text-anchor="middle" x="735" y="-769.1" font-family="Courier,monospace" font-size="11.00">MonitoringUpdateTaskTest</text>
</g>
<!-- \\MonitoringUpdateTaskTest&#45;&gt;\\CakeTestCase -->
<g id="edge13" class="edge"><title>\\MonitoringUpdateTaskTest&#45;&gt;\\CakeTestCase</title>
<path fill="none" stroke="black" d="M645.227,-768.927C629.03,-764.465 613.624,-757.03 602,-745 467.358,-605.648 667.401,-451.632 530,-315 509.228,-294.345 479.293,-285.686 450.486,-282.811"/>
<polygon fill="none" stroke="black" points="450.602,-279.31 440.361,-282.025 450.061,-286.289 450.602,-279.31"/>
</g>
<!-- \\MonitoringRunTaskTest -->
<g id="node8" class="node"><title>\\MonitoringRunTaskTest</title>
<polygon fill="none" stroke="black" points="814,-736 656,-736 656,-700 814,-700 814,-736"/>
<text text-anchor="middle" x="735" y="-715.1" font-family="Courier,monospace" font-size="11.00">MonitoringRunTaskTest</text>
</g>
<!-- \\MonitoringRunTaskTest&#45;&gt;\\CakeTestCase -->
<g id="edge15" class="edge"><title>\\MonitoringRunTaskTest&#45;&gt;\\CakeTestCase</title>
<path fill="none" stroke="black" d="M655.794,-717.154C635.933,-713.181 616.248,-705.407 602,-691 482.356,-570.023 652.039,-433.561 530,-315 509.178,-294.771 479.538,-286.138 450.994,-283.163"/>
<polygon fill="none" stroke="black" points="451.213,-279.669 440.959,-282.336 450.638,-286.645 451.213,-279.669"/>
</g>
<!-- \\MonitoringRunTaskTestCheckerTimeouted -->
<g id="node9" class="node"><title>\\MonitoringRunTaskTestCheckerTimeouted</title>
<polygon fill="none" stroke="black" points="868,-1438 602,-1438 602,-1402 868,-1402 868,-1438"/>
<text text-anchor="middle" x="735" y="-1417.1" font-family="Courier,monospace" font-size="11.00">MonitoringRunTaskTestCheckerTimeouted</text>
</g>
<!-- \\MonitoringChecker -->
<g id="node19" class="node"><title>\\MonitoringChecker</title>
<polygon fill="none" stroke="black" points="429,-1330 297,-1330 297,-1294 429,-1294 429,-1330"/>
<text text-anchor="start" x="329" y="-1317.43" font-family="Courier,monospace" font-size="11.00">«abstract»</text>
<text text-anchor="start" x="305.5" y="-1304.23" font-family="Courier,monospace" font-size="11.00">MonitoringChecker</text>
</g>
<!-- \\MonitoringRunTaskTestCheckerTimeouted&#45;&gt;\\MonitoringChecker -->
<g id="edge17" class="edge"><title>\\MonitoringRunTaskTestCheckerTimeouted&#45;&gt;\\MonitoringChecker</title>
<path fill="none" stroke="black" d="M638.768,-1401.97C626.34,-1399.2 613.829,-1396.19 602,-1393 538.882,-1375.97 468.143,-1351.27 420.112,-1333.63"/>
<polygon fill="none" stroke="black" points="421.112,-1330.27 410.518,-1330.09 418.688,-1336.84 421.112,-1330.27"/>
</g>
<!-- \\MonitoringRunTaskTestCheckerTrue -->
<g id="node10" class="node"><title>\\MonitoringRunTaskTestCheckerTrue</title>
<polygon fill="none" stroke="black" points="851,-1384 619,-1384 619,-1348 851,-1348 851,-1384"/>
<text text-anchor="middle" x="735" y="-1363.1" font-family="Courier,monospace" font-size="11.00">MonitoringRunTaskTestCheckerTrue</text>
</g>
<!-- \\MonitoringRunTaskTestCheckerTrue&#45;&gt;\\MonitoringChecker -->
<g id="edge19" class="edge"><title>\\MonitoringRunTaskTestCheckerTrue&#45;&gt;\\MonitoringChecker</title>
<path fill="none" stroke="black" d="M618.318,-1349.06C559.888,-1340.58 490.808,-1330.55 439.247,-1323.07"/>
<polygon fill="none" stroke="black" points="439.576,-1319.58 429.177,-1321.61 438.57,-1326.51 439.576,-1319.58"/>
</g>
<!-- \\MonitoringRunTaskTestCheckerFalse -->
<g id="node11" class="node"><title>\\MonitoringRunTaskTestCheckerFalse</title>
<polygon fill="none" stroke="black" points="854,-1330 616,-1330 616,-1294 854,-1294 854,-1330"/>
<text text-anchor="middle" x="735" y="-1309.1" font-family="Courier,monospace" font-size="11.00">MonitoringRunTaskTestCheckerFalse</text>
</g>
<!-- \\MonitoringRunTaskTestCheckerFalse&#45;&gt;\\MonitoringChecker -->
<g id="edge21" class="edge"><title>\\MonitoringRunTaskTestCheckerFalse&#45;&gt;\\MonitoringChecker</title>
<path fill="none" stroke="black" d="M615.249,-1312C557.525,-1312 490.008,-1312 439.359,-1312"/>
<polygon fill="none" stroke="black" points="439.139,-1308.5 429.139,-1312 439.139,-1315.5 439.139,-1308.5"/>
</g>
<!-- \\AllMonitoringTest -->
<g id="node12" class="node"><title>\\AllMonitoringTest</title>
<polygon fill="none" stroke="black" points="800,-628 670,-628 670,-592 800,-592 800,-628"/>
<text text-anchor="middle" x="735" y="-607.1" font-family="Courier,monospace" font-size="11.00">AllMonitoringTest</text>
</g>
<!-- \\PHPUnit_Framework_TestSuite -->
<g id="node38" class="node"><title>\\PHPUnit_Framework_TestSuite</title>
<ellipse fill="none" stroke="black" cx="363" cy="-180" rx="166.877" ry="18.3848"/>
<text text-anchor="middle" x="363" y="-176.4" font-family="Times Roman,serif" font-size="14.00" fill="gray">\PHPUnit_Framework_TestSuite</text>
</g>
<!-- \\AllMonitoringTest&#45;&gt;\\PHPUnit_Framework_TestSuite -->
<g id="edge23" class="edge"><title>\\AllMonitoringTest&#45;&gt;\\PHPUnit_Framework_TestSuite</title>
<path fill="none" stroke="black" d="M669.269,-611.302C645.139,-608.366 619.479,-600.674 602,-583 482.356,-462.023 652.039,-325.561 530,-207 525.046,-202.188 519.594,-198.031 513.775,-194.451"/>
<polygon fill="none" stroke="black" points="515.451,-191.379 505.005,-189.61 512.068,-197.507 515.451,-191.379"/>
</g>
<!-- \\MonitoringReport -->
<g id="node13" class="node"><title>\\MonitoringReport</title>
<polygon fill="none" stroke="black" points="797,-844 673,-844 673,-808 797,-808 797,-844"/>
<text text-anchor="middle" x="735" y="-823.1" font-family="Courier,monospace" font-size="11.00">MonitoringReport</text>
</g>
<!-- \\MonitoringLog -->
<g id="node14" class="node"><title>\\MonitoringLog</title>
<polygon fill="none" stroke="black" points="787,-1168 683,-1168 683,-1132 787,-1132 787,-1168"/>
<text text-anchor="middle" x="735" y="-1147.1" font-family="Courier,monospace" font-size="11.00">MonitoringLog</text>
</g>
<!-- \\AppMonitoringModel -->
<g id="node16" class="node"><title>\\AppMonitoringModel</title>
<polygon fill="none" stroke="black" points="432,-1141 294,-1141 294,-1105 432,-1105 432,-1141"/>
<text text-anchor="middle" x="363" y="-1120.1" font-family="Courier,monospace" font-size="11.00">AppMonitoringModel</text>
</g>
<!-- \\MonitoringLog&#45;&gt;\\AppMonitoringModel -->
<g id="edge25" class="edge"><title>\\MonitoringLog&#45;&gt;\\AppMonitoringModel</title>
<path fill="none" stroke="black" d="M682.883,-1146.22C620.338,-1141.68 514.827,-1134.02 442.189,-1128.75"/>
<polygon fill="none" stroke="black" points="442.393,-1125.25 432.166,-1128.02 441.886,-1132.23 442.393,-1125.25"/>
</g>
<!-- \\Monitoring -->
<g id="node15" class="node"><title>\\Monitoring</title>
<polygon fill="none" stroke="black" points="777,-1114 693,-1114 693,-1078 777,-1078 777,-1114"/>
<text text-anchor="middle" x="735" y="-1093.1" font-family="Courier,monospace" font-size="11.00">Monitoring</text>
</g>
<!-- \\Monitoring&#45;&gt;\\AppMonitoringModel -->
<g id="edge27" class="edge"><title>\\Monitoring&#45;&gt;\\AppMonitoringModel</title>
<path fill="none" stroke="black" d="M692.689,-1099.07C631.909,-1103.48 518.789,-1111.69 442.204,-1117.25"/>
<polygon fill="none" stroke="black" points="441.838,-1113.77 432.118,-1117.98 442.345,-1120.75 441.838,-1113.77"/>
</g>
<!-- \\AppModel -->
<g id="node42" class="node"><title>\\AppModel</title>
<ellipse fill="none" stroke="black" cx="62" cy="-1123" rx="62.2254" ry="18.3848"/>
<text text-anchor="middle" x="62" y="-1119.4" font-family="Times Roman,serif" font-size="14.00" fill="gray">\AppModel</text>
</g>
<!-- \\AppMonitoringModel&#45;&gt;\\AppModel -->
<g id="edge29" class="edge"><title>\\AppMonitoringModel&#45;&gt;\\AppModel</title>
<path fill="none" stroke="black" d="M293.945,-1123C246.143,-1123 182.655,-1123 134.187,-1123"/>
<polygon fill="none" stroke="black" points="134.084,-1119.5 124.084,-1123 134.084,-1126.5 134.084,-1119.5"/>
</g>
<!-- \\MonitoringSelfFailCheck -->
<g id="node17" class="node"><title>\\MonitoringSelfFailCheck</title>
<polygon fill="none" stroke="black" points="821,-1276 649,-1276 649,-1240 821,-1240 821,-1276"/>
<text text-anchor="middle" x="735" y="-1255.1" font-family="Courier,monospace" font-size="11.00">MonitoringSelfFailCheck</text>
</g>
<!-- \\MonitoringSelfFailCheck&#45;&gt;\\MonitoringChecker -->
<g id="edge31" class="edge"><title>\\MonitoringSelfFailCheck&#45;&gt;\\MonitoringChecker</title>
<path fill="none" stroke="black" d="M648.721,-1270.52C585.286,-1279.73 499.882,-1292.13 439.008,-1300.97"/>
<polygon fill="none" stroke="black" points="438.471,-1297.51 429.077,-1302.41 439.477,-1304.44 438.471,-1297.51"/>
</g>
<!-- \\MonitoringSelfCheck -->
<g id="node18" class="node"><title>\\MonitoringSelfCheck</title>
<polygon fill="none" stroke="black" points="807,-1222 663,-1222 663,-1186 807,-1186 807,-1222"/>
<text text-anchor="middle" x="735" y="-1201.1" font-family="Courier,monospace" font-size="11.00">MonitoringSelfCheck</text>
</g>
<!-- \\MonitoringSelfCheck&#45;&gt;\\MonitoringChecker -->
<g id="edge33" class="edge"><title>\\MonitoringSelfCheck&#45;&gt;\\MonitoringChecker</title>
<path fill="none" stroke="black" d="M662.479,-1216.99C642.743,-1221 621.449,-1225.75 602,-1231 538.882,-1248.03 468.143,-1272.73 420.112,-1290.37"/>
<polygon fill="none" stroke="black" points="418.688,-1287.16 410.518,-1293.91 421.112,-1293.73 418.688,-1287.16"/>
</g>
<!-- \\MonitoringController -->
<g id="node20" class="node"><title>\\MonitoringController</title>
<polygon fill="none" stroke="black" points="811,-574 659,-574 659,-538 811,-538 811,-574"/>
<text text-anchor="middle" x="735" y="-553.1" font-family="Courier,monospace" font-size="11.00">MonitoringController</text>
</g>
<!-- \\AppController -->
<g id="node46" class="node"><title>\\AppController</title>
<ellipse fill="none" stroke="black" cx="363" cy="-126" rx="82.0244" ry="18.3848"/>
<text text-anchor="middle" x="363" y="-122.4" font-family="Times Roman,serif" font-size="14.00" fill="gray">\AppController</text>
</g>
<!-- \\MonitoringController&#45;&gt;\\AppController -->
<g id="edge35" class="edge"><title>\\MonitoringController&#45;&gt;\\AppController</title>
<path fill="none" stroke="black" d="M658.912,-555.746C638.008,-551.977 616.994,-544.161 602,-529 482.356,-408.023 652.039,-271.561 530,-153 509.178,-132.771 479.538,-124.138 450.994,-121.163"/>
<polygon fill="none" stroke="black" points="451.213,-117.669 440.959,-120.336 450.638,-124.645 451.213,-117.669"/>
</g>
<!-- \\MonitoringUpdateTask -->
<g id="node21" class="node"><title>\\MonitoringUpdateTask</title>
<polygon fill="none" stroke="black" points="811,-520 659,-520 659,-484 811,-484 811,-520"/>
<text text-anchor="middle" x="735" y="-499.1" font-family="Courier,monospace" font-size="11.00">MonitoringUpdateTask</text>
</g>
<!-- \\AdvancedTask -->
<g id="node48" class="node"><title>\\AdvancedTask</title>
<ellipse fill="none" stroke="black" cx="363" cy="-72" rx="82.939" ry="18.3848"/>
<text text-anchor="middle" x="363" y="-68.4" font-family="Times Roman,serif" font-size="14.00" fill="gray">\AdvancedTask</text>
</g>
<!-- \\MonitoringUpdateTask&#45;&gt;\\AdvancedTask -->
<g id="edge37" class="edge"><title>\\MonitoringUpdateTask&#45;&gt;\\AdvancedTask</title>
<path fill="none" stroke="black" d="M658.912,-501.746C638.008,-497.977 616.994,-490.161 602,-475 482.356,-354.023 652.039,-217.561 530,-99 509.644,-79.224 480.861,-70.5307 452.912,-67.3711"/>
<polygon fill="none" stroke="black" points="452.945,-63.8598 442.671,-66.4471 452.316,-70.8315 452.945,-63.8598"/>
</g>
<!-- \\MonitoringRunTask -->
<g id="node22" class="node"><title>\\MonitoringRunTask</title>
<polygon fill="none" stroke="black" points="800,-466 670,-466 670,-430 800,-430 800,-466"/>
<text text-anchor="middle" x="735" y="-445.1" font-family="Courier,monospace" font-size="11.00">MonitoringRunTask</text>
</g>
<!-- \\MonitoringRunTask&#45;&gt;\\AdvancedTask -->
<g id="edge39" class="edge"><title>\\MonitoringRunTask&#45;&gt;\\AdvancedTask</title>
<path fill="none" stroke="black" d="M669.207,-448.978C645.213,-445.975 619.665,-438.32 602,-421 497.29,-318.333 636.742,-199.553 530,-99 509.532,-79.7191 481.016,-71.0835 453.334,-67.8275"/>
<polygon fill="none" stroke="black" points="453.476,-64.3253 443.189,-66.8616 452.812,-71.2938 453.476,-64.3253"/>
</g>
<!-- \\MonitoringShell -->
<g id="node23" class="node"><title>\\MonitoringShell</title>
<polygon fill="none" stroke="black" points="794,-412 676,-412 676,-376 794,-376 794,-412"/>
<text text-anchor="middle" x="735" y="-391.1" font-family="Courier,monospace" font-size="11.00">MonitoringShell</text>
</g>
<!-- \\AdvancedShell -->
<g id="node51" class="node"><title>\\AdvancedShell</title>
<ellipse fill="none" stroke="black" cx="363" cy="-18" rx="85.7684" ry="18.3848"/>
<text text-anchor="middle" x="363" y="-14.4" font-family="Times Roman,serif" font-size="14.00" fill="gray">\AdvancedShell</text>
</g>
<!-- \\MonitoringShell&#45;&gt;\\AdvancedShell -->
<g id="edge41" class="edge"><title>\\MonitoringShell&#45;&gt;\\AdvancedShell</title>
<path fill="none" stroke="black" d="M730.279,-375.757C713.977,-316.739 654.112,-129.909 530,-45 509.548,-31.008 484.436,-23.3062 459.958,-19.2682"/>
<polygon fill="none" stroke="black" points="460.291,-15.7798 449.89,-17.801 459.281,-22.7066 460.291,-15.7798"/>
</g>
</g>
</svg>
