<?xml version="1.0" encoding="UTF-8" standalone="no"?>
<!DOCTYPE svg PUBLIC "-//W3C//DTD SVG 1.1//EN"
 "http://www.w3.org/Graphics/SVG/1.1/DTD/svg11.dtd">
<!-- Generated by graphviz version 2.26.3 (20100126.1600)
 -->
<!-- Title: G Pages: 1 -->
<svg width="892pt" height="1322pt"
 viewBox="0.00 0.00 892.00 1322.00" xmlns="http://www.w3.org/2000/svg" xmlns:xlink="http://www.w3.org/1999/xlink">
<g id="graph1" class="graph" transform="scale(1 1) rotate(0) translate(4 1318)">
<title>G</title>
<polygon fill="white" stroke="white" points="-4,5 -4,-1318 889,-1318 889,5 -4,5"/>
<g id="graph2" class="cluster"><title>cluster_Global</title>
<polyline fill="none" stroke="gray" points="298,-314 864,-314 "/>
<path fill="none" stroke="gray" d="M864,-314C870,-314 876,-320 876,-326"/>
<polyline fill="none" stroke="gray" points="876,-326 876,-1294 "/>
<path fill="none" stroke="gray" d="M876,-1294C876,-1300 870,-1306 864,-1306"/>
<polyline fill="none" stroke="gray" points="864,-1306 298,-1306 "/>
<path fill="none" stroke="gray" d="M298,-1306C292,-1306 286,-1300 286,-1294"/>
<polyline fill="none" stroke="gray" points="286,-1294 286,-326 "/>
<path fill="none" stroke="gray" d="M286,-326C286,-320 292,-314 298,-314"/>
<text text-anchor="middle" x="581" y="-1292.1" font-family="Times Roman,serif" font-size="11.00" fill="gray">Global</text>
</g>
<!-- \\MonitoringChecker -->
<g id="node2" class="node"><title>\\MonitoringChecker</title>
<polygon fill="none" stroke="black" points="429,-1060 297,-1060 297,-1024 429,-1024 429,-1060"/>
<text text-anchor="start" x="329" y="-1047.43" font-family="Courier,monospace" font-size="11.00">«abstract»</text>
<text text-anchor="start" x="305.5" y="-1034.23" font-family="Courier,monospace" font-size="11.00">MonitoringChecker</text>
</g>
<!-- \\MonitoringSelfCheck -->
<g id="node3" class="node"><title>\\MonitoringSelfCheck</title>
<polygon fill="none" stroke="black" points="807,-1060 663,-1060 663,-1024 807,-1024 807,-1060"/>
<text text-anchor="middle" x="735" y="-1039.1" font-family="Courier,monospace" font-size="11.00">MonitoringSelfCheck</text>
</g>
<!-- \\MonitoringSelfCheck&#45;&gt;\\MonitoringChecker -->
<g id="edge3" class="edge"><title>\\MonitoringSelfCheck&#45;&gt;\\MonitoringChecker</title>
<path fill="none" stroke="black" d="M662.392,-1042C598.166,-1042 504.772,-1042 439.423,-1042"/>
<polygon fill="none" stroke="black" points="439.185,-1038.5 429.185,-1042 439.185,-1045.5 439.185,-1038.5"/>
</g>
<!-- \\MonitoringSelfFailCheck -->
<g id="node4" class="node"><title>\\MonitoringSelfFailCheck</title>
<polygon fill="none" stroke="black" points="821,-1006 649,-1006 649,-970 821,-970 821,-1006"/>
<text text-anchor="middle" x="735" y="-985.1" font-family="Courier,monospace" font-size="11.00">MonitoringSelfFailCheck</text>
</g>
<!-- \\MonitoringSelfFailCheck&#45;&gt;\\MonitoringChecker -->
<g id="edge5" class="edge"><title>\\MonitoringSelfFailCheck&#45;&gt;\\MonitoringChecker</title>
<path fill="none" stroke="black" d="M648.79,-1001.93C612.19,-1007.72 569.041,-1014.38 530,-1020 500.482,-1024.25 467.982,-1028.6 439.559,-1032.3"/>
<polygon fill="none" stroke="black" points="438.751,-1028.88 429.284,-1033.64 439.652,-1035.82 438.751,-1028.88"/>
</g>
<!-- \\MonitoringUpdateTask -->
<g id="node5" class="node"><title>\\MonitoringUpdateTask</title>
<polygon fill="none" stroke="black" points="811,-844 659,-844 659,-808 811,-808 811,-844"/>
<text text-anchor="middle" x="735" y="-823.1" font-family="Courier,monospace" font-size="11.00">MonitoringUpdateTask</text>
</g>
<!-- \\AdvancedTask -->
<g id="node25" class="node"><title>\\AdvancedTask</title>
<ellipse fill="none" stroke="black" cx="363" cy="-288" rx="82.939" ry="18.3848"/>
<text text-anchor="middle" x="363" y="-284.4" font-family="Times Roman,serif" font-size="14.00" fill="gray">\AdvancedTask</text>
</g>
<!-- \\MonitoringUpdateTask&#45;&gt;\\AdvancedTask -->
<g id="edge7" class="edge"><title>\\MonitoringUpdateTask&#45;&gt;\\AdvancedTask</title>
<path fill="none" stroke="black" d="M658.846,-826.208C637.813,-822.476 616.745,-814.565 602,-799 450.923,-639.521 686.511,-464.149 530,-310 508.192,-288.522 476.301,-280.929 446.216,-279.458"/>
<polygon fill="none" stroke="black" points="446.192,-275.956 436.1,-279.182 446.001,-282.953 446.192,-275.956"/>
</g>
<!-- \\MonitoringRunTask -->
<g id="node6" class="node"><title>\\MonitoringRunTask</title>
<polygon fill="none" stroke="black" points="800,-790 670,-790 670,-754 800,-754 800,-790"/>
<text text-anchor="middle" x="735" y="-769.1" font-family="Courier,monospace" font-size="11.00">MonitoringRunTask</text>
</g>
<!-- \\MonitoringRunTask&#45;&gt;\\AdvancedTask -->
<g id="edge9" class="edge"><title>\\MonitoringRunTask&#45;&gt;\\AdvancedTask</title>
<path fill="none" stroke="black" d="M669.381,-773.57C645.119,-770.696 619.337,-762.977 602,-745 465.967,-603.944 670.838,-446.259 530,-310 508.096,-288.808 476.349,-281.225 446.403,-279.682"/>
<polygon fill="none" stroke="black" points="446.434,-276.182 436.334,-279.379 446.224,-283.178 446.434,-276.182"/>
</g>
<!-- \\MonitoringShell -->
<g id="node7" class="node"><title>\\MonitoringShell</title>
<polygon fill="none" stroke="black" points="794,-736 676,-736 676,-700 794,-700 794,-736"/>
<text text-anchor="middle" x="735" y="-715.1" font-family="Courier,monospace" font-size="11.00">MonitoringShell</text>
</g>
<!-- \\AdvancedShell -->
<g id="node28" class="node"><title>\\AdvancedShell</title>
<ellipse fill="none" stroke="black" cx="363" cy="-234" rx="85.7684" ry="18.3848"/>
<text text-anchor="middle" x="363" y="-230.4" font-family="Times Roman,serif" font-size="14.00" fill="gray">\AdvancedShell</text>
</g>
<!-- \\MonitoringShell&#45;&gt;\\AdvancedShell -->
<g id="edge11" class="edge"><title>\\MonitoringShell&#45;&gt;\\AdvancedShell</title>
<path fill="none" stroke="black" d="M675.877,-720.213C649.829,-717.978 620.909,-710.571 602,-691 467.358,-551.648 667.401,-397.632 530,-261 510.432,-241.542 482.731,-232.73 455.503,-229.37"/>
<polygon fill="none" stroke="black" points="455.808,-225.884 445.509,-228.37 455.111,-232.849 455.808,-225.884"/>
</g>
<!-- \\MonitoringController -->
<g id="node8" class="node"><title>\\MonitoringController</title>
<polygon fill="none" stroke="black" points="811,-682 659,-682 659,-646 811,-646 811,-682"/>
<text text-anchor="middle" x="735" y="-661.1" font-family="Courier,monospace" font-size="11.00">MonitoringController</text>
</g>
<!-- \\AppController -->
<g id="node30" class="node"><title>\\AppController</title>
<ellipse fill="none" stroke="black" cx="363" cy="-180" rx="82.0244" ry="18.3848"/>
<text text-anchor="middle" x="363" y="-176.4" font-family="Times Roman,serif" font-size="14.00" fill="gray">\AppController</text>
</g>
<!-- \\MonitoringController&#45;&gt;\\AppController -->
<g id="edge13" class="edge"><title>\\MonitoringController&#45;&gt;\\AppController</title>
<path fill="none" stroke="black" d="M658.689,-663.964C637.778,-660.201 616.816,-652.335 602,-637 467.358,-497.648 667.401,-343.632 530,-207 509.228,-186.345 479.293,-177.686 450.486,-174.811"/>
<polygon fill="none" stroke="black" points="450.602,-171.31 440.361,-174.025 450.061,-178.289 450.602,-171.31"/>
</g>
<!-- \\Monitoring -->
<g id="node9" class="node"><title>\\Monitoring</title>
<polygon fill="none" stroke="black" points="777,-1276 693,-1276 693,-1240 777,-1240 777,-1276"/>
<text text-anchor="middle" x="735" y="-1255.1" font-family="Courier,monospace" font-size="11.00">Monitoring</text>
</g>
<!-- \\AppMonitoringModel -->
<g id="node11" class="node"><title>\\AppMonitoringModel</title>
<polygon fill="none" stroke="black" points="432,-1249 294,-1249 294,-1213 432,-1213 432,-1249"/>
<text text-anchor="middle" x="363" y="-1228.1" font-family="Courier,monospace" font-size="11.00">AppMonitoringModel</text>
</g>
<!-- \\Monitoring&#45;&gt;\\AppMonitoringModel -->
<g id="edge15" class="edge"><title>\\Monitoring&#45;&gt;\\AppMonitoringModel</title>
<path fill="none" stroke="black" d="M692.689,-1254.93C631.909,-1250.52 518.789,-1242.31 442.204,-1236.75"/>
<polygon fill="none" stroke="black" points="442.345,-1233.25 432.118,-1236.02 441.838,-1240.23 442.345,-1233.25"/>
</g>
<!-- \\MonitoringReport -->
<g id="node10" class="node"><title>\\MonitoringReport</title>
<polygon fill="none" stroke="black" points="797,-898 673,-898 673,-862 797,-862 797,-898"/>
<text text-anchor="middle" x="735" y="-877.1" font-family="Courier,monospace" font-size="11.00">MonitoringReport</text>
</g>
<!-- \\AppModel -->
<g id="node33" class="node"><title>\\AppModel</title>
<ellipse fill="none" stroke="black" cx="62" cy="-1231" rx="62.2254" ry="18.3848"/>
<text text-anchor="middle" x="62" y="-1227.4" font-family="Times Roman,serif" font-size="14.00" fill="gray">\AppModel</text>
</g>
<!-- \\AppMonitoringModel&#45;&gt;\\AppModel -->
<g id="edge17" class="edge"><title>\\AppMonitoringModel&#45;&gt;\\AppModel</title>
<path fill="none" stroke="black" d="M293.945,-1231C246.143,-1231 182.655,-1231 134.187,-1231"/>
<polygon fill="none" stroke="black" points="134.084,-1227.5 124.084,-1231 134.084,-1234.5 134.084,-1227.5"/>
</g>
<!-- \\MonitoringLog -->
<g id="node12" class="node"><title>\\MonitoringLog</title>
<polygon fill="none" stroke="black" points="787,-1222 683,-1222 683,-1186 787,-1186 787,-1222"/>
<text text-anchor="middle" x="735" y="-1201.1" font-family="Courier,monospace" font-size="11.00">MonitoringLog</text>
</g>
<!-- \\MonitoringLog&#45;&gt;\\AppMonitoringModel -->
<g id="edge19" class="edge"><title>\\MonitoringLog&#45;&gt;\\AppMonitoringModel</title>
<path fill="none" stroke="black" d="M682.883,-1207.78C620.338,-1212.32 514.827,-1219.98 442.189,-1225.25"/>
<polygon fill="none" stroke="black" points="441.886,-1221.77 432.166,-1225.98 442.393,-1228.75 441.886,-1221.77"/>
</g>
<!-- \\MonitoringLogFixture -->
<g id="node13" class="node"><title>\\MonitoringLogFixture</title>
<polygon fill="none" stroke="black" points="811,-628 659,-628 659,-592 811,-592 811,-628"/>
<text text-anchor="middle" x="735" y="-607.1" font-family="Courier,monospace" font-size="11.00">MonitoringLogFixture</text>
</g>
<!-- \\CakeTestFixture -->
<g id="node36" class="node"><title>\\CakeTestFixture</title>
<ellipse fill="none" stroke="black" cx="363" cy="-126" rx="92.1303" ry="18.3848"/>
<text text-anchor="middle" x="363" y="-122.4" font-family="Times Roman,serif" font-size="14.00" fill="gray">\CakeTestFixture</text>
</g>
<!-- \\MonitoringLogFixture&#45;&gt;\\CakeTestFixture -->
<g id="edge21" class="edge"><title>\\MonitoringLogFixture&#45;&gt;\\CakeTestFixture</title>
<path fill="none" stroke="black" d="M658.689,-609.964C637.778,-606.201 616.816,-598.335 602,-583 467.358,-443.648 667.401,-289.632 530,-153 511.983,-135.083 487.07,-126.193 461.98,-122.274"/>
<polygon fill="none" stroke="black" points="462.365,-118.795 451.995,-120.967 461.456,-125.736 462.365,-118.795"/>
</g>
<!-- \\MonitoringFixture -->
<g id="node14" class="node"><title>\\MonitoringFixture</title>
<polygon fill="none" stroke="black" points="800,-574 670,-574 670,-538 800,-538 800,-574"/>
<text text-anchor="middle" x="735" y="-553.1" font-family="Courier,monospace" font-size="11.00">MonitoringFixture</text>
</g>
<!-- \\MonitoringFixture&#45;&gt;\\CakeTestFixture -->
<g id="edge23" class="edge"><title>\\MonitoringFixture&#45;&gt;\\CakeTestFixture</title>
<path fill="none" stroke="black" d="M669.269,-557.302C645.139,-554.366 619.479,-546.674 602,-529 482.356,-408.023 652.039,-271.561 530,-153 512.041,-135.553 487.522,-126.732 462.805,-122.726"/>
<polygon fill="none" stroke="black" points="462.975,-119.217 452.594,-121.335 462.03,-126.153 462.975,-119.217"/>
</g>
<!-- \\AllMonitoringTest -->
<g id="node15" class="node"><title>\\AllMonitoringTest</title>
<polygon fill="none" stroke="black" points="800,-520 670,-520 670,-484 800,-484 800,-520"/>
<text text-anchor="middle" x="735" y="-499.1" font-family="Courier,monospace" font-size="11.00">AllMonitoringTest</text>
</g>
<!-- \\PHPUnit_Framework_TestSuite -->
<g id="node39" class="node"><title>\\PHPUnit_Framework_TestSuite</title>
<ellipse fill="none" stroke="black" cx="363" cy="-72" rx="166.877" ry="18.3848"/>
<text text-anchor="middle" x="363" y="-68.4" font-family="Times Roman,serif" font-size="14.00" fill="gray">\PHPUnit_Framework_TestSuite</text>
</g>
<!-- \\AllMonitoringTest&#45;&gt;\\PHPUnit_Framework_TestSuite -->
<g id="edge25" class="edge"><title>\\AllMonitoringTest&#45;&gt;\\PHPUnit_Framework_TestSuite</title>
<path fill="none" stroke="black" d="M669.269,-503.302C645.139,-500.366 619.479,-492.674 602,-475 482.356,-354.023 652.039,-217.561 530,-99 525.046,-94.1875 519.594,-90.0313 513.775,-86.4515"/>
<polygon fill="none" stroke="black" points="515.451,-83.3786 505.005,-81.6097 512.068,-89.5068 515.451,-83.3786"/>
</g>
<!-- \\MonitoringRunTaskTest -->
<g id="node16" class="node"><title>\\MonitoringRunTaskTest</title>
<polygon fill="none" stroke="black" points="814,-466 656,-466 656,-430 814,-430 814,-466"/>
<text text-anchor="middle" x="735" y="-445.1" font-family="Courier,monospace" font-size="11.00">MonitoringRunTaskTest</text>
</g>
<!-- \\CakeTestCase -->
<g id="node41" class="node"><title>\\CakeTestCase</title>
<ellipse fill="none" stroke="black" cx="363" cy="-18" rx="82.0244" ry="18.3848"/>
<text text-anchor="middle" x="363" y="-14.4" font-family="Times Roman,serif" font-size="14.00" fill="gray">\CakeTestCase</text>
</g>
<!-- \\MonitoringRunTaskTest&#45;&gt;\\CakeTestCase -->
<g id="edge27" class="edge"><title>\\MonitoringRunTaskTest&#45;&gt;\\CakeTestCase</title>
<path fill="none" stroke="black" d="M655.794,-447.154C635.933,-443.181 616.248,-435.407 602,-421 482.356,-300.023 652.039,-163.561 530,-45 509.178,-24.7712 479.538,-16.1384 450.994,-13.1626"/>
<polygon fill="none" stroke="black" points="451.213,-9.66891 440.959,-12.3363 450.638,-16.6453 451.213,-9.66891"/>
</g>
<!-- \\MonitoringRunTaskTestCheckerTimeouted -->
<g id="node17" class="node"><title>\\MonitoringRunTaskTestCheckerTimeouted</title>
<polygon fill="none" stroke="black" points="868,-1168 602,-1168 602,-1132 868,-1132 868,-1168"/>
<text text-anchor="middle" x="735" y="-1147.1" font-family="Courier,monospace" font-size="11.00">MonitoringRunTaskTestCheckerTimeouted</text>
</g>
<!-- \\MonitoringRunTaskTestCheckerTimeouted&#45;&gt;\\MonitoringChecker -->
<g id="edge29" class="edge"><title>\\MonitoringRunTaskTestCheckerTimeouted&#45;&gt;\\MonitoringChecker</title>
<path fill="none" stroke="black" d="M638.768,-1131.97C626.34,-1129.2 613.829,-1126.19 602,-1123 538.882,-1105.97 468.143,-1081.27 420.112,-1063.63"/>
<polygon fill="none" stroke="black" points="421.112,-1060.27 410.518,-1060.09 418.688,-1066.84 421.112,-1060.27"/>
</g>
<!-- \\MonitoringRunTaskTestCheckerTrue -->
<g id="node18" class="node"><title>\\MonitoringRunTaskTestCheckerTrue</title>
<polygon fill="none" stroke="black" points="851,-1114 619,-1114 619,-1078 851,-1078 851,-1114"/>
<text text-anchor="middle" x="735" y="-1093.1" font-family="Courier,monospace" font-size="11.00">MonitoringRunTaskTestCheckerTrue</text>
</g>
<!-- \\MonitoringRunTaskTestCheckerTrue&#45;&gt;\\MonitoringChecker -->
<g id="edge31" class="edge"><title>\\MonitoringRunTaskTestCheckerTrue&#45;&gt;\\MonitoringChecker</title>
<path fill="none" stroke="black" d="M618.318,-1079.06C559.888,-1070.58 490.808,-1060.55 439.247,-1053.07"/>
<polygon fill="none" stroke="black" points="439.576,-1049.58 429.177,-1051.61 438.57,-1056.51 439.576,-1049.58"/>
</g>
<!-- \\MonitoringRunTaskTestCheckerFalse -->
<g id="node19" class="node"><title>\\MonitoringRunTaskTestCheckerFalse</title>
<polygon fill="none" stroke="black" points="854,-952 616,-952 616,-916 854,-916 854,-952"/>
<text text-anchor="middle" x="735" y="-931.1" font-family="Courier,monospace" font-size="11.00">MonitoringRunTaskTestCheckerFalse</text>
</g>
<!-- \\MonitoringRunTaskTestCheckerFalse&#45;&gt;\\MonitoringChecker -->
<g id="edge33" class="edge"><title>\\MonitoringRunTaskTestCheckerFalse&#45;&gt;\\MonitoringChecker</title>
<path fill="none" stroke="black" d="M624.394,-952.06C616.671,-954.652 609.13,-957.614 602,-961 564.629,-978.748 567.964,-1003.56 530,-1020 501.795,-1032.22 468.599,-1038.11 439.265,-1040.81"/>
<polygon fill="none" stroke="black" points="438.748,-1037.34 429.064,-1041.64 439.315,-1044.32 438.748,-1037.34"/>
</g>
<!-- \\MonitoringTest -->
<g id="node20" class="node"><title>\\MonitoringTest</title>
<polygon fill="none" stroke="black" points="790,-412 680,-412 680,-376 790,-376 790,-412"/>
<text text-anchor="middle" x="735" y="-391.1" font-family="Courier,monospace" font-size="11.00">MonitoringTest</text>
</g>
<!-- \\MonitoringTest&#45;&gt;\\CakeTestCase -->
<g id="edge35" class="edge"><title>\\MonitoringTest&#45;&gt;\\CakeTestCase</title>
<path fill="none" stroke="black" d="M679.367,-395.996C652.674,-393.964 622.188,-386.795 602,-367 497.29,-264.333 636.742,-145.553 530,-45 509.152,-25.3603 479.952,-16.7658 451.789,-13.6513"/>
<polygon fill="none" stroke="black" points="451.747,-10.1341 441.478,-12.7415 451.132,-17.107 451.747,-10.1341"/>
</g>
<!-- \\MonitoringReportTest -->
<g id="node21" class="node"><title>\\MonitoringReportTest</title>
<polygon fill="none" stroke="black" points="811,-358 659,-358 659,-322 811,-322 811,-358"/>
<text text-anchor="middle" x="735" y="-337.1" font-family="Courier,monospace" font-size="11.00">MonitoringReportTest</text>
</g>
<!-- \\MonitoringReportTest&#45;&gt;\\CakeTestCase -->
<g id="edge37" class="edge"><title>\\MonitoringReportTest&#45;&gt;\\CakeTestCase</title>
<path fill="none" stroke="black" d="M728.403,-321.985C708.097,-269.319 641.098,-114.946 530,-45 507.949,-31.1169 481.124,-23.6138 455.482,-19.7359"/>
<polygon fill="none" stroke="black" points="455.724,-16.2371 445.347,-18.3769 454.793,-23.175 455.724,-16.2371"/>
</g>
</g>
</svg>
