<?xml version="1.0" encoding="UTF-8" standalone="no"?>
<!DOCTYPE svg PUBLIC "-//W3C//DTD SVG 1.1//EN"
 "http://www.w3.org/Graphics/SVG/1.1/DTD/svg11.dtd">
<!-- Generated by graphviz version 2.26.3 (20100126.1600)
 -->
<!-- Title: G Pages: 1 -->
<svg width="892pt" height="1484pt"
 viewBox="0.00 0.00 892.00 1484.00" xmlns="http://www.w3.org/2000/svg" xmlns:xlink="http://www.w3.org/1999/xlink">
<g id="graph1" class="graph" transform="scale(1 1) rotate(0) translate(4 1480)">
<title>G</title>
<polygon fill="white" stroke="white" points="-4,5 -4,-1480 889,-1480 889,5 -4,5"/>
<g id="graph2" class="cluster"><title>cluster_Global</title>
<polyline fill="none" stroke="gray" points="298,-368 864,-368 "/>
<path fill="none" stroke="gray" d="M864,-368C870,-368 876,-374 876,-380"/>
<polyline fill="none" stroke="gray" points="876,-380 876,-1456 "/>
<path fill="none" stroke="gray" d="M876,-1456C876,-1462 870,-1468 864,-1468"/>
<polyline fill="none" stroke="gray" points="864,-1468 298,-1468 "/>
<path fill="none" stroke="gray" d="M298,-1468C292,-1468 286,-1462 286,-1456"/>
<polyline fill="none" stroke="gray" points="286,-1456 286,-380 "/>
<path fill="none" stroke="gray" d="M286,-380C286,-374 292,-368 298,-368"/>
<text text-anchor="middle" x="581" y="-1454.1" font-family="Times Roman,serif" font-size="11.00" fill="gray">Global</text>
</g>
<!-- \\MonitoringController -->
<g id="node2" class="node"><title>\\MonitoringController</title>
<polygon fill="none" stroke="black" points="811,-1006 659,-1006 659,-970 811,-970 811,-1006"/>
<text text-anchor="middle" x="735" y="-985.1" font-family="Courier,monospace" font-size="11.00">MonitoringController</text>
</g>
<!-- \\AppController -->
<g id="node25" class="node"><title>\\AppController</title>
<ellipse fill="none" stroke="black" cx="363" cy="-342" rx="82.0244" ry="18.3848"/>
<text text-anchor="middle" x="363" y="-338.4" font-family="Times Roman,serif" font-size="14.00" fill="gray">\AppController</text>
</g>
<!-- \\MonitoringController&#45;&gt;\\AppController -->
<g id="edge3" class="edge"><title>\\MonitoringController&#45;&gt;\\AppController</title>
<path fill="none" stroke="black" d="M658.937,-988.508C637.78,-984.811 616.62,-976.844 602,-961 420.756,-764.592 717.94,-554.011 530,-364 507.921,-341.678 474.988,-334.209 444.189,-333.062"/>
<polygon fill="none" stroke="black" points="443.898,-329.557 433.845,-332.903 443.79,-336.556 443.898,-329.557"/>
</g>
<!-- \\AppMonitoringModel -->
<g id="node3" class="node"><title>\\AppMonitoringModel</title>
<polygon fill="none" stroke="black" points="432,-1384 294,-1384 294,-1348 432,-1348 432,-1384"/>
<text text-anchor="middle" x="363" y="-1363.1" font-family="Courier,monospace" font-size="11.00">AppMonitoringModel</text>
</g>
<!-- \\AppModel -->
<g id="node27" class="node"><title>\\AppModel</title>
<ellipse fill="none" stroke="black" cx="62" cy="-1366" rx="62.2254" ry="18.3848"/>
<text text-anchor="middle" x="62" y="-1362.4" font-family="Times Roman,serif" font-size="14.00" fill="gray">\AppModel</text>
</g>
<!-- \\AppMonitoringModel&#45;&gt;\\AppModel -->
<g id="edge5" class="edge"><title>\\AppMonitoringModel&#45;&gt;\\AppModel</title>
<path fill="none" stroke="black" d="M293.945,-1366C246.143,-1366 182.655,-1366 134.187,-1366"/>
<polygon fill="none" stroke="black" points="134.084,-1362.5 124.084,-1366 134.084,-1369.5 134.084,-1362.5"/>
</g>
<!-- \\MonitoringLog -->
<g id="node4" class="node"><title>\\MonitoringLog</title>
<polygon fill="none" stroke="black" points="787,-1438 683,-1438 683,-1402 787,-1402 787,-1438"/>
<text text-anchor="middle" x="735" y="-1417.1" font-family="Courier,monospace" font-size="11.00">MonitoringLog</text>
</g>
<!-- \\MonitoringLog&#45;&gt;\\AppMonitoringModel -->
<g id="edge7" class="edge"><title>\\MonitoringLog&#45;&gt;\\AppMonitoringModel</title>
<path fill="none" stroke="black" d="M682.883,-1412.43C620.338,-1403.36 514.827,-1388.04 442.189,-1377.5"/>
<polygon fill="none" stroke="black" points="442.565,-1374.01 432.166,-1376.04 441.56,-1380.94 442.565,-1374.01"/>
</g>
<!-- \\Monitoring -->
<g id="node5" class="node"><title>\\Monitoring</title>
<polygon fill="none" stroke="black" points="777,-1384 693,-1384 693,-1348 777,-1348 777,-1384"/>
<text text-anchor="middle" x="735" y="-1363.1" font-family="Courier,monospace" font-size="11.00">Monitoring</text>
</g>
<!-- \\Monitoring&#45;&gt;\\AppMonitoringModel -->
<g id="edge9" class="edge"><title>\\Monitoring&#45;&gt;\\AppMonitoringModel</title>
<path fill="none" stroke="black" d="M692.689,-1366C631.909,-1366 518.789,-1366 442.204,-1366"/>
<polygon fill="none" stroke="black" points="442.118,-1362.5 432.118,-1366 442.118,-1369.5 442.118,-1362.5"/>
</g>
<!-- \\MonitoringReport -->
<g id="node6" class="node"><title>\\MonitoringReport</title>
<polygon fill="none" stroke="black" points="797,-1330 673,-1330 673,-1294 797,-1294 797,-1330"/>
<text text-anchor="middle" x="735" y="-1309.1" font-family="Courier,monospace" font-size="11.00">MonitoringReport</text>
</g>
<!-- \\MonitoringReport&#45;&gt;\\AppMonitoringModel -->
<g id="edge11" class="edge"><title>\\MonitoringReport&#45;&gt;\\AppMonitoringModel</title>
<path fill="none" stroke="black" d="M672.316,-1321.1C608.964,-1330.3 510.874,-1344.53 442.185,-1354.51"/>
<polygon fill="none" stroke="black" points="441.665,-1351.04 432.271,-1355.94 442.67,-1357.97 441.665,-1351.04"/>
</g>
<!-- \\MonitoringControllerTest -->
<g id="node7" class="node"><title>\\MonitoringControllerTest</title>
<polygon fill="none" stroke="black" points="824,-952 646,-952 646,-916 824,-916 824,-952"/>
<text text-anchor="middle" x="735" y="-931.1" font-family="Courier,monospace" font-size="11.00">MonitoringControllerTest</text>
</g>
<!-- \\ControllerTestCase -->
<g id="node32" class="node"><title>\\ControllerTestCase</title>
<ellipse fill="none" stroke="black" cx="363" cy="-288" rx="106.773" ry="18.3848"/>
<text text-anchor="middle" x="363" y="-284.4" font-family="Times Roman,serif" font-size="14.00" fill="gray">\ControllerTestCase</text>
</g>
<!-- \\MonitoringControllerTest&#45;&gt;\\ControllerTestCase -->
<g id="edge13" class="edge"><title>\\MonitoringControllerTest&#45;&gt;\\ControllerTestCase</title>
<path fill="none" stroke="black" d="M645.483,-931.518C629.067,-927.049 613.511,-919.461 602,-907 422.154,-712.303 713.703,-506.061 530,-315 516.156,-300.602 497.882,-291.948 478.507,-287.003"/>
<polygon fill="none" stroke="black" points="479.131,-283.556 468.61,-284.804 477.613,-290.389 479.131,-283.556"/>
</g>
<!-- \\MonitoringReportTest -->
<g id="node8" class="node"><title>\\MonitoringReportTest</title>
<polygon fill="none" stroke="black" points="811,-898 659,-898 659,-862 811,-862 811,-898"/>
<text text-anchor="middle" x="735" y="-877.1" font-family="Courier,monospace" font-size="11.00">MonitoringReportTest</text>
</g>
<!-- \\CakeTestCase -->
<g id="node34" class="node"><title>\\CakeTestCase</title>
<ellipse fill="none" stroke="black" cx="363" cy="-234" rx="82.0244" ry="18.3848"/>
<text text-anchor="middle" x="363" y="-230.4" font-family="Times Roman,serif" font-size="14.00" fill="gray">\CakeTestCase</text>
</g>
<!-- \\MonitoringReportTest&#45;&gt;\\CakeTestCase -->
<g id="edge15" class="edge"><title>\\MonitoringReportTest&#45;&gt;\\CakeTestCase</title>
<path fill="none" stroke="black" d="M658.947,-880.499C637.79,-876.801 616.628,-868.836 602,-853 422.154,-658.303 713.703,-452.061 530,-261 509.424,-239.6 479.06,-230.89 449.846,-228.185"/>
<polygon fill="none" stroke="black" points="449.798,-224.673 439.579,-227.468 449.311,-231.656 449.798,-224.673"/>
</g>
<!-- \\MonitoringTest -->
<g id="node9" class="node"><title>\\MonitoringTest</title>
<polygon fill="none" stroke="black" points="790,-844 680,-844 680,-808 790,-808 790,-844"/>
<text text-anchor="middle" x="735" y="-823.1" font-family="Courier,monospace" font-size="11.00">MonitoringTest</text>
</g>
<!-- \\MonitoringTest&#45;&gt;\\CakeTestCase -->
<g id="edge17" class="edge"><title>\\MonitoringTest&#45;&gt;\\CakeTestCase</title>
<path fill="none" stroke="black" d="M679.294,-828.768C652.247,-826.996 621.47,-819.825 602,-799 437.247,-622.777 698.244,-433.893 530,-261 509.387,-239.818 479.174,-231.117 450.093,-228.358"/>
<polygon fill="none" stroke="black" points="450.098,-224.849 439.872,-227.619 449.593,-231.831 450.098,-224.849"/>
</g>
<!-- \\AllMonitoringTest -->
<g id="node10" class="node"><title>\\AllMonitoringTest</title>
<polygon fill="none" stroke="black" points="800,-682 670,-682 670,-646 800,-646 800,-682"/>
<text text-anchor="middle" x="735" y="-661.1" font-family="Courier,monospace" font-size="11.00">AllMonitoringTest</text>
</g>
<!-- \\PHPUnit_Framework_TestSuite -->
<g id="node37" class="node"><title>\\PHPUnit_Framework_TestSuite</title>
<ellipse fill="none" stroke="black" cx="363" cy="-180" rx="166.877" ry="18.3848"/>
<text text-anchor="middle" x="363" y="-176.4" font-family="Times Roman,serif" font-size="14.00" fill="gray">\PHPUnit_Framework_TestSuite</text>
</g>
<!-- \\AllMonitoringTest&#45;&gt;\\PHPUnit_Framework_TestSuite -->
<g id="edge19" class="edge"><title>\\AllMonitoringTest&#45;&gt;\\PHPUnit_Framework_TestSuite</title>
<path fill="none" stroke="black" d="M669.398,-665.553C645.139,-662.677 619.354,-654.961 602,-637 467.358,-497.648 667.401,-343.632 530,-207 525.285,-202.311 520.098,-198.241 514.559,-194.716"/>
<polygon fill="none" stroke="black" points="516.006,-191.512 505.582,-189.615 512.547,-197.599 516.006,-191.512"/>
</g>
<!-- \\MonitoringRunTaskTest -->
<g id="node11" class="node"><title>\\MonitoringRunTaskTest</title>
<polygon fill="none" stroke="black" points="814,-790 656,-790 656,-754 814,-754 814,-790"/>
<text text-anchor="middle" x="735" y="-769.1" font-family="Courier,monospace" font-size="11.00">MonitoringRunTaskTest</text>
</g>
<!-- \\MonitoringRunTaskTest&#45;&gt;\\CakeTestCase -->
<g id="edge21" class="edge"><title>\\MonitoringRunTaskTest&#45;&gt;\\CakeTestCase</title>
<path fill="none" stroke="black" d="M655.74,-771.61C635.76,-767.661 616.027,-759.785 602,-745 452.317,-587.228 682.808,-415.747 530,-261 509.325,-240.063 479.255,-231.378 450.31,-228.563"/>
<polygon fill="none" stroke="black" points="450.369,-225.057 440.136,-227.801 449.847,-232.038 450.369,-225.057"/>
</g>
<!-- \\MonitoringRunTaskTestCheckerTimeouted -->
<g id="node12" class="node"><title>\\MonitoringRunTaskTestCheckerTimeouted</title>
<polygon fill="none" stroke="black" points="868,-1276 602,-1276 602,-1240 868,-1240 868,-1276"/>
<text text-anchor="middle" x="735" y="-1255.1" font-family="Courier,monospace" font-size="11.00">MonitoringRunTaskTestCheckerTimeouted</text>
</g>
<!-- \\MonitoringChecker -->
<g id="node18" class="node"><title>\\MonitoringChecker</title>
<polygon fill="none" stroke="black" points="429,-1168 297,-1168 297,-1132 429,-1132 429,-1168"/>
<text text-anchor="start" x="329" y="-1155.43" font-family="Courier,monospace" font-size="11.00">«abstract»</text>
<text text-anchor="start" x="305.5" y="-1142.23" font-family="Courier,monospace" font-size="11.00">MonitoringChecker</text>
</g>
<!-- \\MonitoringRunTaskTestCheckerTimeouted&#45;&gt;\\MonitoringChecker -->
<g id="edge23" class="edge"><title>\\MonitoringRunTaskTestCheckerTimeouted&#45;&gt;\\MonitoringChecker</title>
<path fill="none" stroke="black" d="M638.768,-1239.97C626.34,-1237.2 613.829,-1234.19 602,-1231 538.882,-1213.97 468.143,-1189.27 420.112,-1171.63"/>
<polygon fill="none" stroke="black" points="421.112,-1168.27 410.518,-1168.09 418.688,-1174.84 421.112,-1168.27"/>
</g>
<!-- \\MonitoringRunTaskTestCheckerTrue -->
<g id="node13" class="node"><title>\\MonitoringRunTaskTestCheckerTrue</title>
<polygon fill="none" stroke="black" points="851,-1222 619,-1222 619,-1186 851,-1186 851,-1222"/>
<text text-anchor="middle" x="735" y="-1201.1" font-family="Courier,monospace" font-size="11.00">MonitoringRunTaskTestCheckerTrue</text>
</g>
<!-- \\MonitoringRunTaskTestCheckerTrue&#45;&gt;\\MonitoringChecker -->
<g id="edge25" class="edge"><title>\\MonitoringRunTaskTestCheckerTrue&#45;&gt;\\MonitoringChecker</title>
<path fill="none" stroke="black" d="M618.318,-1187.06C559.888,-1178.58 490.808,-1168.55 439.247,-1161.07"/>
<polygon fill="none" stroke="black" points="439.576,-1157.58 429.177,-1159.61 438.57,-1164.51 439.576,-1157.58"/>
</g>
<!-- \\MonitoringRunTaskTestCheckerFalse -->
<g id="node14" class="node"><title>\\MonitoringRunTaskTestCheckerFalse</title>
<polygon fill="none" stroke="black" points="854,-1168 616,-1168 616,-1132 854,-1132 854,-1168"/>
<text text-anchor="middle" x="735" y="-1147.1" font-family="Courier,monospace" font-size="11.00">MonitoringRunTaskTestCheckerFalse</text>
</g>
<!-- \\MonitoringRunTaskTestCheckerFalse&#45;&gt;\\MonitoringChecker -->
<g id="edge27" class="edge"><title>\\MonitoringRunTaskTestCheckerFalse&#45;&gt;\\MonitoringChecker</title>
<path fill="none" stroke="black" d="M615.249,-1150C557.525,-1150 490.008,-1150 439.359,-1150"/>
<polygon fill="none" stroke="black" points="439.139,-1146.5 429.139,-1150 439.139,-1153.5 439.139,-1146.5"/>
</g>
<!-- \\MonitoringUpdateTaskTest -->
<g id="node15" class="node"><title>\\MonitoringUpdateTaskTest</title>
<polygon fill="none" stroke="black" points="824,-736 646,-736 646,-700 824,-700 824,-736"/>
<text text-anchor="middle" x="735" y="-715.1" font-family="Courier,monospace" font-size="11.00">MonitoringUpdateTaskTest</text>
</g>
<!-- \\MonitoringUpdateTaskTest&#45;&gt;\\CakeTestCase -->
<g id="edge29" class="edge"><title>\\MonitoringUpdateTaskTest&#45;&gt;\\CakeTestCase</title>
<path fill="none" stroke="black" d="M645.227,-714.927C629.03,-710.465 613.624,-703.03 602,-691 467.358,-551.648 667.401,-397.632 530,-261 509.228,-240.345 479.293,-231.686 450.486,-228.811"/>
<polygon fill="none" stroke="black" points="450.602,-225.31 440.361,-228.025 450.061,-232.289 450.602,-225.31"/>
</g>
<!-- \\MonitoringLogFixture -->
<g id="node16" class="node"><title>\\MonitoringLogFixture</title>
<polygon fill="none" stroke="black" points="811,-628 659,-628 659,-592 811,-592 811,-628"/>
<text text-anchor="middle" x="735" y="-607.1" font-family="Courier,monospace" font-size="11.00">MonitoringLogFixture</text>
</g>
<!-- \\CakeTestFixture -->
<g id="node44" class="node"><title>\\CakeTestFixture</title>
<ellipse fill="none" stroke="black" cx="363" cy="-126" rx="92.1303" ry="18.3848"/>
<text text-anchor="middle" x="363" y="-122.4" font-family="Times Roman,serif" font-size="14.00" fill="gray">\CakeTestFixture</text>
</g>
<!-- \\MonitoringLogFixture&#45;&gt;\\CakeTestFixture -->
<g id="edge31" class="edge"><title>\\MonitoringLogFixture&#45;&gt;\\CakeTestFixture</title>
<path fill="none" stroke="black" d="M658.689,-609.964C637.778,-606.201 616.816,-598.335 602,-583 467.358,-443.648 667.401,-289.632 530,-153 511.983,-135.083 487.07,-126.193 461.98,-122.274"/>
<polygon fill="none" stroke="black" points="462.365,-118.795 451.995,-120.967 461.456,-125.736 462.365,-118.795"/>
</g>
<!-- \\MonitoringFixture -->
<g id="node17" class="node"><title>\\MonitoringFixture</title>
<polygon fill="none" stroke="black" points="800,-574 670,-574 670,-538 800,-538 800,-574"/>
<text text-anchor="middle" x="735" y="-553.1" font-family="Courier,monospace" font-size="11.00">MonitoringFixture</text>
</g>
<!-- \\MonitoringFixture&#45;&gt;\\CakeTestFixture -->
<g id="edge33" class="edge"><title>\\MonitoringFixture&#45;&gt;\\CakeTestFixture</title>
<path fill="none" stroke="black" d="M669.269,-557.302C645.139,-554.366 619.479,-546.674 602,-529 482.356,-408.023 652.039,-271.561 530,-153 512.041,-135.553 487.522,-126.732 462.805,-122.726"/>
<polygon fill="none" stroke="black" points="462.975,-119.217 452.594,-121.335 462.03,-126.153 462.975,-119.217"/>
</g>
<!-- \\MonitoringSelfFailCheck -->
<g id="node19" class="node"><title>\\MonitoringSelfFailCheck</title>
<polygon fill="none" stroke="black" points="821,-1114 649,-1114 649,-1078 821,-1078 821,-1114"/>
<text text-anchor="middle" x="735" y="-1093.1" font-family="Courier,monospace" font-size="11.00">MonitoringSelfFailCheck</text>
</g>
<!-- \\MonitoringSelfFailCheck&#45;&gt;\\MonitoringChecker -->
<g id="edge35" class="edge"><title>\\MonitoringSelfFailCheck&#45;&gt;\\MonitoringChecker</title>
<path fill="none" stroke="black" d="M648.79,-1109.93C612.19,-1115.72 569.041,-1122.38 530,-1128 500.482,-1132.25 467.982,-1136.6 439.559,-1140.3"/>
<polygon fill="none" stroke="black" points="438.751,-1136.88 429.284,-1141.64 439.652,-1143.82 438.751,-1136.88"/>
</g>
<!-- \\MonitoringSelfCheck -->
<g id="node20" class="node"><title>\\MonitoringSelfCheck</title>
<polygon fill="none" stroke="black" points="807,-1060 663,-1060 663,-1024 807,-1024 807,-1060"/>
<text text-anchor="middle" x="735" y="-1039.1" font-family="Courier,monospace" font-size="11.00">MonitoringSelfCheck</text>
</g>
<!-- \\MonitoringSelfCheck&#45;&gt;\\MonitoringChecker -->
<g id="edge37" class="edge"><title>\\MonitoringSelfCheck&#45;&gt;\\MonitoringChecker</title>
<path fill="none" stroke="black" d="M662.195,-1050.2C642.053,-1054.2 620.623,-1060.16 602,-1069 564.629,-1086.75 567.964,-1111.56 530,-1128 501.795,-1140.22 468.599,-1146.11 439.265,-1148.81"/>
<polygon fill="none" stroke="black" points="438.748,-1145.34 429.064,-1149.64 439.315,-1152.32 438.748,-1145.34"/>
</g>
<!-- \\MonitoringShell -->
<g id="node21" class="node"><title>\\MonitoringShell</title>
<polygon fill="none" stroke="black" points="794,-520 676,-520 676,-484 794,-484 794,-520"/>
<text text-anchor="middle" x="735" y="-499.1" font-family="Courier,monospace" font-size="11.00">MonitoringShell</text>
</g>
<!-- \\AdvancedShell -->
<g id="node49" class="node"><title>\\AdvancedShell</title>
<ellipse fill="none" stroke="black" cx="363" cy="-72" rx="85.7684" ry="18.3848"/>
<text text-anchor="middle" x="363" y="-68.4" font-family="Times Roman,serif" font-size="14.00" fill="gray">\AdvancedShell</text>
</g>
<!-- \\MonitoringShell&#45;&gt;\\AdvancedShell -->
<g id="edge39" class="edge"><title>\\MonitoringShell&#45;&gt;\\AdvancedShell</title>
<path fill="none" stroke="black" d="M675.744,-503.983C649.827,-501.67 621.053,-494.265 602,-475 482.356,-354.023 652.039,-217.561 530,-99 510.387,-79.9459 482.951,-71.1801 455.976,-67.7395"/>
<polygon fill="none" stroke="black" points="455.985,-64.2217 445.677,-66.6712 455.263,-71.1844 455.985,-64.2217"/>
</g>
<!-- \\MonitoringRunTask -->
<g id="node22" class="node"><title>\\MonitoringRunTask</title>
<polygon fill="none" stroke="black" points="800,-466 670,-466 670,-430 800,-430 800,-466"/>
<text text-anchor="middle" x="735" y="-445.1" font-family="Courier,monospace" font-size="11.00">MonitoringRunTask</text>
</g>
<!-- \\AdvancedTask -->
<g id="node51" class="node"><title>\\AdvancedTask</title>
<ellipse fill="none" stroke="black" cx="363" cy="-18" rx="82.939" ry="18.3848"/>
<text text-anchor="middle" x="363" y="-14.4" font-family="Times Roman,serif" font-size="14.00" fill="gray">\AdvancedTask</text>
</g>
<!-- \\MonitoringRunTask&#45;&gt;\\AdvancedTask -->
<g id="edge41" class="edge"><title>\\MonitoringRunTask&#45;&gt;\\AdvancedTask</title>
<path fill="none" stroke="black" d="M669.269,-449.302C645.139,-446.366 619.479,-438.674 602,-421 482.356,-300.023 652.039,-163.561 530,-45 509.644,-25.224 480.861,-16.5307 452.912,-13.3711"/>
<polygon fill="none" stroke="black" points="452.945,-9.85984 442.671,-12.4471 452.316,-16.8315 452.945,-9.85984"/>
</g>
<!-- \\MonitoringUpdateTask -->
<g id="node23" class="node"><title>\\MonitoringUpdateTask</title>
<polygon fill="none" stroke="black" points="811,-412 659,-412 659,-376 811,-376 811,-412"/>
<text text-anchor="middle" x="735" y="-391.1" font-family="Courier,monospace" font-size="11.00">MonitoringUpdateTask</text>
</g>
<!-- \\MonitoringUpdateTask&#45;&gt;\\AdvancedTask -->
<g id="edge43" class="edge"><title>\\MonitoringUpdateTask&#45;&gt;\\AdvancedTask</title>
<path fill="none" stroke="black" d="M730.279,-375.757C713.977,-316.739 654.112,-129.909 530,-45 508.601,-30.3602 482.101,-22.6066 456.563,-18.7307"/>
<polygon fill="none" stroke="black" points="456.832,-15.2358 446.458,-17.3852 455.908,-22.1745 456.832,-15.2358"/>
</g>
</g>
</svg>
