<?xml version="1.0" encoding="UTF-8" standalone="no"?>
<!DOCTYPE svg PUBLIC "-//W3C//DTD SVG 1.1//EN"
 "http://www.w3.org/Graphics/SVG/1.1/DTD/svg11.dtd">
<!-- Generated by graphviz version 2.26.3 (20100126.1600)
 -->
<!-- Title: G Pages: 1 -->
<svg width="892pt" height="1322pt"
 viewBox="0.00 0.00 892.00 1322.00" xmlns="http://www.w3.org/2000/svg" xmlns:xlink="http://www.w3.org/1999/xlink">
<g id="graph1" class="graph" transform="scale(1 1) rotate(0) translate(4 1318)">
<title>G</title>
<polygon fill="white" stroke="white" points="-4,5 -4,-1318 889,-1318 889,5 -4,5"/>
<g id="graph2" class="cluster"><title>cluster_Global</title>
<polyline fill="none" stroke="gray" points="298,-314 864,-314 "/>
<path fill="none" stroke="gray" d="M864,-314C870,-314 876,-320 876,-326"/>
<polyline fill="none" stroke="gray" points="876,-326 876,-1294 "/>
<path fill="none" stroke="gray" d="M876,-1294C876,-1300 870,-1306 864,-1306"/>
<polyline fill="none" stroke="gray" points="864,-1306 298,-1306 "/>
<path fill="none" stroke="gray" d="M298,-1306C292,-1306 286,-1300 286,-1294"/>
<polyline fill="none" stroke="gray" points="286,-1294 286,-326 "/>
<path fill="none" stroke="gray" d="M286,-326C286,-320 292,-314 298,-314"/>
<text text-anchor="middle" x="581" y="-1292.1" font-family="Times Roman,serif" font-size="11.00" fill="gray">Global</text>
</g>
<!-- \\MonitoringSelfFailCheck -->
<g id="node2" class="node"><title>\\MonitoringSelfFailCheck</title>
<polygon fill="none" stroke="black" points="821,-1114 649,-1114 649,-1078 821,-1078 821,-1114"/>
<text text-anchor="middle" x="735" y="-1093.1" font-family="Courier,monospace" font-size="11.00">MonitoringSelfFailCheck</text>
</g>
<!-- \\MonitoringChecker -->
<g id="node3" class="node"><title>\\MonitoringChecker</title>
<polygon fill="none" stroke="black" points="429,-1168 297,-1168 297,-1132 429,-1132 429,-1168"/>
<text text-anchor="start" x="329" y="-1155.43" font-family="Courier,monospace" font-size="11.00">«abstract»</text>
<text text-anchor="start" x="305.5" y="-1142.23" font-family="Courier,monospace" font-size="11.00">MonitoringChecker</text>
</g>
<!-- \\MonitoringSelfFailCheck&#45;&gt;\\MonitoringChecker -->
<g id="edge3" class="edge"><title>\\MonitoringSelfFailCheck&#45;&gt;\\MonitoringChecker</title>
<path fill="none" stroke="black" d="M648.721,-1108.52C585.286,-1117.73 499.882,-1130.13 439.008,-1138.97"/>
<polygon fill="none" stroke="black" points="438.471,-1135.51 429.077,-1140.41 439.477,-1142.44 438.471,-1135.51"/>
</g>
<!-- \\MonitoringSelfCheck -->
<g id="node4" class="node"><title>\\MonitoringSelfCheck</title>
<polygon fill="none" stroke="black" points="807,-1060 663,-1060 663,-1024 807,-1024 807,-1060"/>
<text text-anchor="middle" x="735" y="-1039.1" font-family="Courier,monospace" font-size="11.00">MonitoringSelfCheck</text>
</g>
<!-- \\MonitoringSelfCheck&#45;&gt;\\MonitoringChecker -->
<g id="edge5" class="edge"><title>\\MonitoringSelfCheck&#45;&gt;\\MonitoringChecker</title>
<path fill="none" stroke="black" d="M662.479,-1054.99C642.743,-1059 621.449,-1063.75 602,-1069 538.882,-1086.03 468.143,-1110.73 420.112,-1128.37"/>
<polygon fill="none" stroke="black" points="418.688,-1125.16 410.518,-1131.91 421.112,-1131.73 418.688,-1125.16"/>
</g>
<!-- \\MonitoringController -->
<g id="node5" class="node"><title>\\MonitoringController</title>
<polygon fill="none" stroke="black" points="811,-898 659,-898 659,-862 811,-862 811,-898"/>
<text text-anchor="middle" x="735" y="-877.1" font-family="Courier,monospace" font-size="11.00">MonitoringController</text>
</g>
<!-- \\AppController -->
<g id="node25" class="node"><title>\\AppController</title>
<ellipse fill="none" stroke="black" cx="363" cy="-288" rx="82.0244" ry="18.3848"/>
<text text-anchor="middle" x="363" y="-284.4" font-family="Times Roman,serif" font-size="14.00" fill="gray">\AppController</text>
</g>
<!-- \\MonitoringController&#45;&gt;\\AppController -->
<g id="edge7" class="edge"><title>\\MonitoringController&#45;&gt;\\AppController</title>
<path fill="none" stroke="black" d="M658.706,-880.34C637.669,-876.612 616.633,-868.671 602,-853 435.85,-675.068 702.215,-482.069 530,-310 507.883,-287.901 475.111,-280.424 444.443,-279.209"/>
<polygon fill="none" stroke="black" points="444.202,-275.704 434.141,-279.025 444.077,-282.703 444.202,-275.704"/>
</g>
<!-- \\MonitoringRunTask -->
<g id="node6" class="node"><title>\\MonitoringRunTask</title>
<polygon fill="none" stroke="black" points="800,-844 670,-844 670,-808 800,-808 800,-844"/>
<text text-anchor="middle" x="735" y="-823.1" font-family="Courier,monospace" font-size="11.00">MonitoringRunTask</text>
</g>
<!-- \\AdvancedTask -->
<g id="node27" class="node"><title>\\AdvancedTask</title>
<ellipse fill="none" stroke="black" cx="363" cy="-234" rx="82.939" ry="18.3848"/>
<text text-anchor="middle" x="363" y="-230.4" font-family="Times Roman,serif" font-size="14.00" fill="gray">\AdvancedTask</text>
</g>
<!-- \\MonitoringRunTask&#45;&gt;\\AdvancedTask -->
<g id="edge9" class="edge"><title>\\MonitoringRunTask&#45;&gt;\\AdvancedTask</title>
<path fill="none" stroke="black" d="M669.436,-827.884C645.033,-825.081 619.137,-817.33 602,-799 437.247,-622.777 698.244,-433.893 530,-261 509.754,-240.195 480.245,-231.43 451.645,-228.511"/>
<polygon fill="none" stroke="black" points="451.829,-225.014 441.584,-227.712 451.275,-231.992 451.829,-225.014"/>
</g>
<!-- \\MonitoringUpdateTask -->
<g id="node7" class="node"><title>\\MonitoringUpdateTask</title>
<polygon fill="none" stroke="black" points="811,-790 659,-790 659,-754 811,-754 811,-790"/>
<text text-anchor="middle" x="735" y="-769.1" font-family="Courier,monospace" font-size="11.00">MonitoringUpdateTask</text>
</g>
<!-- \\MonitoringUpdateTask&#45;&gt;\\AdvancedTask -->
<g id="edge11" class="edge"><title>\\MonitoringUpdateTask&#45;&gt;\\AdvancedTask</title>
<path fill="none" stroke="black" d="M658.86,-772.194C637.828,-768.462 616.757,-760.554 602,-745 452.317,-587.228 682.808,-415.747 530,-261 509.694,-240.437 480.326,-231.692 451.862,-228.719"/>
<polygon fill="none" stroke="black" points="452.1,-225.227 441.848,-227.898 451.528,-232.204 452.1,-225.227"/>
</g>
<!-- \\MonitoringShell -->
<g id="node8" class="node"><title>\\MonitoringShell</title>
<polygon fill="none" stroke="black" points="794,-736 676,-736 676,-700 794,-700 794,-736"/>
<text text-anchor="middle" x="735" y="-715.1" font-family="Courier,monospace" font-size="11.00">MonitoringShell</text>
</g>
<!-- \\AdvancedShell -->
<g id="node30" class="node"><title>\\AdvancedShell</title>
<ellipse fill="none" stroke="black" cx="363" cy="-180" rx="85.7684" ry="18.3848"/>
<text text-anchor="middle" x="363" y="-176.4" font-family="Times Roman,serif" font-size="14.00" fill="gray">\AdvancedShell</text>
</g>
<!-- \\MonitoringShell&#45;&gt;\\AdvancedShell -->
<g id="edge13" class="edge"><title>\\MonitoringShell&#45;&gt;\\AdvancedShell</title>
<path fill="none" stroke="black" d="M675.715,-720.368C649.632,-718.166 620.73,-710.742 602,-691 452.317,-533.228 682.808,-361.747 530,-207 510.426,-187.178 482.432,-178.338 454.943,-175.063"/>
<polygon fill="none" stroke="black" points="455.143,-171.567 444.855,-174.099 454.476,-178.535 455.143,-171.567"/>
</g>
<!-- \\MonitoringLogFixture -->
<g id="node9" class="node"><title>\\MonitoringLogFixture</title>
<polygon fill="none" stroke="black" points="811,-682 659,-682 659,-646 811,-646 811,-682"/>
<text text-anchor="middle" x="735" y="-661.1" font-family="Courier,monospace" font-size="11.00">MonitoringLogFixture</text>
</g>
<!-- \\CakeTestFixture -->
<g id="node32" class="node"><title>\\CakeTestFixture</title>
<ellipse fill="none" stroke="black" cx="363" cy="-126" rx="92.1303" ry="18.3848"/>
<text text-anchor="middle" x="363" y="-122.4" font-family="Times Roman,serif" font-size="14.00" fill="gray">\CakeTestFixture</text>
</g>
<!-- \\MonitoringLogFixture&#45;&gt;\\CakeTestFixture -->
<g id="edge15" class="edge"><title>\\MonitoringLogFixture&#45;&gt;\\CakeTestFixture</title>
<path fill="none" stroke="black" d="M658.86,-664.194C637.828,-660.462 616.757,-652.554 602,-637 452.317,-479.228 682.808,-307.747 530,-153 512.056,-134.828 487.033,-125.886 461.812,-122"/>
<polygon fill="none" stroke="black" points="462.138,-118.513 451.774,-120.71 461.246,-125.456 462.138,-118.513"/>
</g>
<!-- \\MonitoringFixture -->
<g id="node10" class="node"><title>\\MonitoringFixture</title>
<polygon fill="none" stroke="black" points="800,-628 670,-628 670,-592 800,-592 800,-628"/>
<text text-anchor="middle" x="735" y="-607.1" font-family="Courier,monospace" font-size="11.00">MonitoringFixture</text>
</g>
<!-- \\MonitoringFixture&#45;&gt;\\CakeTestFixture -->
<g id="edge17" class="edge"><title>\\MonitoringFixture&#45;&gt;\\CakeTestFixture</title>
<path fill="none" stroke="black" d="M669.398,-611.553C645.139,-608.677 619.354,-600.961 602,-583 467.358,-443.648 667.401,-289.632 530,-153 511.983,-135.083 487.07,-126.193 461.98,-122.274"/>
<polygon fill="none" stroke="black" points="462.365,-118.795 451.995,-120.967 461.456,-125.736 462.365,-118.795"/>
</g>
<!-- \\AllMonitoringTest -->
<g id="node11" class="node"><title>\\AllMonitoringTest</title>
<polygon fill="none" stroke="black" points="800,-574 670,-574 670,-538 800,-538 800,-574"/>
<text text-anchor="middle" x="735" y="-553.1" font-family="Courier,monospace" font-size="11.00">AllMonitoringTest</text>
</g>
<!-- \\PHPUnit_Framework_TestSuite -->
<g id="node35" class="node"><title>\\PHPUnit_Framework_TestSuite</title>
<ellipse fill="none" stroke="black" cx="363" cy="-72" rx="166.877" ry="18.3848"/>
<text text-anchor="middle" x="363" y="-68.4" font-family="Times Roman,serif" font-size="14.00" fill="gray">\PHPUnit_Framework_TestSuite</text>
</g>
<!-- \\AllMonitoringTest&#45;&gt;\\PHPUnit_Framework_TestSuite -->
<g id="edge19" class="edge"><title>\\AllMonitoringTest&#45;&gt;\\PHPUnit_Framework_TestSuite</title>
<path fill="none" stroke="black" d="M669.398,-557.553C645.139,-554.677 619.354,-546.961 602,-529 467.358,-389.648 667.401,-235.632 530,-99 525.285,-94.3113 520.098,-90.2408 514.559,-86.7158"/>
<polygon fill="none" stroke="black" points="516.006,-83.5125 505.582,-81.615 512.547,-89.5986 516.006,-83.5125"/>
</g>
<!-- \\MonitoringRunTaskTest -->
<g id="node12" class="node"><title>\\MonitoringRunTaskTest</title>
<polygon fill="none" stroke="black" points="814,-412 656,-412 656,-376 814,-376 814,-412"/>
<text text-anchor="middle" x="735" y="-391.1" font-family="Courier,monospace" font-size="11.00">MonitoringRunTaskTest</text>
</g>
<!-- \\CakeTestCase -->
<g id="node37" class="node"><title>\\CakeTestCase</title>
<ellipse fill="none" stroke="black" cx="363" cy="-18" rx="82.0244" ry="18.3848"/>
<text text-anchor="middle" x="363" y="-14.4" font-family="Times Roman,serif" font-size="14.00" fill="gray">\CakeTestCase</text>
</g>
<!-- \\MonitoringRunTaskTest&#45;&gt;\\CakeTestCase -->
<g id="edge21" class="edge"><title>\\MonitoringRunTaskTest&#45;&gt;\\CakeTestCase</title>
<path fill="none" stroke="black" d="M655.738,-392.792C635.996,-388.798 616.384,-381.104 602,-367 497.29,-264.333 636.742,-145.553 530,-45 509.152,-25.3603 479.952,-16.7658 451.789,-13.6513"/>
<polygon fill="none" stroke="black" points="451.747,-10.1341 441.478,-12.7415 451.132,-17.107 451.747,-10.1341"/>
</g>
<!-- \\MonitoringRunTaskTestCheckerTimeouted -->
<g id="node13" class="node"><title>\\MonitoringRunTaskTestCheckerTimeouted</title>
<polygon fill="none" stroke="black" points="868,-1276 602,-1276 602,-1240 868,-1240 868,-1276"/>
<text text-anchor="middle" x="735" y="-1255.1" font-family="Courier,monospace" font-size="11.00">MonitoringRunTaskTestCheckerTimeouted</text>
</g>
<!-- \\MonitoringRunTaskTestCheckerTimeouted&#45;&gt;\\MonitoringChecker -->
<g id="edge23" class="edge"><title>\\MonitoringRunTaskTestCheckerTimeouted&#45;&gt;\\MonitoringChecker</title>
<path fill="none" stroke="black" d="M638.768,-1239.97C626.34,-1237.2 613.829,-1234.19 602,-1231 538.882,-1213.97 468.143,-1189.27 420.112,-1171.63"/>
<polygon fill="none" stroke="black" points="421.112,-1168.27 410.518,-1168.09 418.688,-1174.84 421.112,-1168.27"/>
</g>
<!-- \\MonitoringRunTaskTestCheckerTrue -->
<g id="node14" class="node"><title>\\MonitoringRunTaskTestCheckerTrue</title>
<polygon fill="none" stroke="black" points="851,-1222 619,-1222 619,-1186 851,-1186 851,-1222"/>
<text text-anchor="middle" x="735" y="-1201.1" font-family="Courier,monospace" font-size="11.00">MonitoringRunTaskTestCheckerTrue</text>
</g>
<!-- \\MonitoringRunTaskTestCheckerTrue&#45;&gt;\\MonitoringChecker -->
<g id="edge25" class="edge"><title>\\MonitoringRunTaskTestCheckerTrue&#45;&gt;\\MonitoringChecker</title>
<path fill="none" stroke="black" d="M618.318,-1187.06C559.888,-1178.58 490.808,-1168.55 439.247,-1161.07"/>
<polygon fill="none" stroke="black" points="439.576,-1157.58 429.177,-1159.61 438.57,-1164.51 439.576,-1157.58"/>
</g>
<!-- \\MonitoringRunTaskTestCheckerFalse -->
<g id="node15" class="node"><title>\\MonitoringRunTaskTestCheckerFalse</title>
<polygon fill="none" stroke="black" points="854,-1168 616,-1168 616,-1132 854,-1132 854,-1168"/>
<text text-anchor="middle" x="735" y="-1147.1" font-family="Courier,monospace" font-size="11.00">MonitoringRunTaskTestCheckerFalse</text>
</g>
<!-- \\MonitoringRunTaskTestCheckerFalse&#45;&gt;\\MonitoringChecker -->
<g id="edge27" class="edge"><title>\\MonitoringRunTaskTestCheckerFalse&#45;&gt;\\MonitoringChecker</title>
<path fill="none" stroke="black" d="M615.249,-1150C557.525,-1150 490.008,-1150 439.359,-1150"/>
<polygon fill="none" stroke="black" points="439.139,-1146.5 429.139,-1150 439.139,-1153.5 439.139,-1146.5"/>
</g>
<!-- \\MonitoringReportTest -->
<g id="node16" class="node"><title>\\MonitoringReportTest</title>
<polygon fill="none" stroke="black" points="811,-358 659,-358 659,-322 811,-322 811,-358"/>
<text text-anchor="middle" x="735" y="-337.1" font-family="Courier,monospace" font-size="11.00">MonitoringReportTest</text>
</g>
<!-- \\MonitoringReportTest&#45;&gt;\\CakeTestCase -->
<g id="edge29" class="edge"><title>\\MonitoringReportTest&#45;&gt;\\CakeTestCase</title>
<path fill="none" stroke="black" d="M728.403,-321.985C708.097,-269.319 641.098,-114.946 530,-45 507.949,-31.1169 481.124,-23.6138 455.482,-19.7359"/>
<polygon fill="none" stroke="black" points="455.724,-16.2371 445.347,-18.3769 454.793,-23.175 455.724,-16.2371"/>
</g>
<!-- \\MonitoringTest -->
<g id="node17" class="node"><title>\\MonitoringTest</title>
<polygon fill="none" stroke="black" points="790,-520 680,-520 680,-484 790,-484 790,-520"/>
<text text-anchor="middle" x="735" y="-499.1" font-family="Courier,monospace" font-size="11.00">MonitoringTest</text>
</g>
<!-- \\MonitoringTest&#45;&gt;\\CakeTestCase -->
<g id="edge31" class="edge"><title>\\MonitoringTest&#45;&gt;\\CakeTestCase</title>
<path fill="none" stroke="black" d="M679.242,-504.475C652.351,-502.596 621.728,-495.418 602,-475 467.358,-335.648 667.401,-181.632 530,-45 509.228,-24.3448 479.293,-15.686 450.486,-12.8112"/>
<polygon fill="none" stroke="black" points="450.602,-9.30978 440.361,-12.0254 450.061,-16.2888 450.602,-9.30978"/>
</g>
<!-- \\MonitoringReport -->
<g id="node18" class="node"><title>\\MonitoringReport</title>
<polygon fill="none" stroke="black" points="797,-466 673,-466 673,-430 797,-430 797,-466"/>
<text text-anchor="middle" x="735" y="-445.1" font-family="Courier,monospace" font-size="11.00">MonitoringReport</text>
</g>
<!-- \\MonitoringLog -->
<g id="node19" class="node"><title>\\MonitoringLog</title>
<polygon fill="none" stroke="black" points="787,-1006 683,-1006 683,-970 787,-970 787,-1006"/>
<text text-anchor="middle" x="735" y="-985.1" font-family="Courier,monospace" font-size="11.00">MonitoringLog</text>
</g>
<!-- \\AppMonitoringModel -->
<g id="node20" class="node"><title>\\AppMonitoringModel</title>
<polygon fill="none" stroke="black" points="432,-979 294,-979 294,-943 432,-943 432,-979"/>
<text text-anchor="middle" x="363" y="-958.1" font-family="Courier,monospace" font-size="11.00">AppMonitoringModel</text>
</g>
<!-- \\MonitoringLog&#45;&gt;\\AppMonitoringModel -->
<g id="edge33" class="edge"><title>\\MonitoringLog&#45;&gt;\\AppMonitoringModel</title>
<path fill="none" stroke="black" d="M682.883,-984.217C620.338,-979.678 514.827,-972.02 442.189,-966.748"/>
<polygon fill="none" stroke="black" points="442.393,-963.253 432.166,-966.02 441.886,-970.235 442.393,-963.253"/>
</g>
<!-- \\AppModel -->
<g id="node45" class="node"><title>\\AppModel</title>
<ellipse fill="none" stroke="black" cx="62" cy="-961" rx="62.2254" ry="18.3848"/>
<text text-anchor="middle" x="62" y="-957.4" font-family="Times Roman,serif" font-size="14.00" fill="gray">\AppModel</text>
</g>
<!-- \\AppMonitoringModel&#45;&gt;\\AppModel -->
<g id="edge35" class="edge"><title>\\AppMonitoringModel&#45;&gt;\\AppModel</title>
<path fill="none" stroke="black" d="M293.945,-961C246.143,-961 182.655,-961 134.187,-961"/>
<polygon fill="none" stroke="black" points="134.084,-957.5 124.084,-961 134.084,-964.5 134.084,-957.5"/>
</g>
<!-- \\Monitoring -->
<g id="node21" class="node"><title>\\Monitoring</title>
<polygon fill="none" stroke="black" points="777,-952 693,-952 693,-916 777,-916 777,-952"/>
<text text-anchor="middle" x="735" y="-931.1" font-family="Courier,monospace" font-size="11.00">Monitoring</text>
</g>
<!-- \\Monitoring&#45;&gt;\\AppMonitoringModel -->
<g id="edge37" class="edge"><title>\\Monitoring&#45;&gt;\\AppMonitoringModel</title>
<path fill="none" stroke="black" d="M692.689,-937.071C631.909,-941.482 518.789,-949.693 442.204,-955.251"/>
<polygon fill="none" stroke="black" points="441.838,-951.769 432.118,-955.983 442.345,-958.75 441.838,-951.769"/>
</g>
</g>
</svg>
