<?xml version="1.0" encoding="UTF-8" standalone="no"?>
<!DOCTYPE svg PUBLIC "-//W3C//DTD SVG 1.1//EN"
 "http://www.w3.org/Graphics/SVG/1.1/DTD/svg11.dtd">
<!-- Generated by graphviz version 2.26.3 (20100126.1600)
 -->
<!-- Title: G Pages: 1 -->
<svg width="892pt" height="1592pt"
 viewBox="0.00 0.00 892.00 1592.00" xmlns="http://www.w3.org/2000/svg" xmlns:xlink="http://www.w3.org/1999/xlink">
<g id="graph1" class="graph" transform="scale(1 1) rotate(0) translate(4 1588)">
<title>G</title>
<polygon fill="white" stroke="white" points="-4,5 -4,-1588 889,-1588 889,5 -4,5"/>
<g id="graph2" class="cluster"><title>cluster_Global</title>
<polyline fill="none" stroke="gray" points="298,-422 864,-422 "/>
<path fill="none" stroke="gray" d="M864,-422C870,-422 876,-428 876,-434"/>
<polyline fill="none" stroke="gray" points="876,-434 876,-1564 "/>
<path fill="none" stroke="gray" d="M876,-1564C876,-1570 870,-1576 864,-1576"/>
<polyline fill="none" stroke="gray" points="864,-1576 298,-1576 "/>
<path fill="none" stroke="gray" d="M298,-1576C292,-1576 286,-1570 286,-1564"/>
<polyline fill="none" stroke="gray" points="286,-1564 286,-434 "/>
<path fill="none" stroke="gray" d="M286,-434C286,-428 292,-422 298,-422"/>
<text text-anchor="middle" x="581" y="-1562.1" font-family="Times Roman,serif" font-size="11.00" fill="gray">Global</text>
</g>
<!-- \\MonitoringLogFixture -->
<g id="node2" class="node"><title>\\MonitoringLogFixture</title>
<polygon fill="none" stroke="black" points="811,-1114 659,-1114 659,-1078 811,-1078 811,-1114"/>
<text text-anchor="middle" x="735" y="-1093.1" font-family="Courier,monospace" font-size="11.00">MonitoringLogFixture</text>
</g>
<!-- \\CakeTestFixture -->
<g id="node26" class="node"><title>\\CakeTestFixture</title>
<ellipse fill="none" stroke="black" cx="363" cy="-396" rx="92.1303" ry="18.3848"/>
<text text-anchor="middle" x="363" y="-392.4" font-family="Times Roman,serif" font-size="14.00" fill="gray">\CakeTestFixture</text>
</g>
<!-- \\MonitoringLogFixture&#45;&gt;\\CakeTestFixture -->
<g id="edge3" class="edge"><title>\\MonitoringLogFixture&#45;&gt;\\CakeTestFixture</title>
<path fill="none" stroke="black" d="M658.84,-1096.6C637.679,-1092.9 616.542,-1084.92 602,-1069 405.645,-854.099 733.682,-625.97 530,-418 510.136,-397.718 481.323,-389.655 453.204,-387.46"/>
<polygon fill="none" stroke="black" points="453.067,-383.947 442.893,-386.905 452.691,-390.937 453.067,-383.947"/>
</g>
<!-- \\MonitoringFixture -->
<g id="node3" class="node"><title>\\MonitoringFixture</title>
<polygon fill="none" stroke="black" points="800,-1060 670,-1060 670,-1024 800,-1024 800,-1060"/>
<text text-anchor="middle" x="735" y="-1039.1" font-family="Courier,monospace" font-size="11.00">MonitoringFixture</text>
</g>
<!-- \\MonitoringFixture&#45;&gt;\\CakeTestFixture -->
<g id="edge5" class="edge"><title>\\MonitoringFixture&#45;&gt;\\CakeTestFixture</title>
<path fill="none" stroke="black" d="M669.313,-1044C644.894,-1041.21 619.017,-1033.44 602,-1015 420.756,-818.592 717.94,-608.011 530,-418 510.128,-397.909 481.463,-389.851 453.475,-387.604"/>
<polygon fill="none" stroke="black" points="453.392,-384.094 443.212,-387.028 453,-391.083 453.392,-384.094"/>
</g>
<!-- \\MonitoringTest -->
<g id="node4" class="node"><title>\\MonitoringTest</title>
<polygon fill="none" stroke="black" points="790,-1006 680,-1006 680,-970 790,-970 790,-1006"/>
<text text-anchor="middle" x="735" y="-985.1" font-family="Courier,monospace" font-size="11.00">MonitoringTest</text>
</g>
<!-- \\CakeTestCase -->
<g id="node29" class="node"><title>\\CakeTestCase</title>
<ellipse fill="none" stroke="black" cx="363" cy="-342" rx="82.0244" ry="18.3848"/>
<text text-anchor="middle" x="363" y="-338.4" font-family="Times Roman,serif" font-size="14.00" fill="gray">\CakeTestCase</text>
</g>
<!-- \\MonitoringTest&#45;&gt;\\CakeTestCase -->
<g id="edge7" class="edge"><title>\\MonitoringTest&#45;&gt;\\CakeTestCase</title>
<path fill="none" stroke="black" d="M679.189,-990.865C652.115,-989.119 621.345,-981.942 602,-961 422.154,-766.303 713.703,-560.061 530,-369 509.424,-347.6 479.06,-338.89 449.846,-336.185"/>
<polygon fill="none" stroke="black" points="449.798,-332.673 439.579,-335.468 449.311,-339.656 449.798,-332.673"/>
</g>
<!-- \\MonitoringReportTest -->
<g id="node5" class="node"><title>\\MonitoringReportTest</title>
<polygon fill="none" stroke="black" points="811,-952 659,-952 659,-916 811,-916 811,-952"/>
<text text-anchor="middle" x="735" y="-931.1" font-family="Courier,monospace" font-size="11.00">MonitoringReportTest</text>
</g>
<!-- \\MonitoringReportTest&#45;&gt;\\CakeTestCase -->
<g id="edge9" class="edge"><title>\\MonitoringReportTest&#45;&gt;\\CakeTestCase</title>
<path fill="none" stroke="black" d="M658.718,-934.328C637.681,-930.601 616.643,-922.662 602,-907 437.247,-730.777 698.244,-541.893 530,-369 509.387,-347.818 479.174,-339.117 450.093,-336.358"/>
<polygon fill="none" stroke="black" points="450.098,-332.849 439.872,-335.619 449.593,-339.831 450.098,-332.849"/>
</g>
<!-- \\MonitoringControllerTest -->
<g id="node6" class="node"><title>\\MonitoringControllerTest</title>
<polygon fill="none" stroke="black" points="824,-790 646,-790 646,-754 824,-754 824,-790"/>
<text text-anchor="middle" x="735" y="-769.1" font-family="Courier,monospace" font-size="11.00">MonitoringControllerTest</text>
</g>
<!-- \\ControllerTestCase -->
<g id="node32" class="node"><title>\\ControllerTestCase</title>
<ellipse fill="none" stroke="black" cx="363" cy="-288" rx="106.773" ry="18.3848"/>
<text text-anchor="middle" x="363" y="-284.4" font-family="Times Roman,serif" font-size="14.00" fill="gray">\ControllerTestCase</text>
</g>
<!-- \\MonitoringControllerTest&#45;&gt;\\ControllerTestCase -->
<g id="edge11" class="edge"><title>\\MonitoringControllerTest&#45;&gt;\\ControllerTestCase</title>
<path fill="none" stroke="black" d="M645.227,-768.927C629.03,-764.465 613.624,-757.03 602,-745 467.358,-605.648 667.401,-451.632 530,-315 516.167,-301.245 498.27,-292.81 479.349,-287.86"/>
<polygon fill="none" stroke="black" points="479.906,-284.397 469.377,-285.58 478.345,-291.221 479.906,-284.397"/>
</g>
<!-- \\MonitoringUpdateTaskTest -->
<g id="node7" class="node"><title>\\MonitoringUpdateTaskTest</title>
<polygon fill="none" stroke="black" points="824,-898 646,-898 646,-862 824,-862 824,-898"/>
<text text-anchor="middle" x="735" y="-877.1" font-family="Courier,monospace" font-size="11.00">MonitoringUpdateTaskTest</text>
</g>
<!-- \\MonitoringUpdateTaskTest&#45;&gt;\\CakeTestCase -->
<g id="edge13" class="edge"><title>\\MonitoringUpdateTaskTest&#45;&gt;\\CakeTestCase</title>
<path fill="none" stroke="black" d="M645.397,-877.186C629.088,-872.722 613.595,-865.221 602,-853 452.317,-695.228 682.808,-523.747 530,-369 509.325,-348.063 479.255,-339.378 450.31,-336.563"/>
<polygon fill="none" stroke="black" points="450.369,-333.057 440.136,-335.801 449.847,-340.038 450.369,-333.057"/>
</g>
<!-- \\MonitoringRunTaskTest -->
<g id="node8" class="node"><title>\\MonitoringRunTaskTest</title>
<polygon fill="none" stroke="black" points="814,-844 656,-844 656,-808 814,-808 814,-844"/>
<text text-anchor="middle" x="735" y="-823.1" font-family="Courier,monospace" font-size="11.00">MonitoringRunTaskTest</text>
</g>
<!-- \\MonitoringRunTaskTest&#45;&gt;\\CakeTestCase -->
<g id="edge15" class="edge"><title>\\MonitoringRunTaskTest&#45;&gt;\\CakeTestCase</title>
<path fill="none" stroke="black" d="M655.917,-825.441C635.937,-821.491 616.161,-813.657 602,-799 467.358,-659.648 667.401,-505.632 530,-369 509.228,-348.345 479.293,-339.686 450.486,-336.811"/>
<polygon fill="none" stroke="black" points="450.602,-333.31 440.361,-336.025 450.061,-340.289 450.602,-333.31"/>
</g>
<!-- \\MonitoringRunTaskTestCheckerTimeouted -->
<g id="node9" class="node"><title>\\MonitoringRunTaskTestCheckerTimeouted</title>
<polygon fill="none" stroke="black" points="868,-1546 602,-1546 602,-1510 868,-1510 868,-1546"/>
<text text-anchor="middle" x="735" y="-1525.1" font-family="Courier,monospace" font-size="11.00">MonitoringRunTaskTestCheckerTimeouted</text>
</g>
<!-- \\MonitoringChecker -->
<g id="node19" class="node"><title>\\MonitoringChecker</title>
<polygon fill="none" stroke="black" points="429,-1438 297,-1438 297,-1402 429,-1402 429,-1438"/>
<text text-anchor="start" x="329" y="-1425.43" font-family="Courier,monospace" font-size="11.00">«abstract»</text>
<text text-anchor="start" x="305.5" y="-1412.23" font-family="Courier,monospace" font-size="11.00">MonitoringChecker</text>
</g>
<!-- \\MonitoringRunTaskTestCheckerTimeouted&#45;&gt;\\MonitoringChecker -->
<g id="edge17" class="edge"><title>\\MonitoringRunTaskTestCheckerTimeouted&#45;&gt;\\MonitoringChecker</title>
<path fill="none" stroke="black" d="M638.768,-1509.97C626.34,-1507.2 613.829,-1504.19 602,-1501 538.882,-1483.97 468.143,-1459.27 420.112,-1441.63"/>
<polygon fill="none" stroke="black" points="421.112,-1438.27 410.518,-1438.09 418.688,-1444.84 421.112,-1438.27"/>
</g>
<!-- \\MonitoringRunTaskTestCheckerTrue -->
<g id="node10" class="node"><title>\\MonitoringRunTaskTestCheckerTrue</title>
<polygon fill="none" stroke="black" points="851,-1492 619,-1492 619,-1456 851,-1456 851,-1492"/>
<text text-anchor="middle" x="735" y="-1471.1" font-family="Courier,monospace" font-size="11.00">MonitoringRunTaskTestCheckerTrue</text>
</g>
<!-- \\MonitoringRunTaskTestCheckerTrue&#45;&gt;\\MonitoringChecker -->
<g id="edge19" class="edge"><title>\\MonitoringRunTaskTestCheckerTrue&#45;&gt;\\MonitoringChecker</title>
<path fill="none" stroke="black" d="M618.318,-1457.06C559.888,-1448.58 490.808,-1438.55 439.247,-1431.07"/>
<polygon fill="none" stroke="black" points="439.576,-1427.58 429.177,-1429.61 438.57,-1434.51 439.576,-1427.58"/>
</g>
<!-- \\MonitoringRunTaskTestCheckerFalse -->
<g id="node11" class="node"><title>\\MonitoringRunTaskTestCheckerFalse</title>
<polygon fill="none" stroke="black" points="854,-1438 616,-1438 616,-1402 854,-1402 854,-1438"/>
<text text-anchor="middle" x="735" y="-1417.1" font-family="Courier,monospace" font-size="11.00">MonitoringRunTaskTestCheckerFalse</text>
</g>
<!-- \\MonitoringRunTaskTestCheckerFalse&#45;&gt;\\MonitoringChecker -->
<g id="edge21" class="edge"><title>\\MonitoringRunTaskTestCheckerFalse&#45;&gt;\\MonitoringChecker</title>
<path fill="none" stroke="black" d="M615.249,-1420C557.525,-1420 490.008,-1420 439.359,-1420"/>
<polygon fill="none" stroke="black" points="439.139,-1416.5 429.139,-1420 439.139,-1423.5 439.139,-1416.5"/>
</g>
<!-- \\AllMonitoringTest -->
<g id="node12" class="node"><title>\\AllMonitoringTest</title>
<polygon fill="none" stroke="black" points="800,-736 670,-736 670,-700 800,-700 800,-736"/>
<text text-anchor="middle" x="735" y="-715.1" font-family="Courier,monospace" font-size="11.00">AllMonitoringTest</text>
</g>
<!-- \\PHPUnit_Framework_TestSuite -->
<g id="node39" class="node"><title>\\PHPUnit_Framework_TestSuite</title>
<ellipse fill="none" stroke="black" cx="363" cy="-234" rx="166.877" ry="18.3848"/>
<text text-anchor="middle" x="363" y="-230.4" font-family="Times Roman,serif" font-size="14.00" fill="gray">\PHPUnit_Framework_TestSuite</text>
</g>
<!-- \\AllMonitoringTest&#45;&gt;\\PHPUnit_Framework_TestSuite -->
<g id="edge23" class="edge"><title>\\AllMonitoringTest&#45;&gt;\\PHPUnit_Framework_TestSuite</title>
<path fill="none" stroke="black" d="M669.398,-719.553C645.139,-716.677 619.354,-708.961 602,-691 467.358,-551.648 667.401,-397.632 530,-261 525.285,-256.311 520.098,-252.241 514.559,-248.716"/>
<polygon fill="none" stroke="black" points="516.006,-245.512 505.582,-243.615 512.547,-251.599 516.006,-245.512"/>
</g>
<!-- \\MonitoringReport -->
<g id="node13" class="node"><title>\\MonitoringReport</title>
<polygon fill="none" stroke="black" points="797,-1276 673,-1276 673,-1240 797,-1240 797,-1276"/>
<text text-anchor="middle" x="735" y="-1255.1" font-family="Courier,monospace" font-size="11.00">MonitoringReport</text>
</g>
<!-- \\AppMonitoringModel -->
<g id="node16" class="node"><title>\\AppMonitoringModel</title>
<polygon fill="none" stroke="black" points="432,-1222 294,-1222 294,-1186 432,-1186 432,-1222"/>
<text text-anchor="middle" x="363" y="-1201.1" font-family="Courier,monospace" font-size="11.00">AppMonitoringModel</text>
</g>
<!-- \\MonitoringReport&#45;&gt;\\AppMonitoringModel -->
<g id="edge25" class="edge"><title>\\MonitoringReport&#45;&gt;\\AppMonitoringModel</title>
<path fill="none" stroke="black" d="M672.316,-1248.9C608.964,-1239.7 510.874,-1225.47 442.185,-1215.49"/>
<polygon fill="none" stroke="black" points="442.67,-1212.03 432.271,-1214.06 441.665,-1218.96 442.67,-1212.03"/>
</g>
<!-- \\MonitoringLog -->
<g id="node14" class="node"><title>\\MonitoringLog</title>
<polygon fill="none" stroke="black" points="787,-1222 683,-1222 683,-1186 787,-1186 787,-1222"/>
<text text-anchor="middle" x="735" y="-1201.1" font-family="Courier,monospace" font-size="11.00">MonitoringLog</text>
</g>
<!-- \\MonitoringLog&#45;&gt;\\AppMonitoringModel -->
<g id="edge27" class="edge"><title>\\MonitoringLog&#45;&gt;\\AppMonitoringModel</title>
<path fill="none" stroke="black" d="M682.883,-1204C620.338,-1204 514.827,-1204 442.189,-1204"/>
<polygon fill="none" stroke="black" points="442.166,-1200.5 432.166,-1204 442.166,-1207.5 442.166,-1200.5"/>
</g>
<!-- \\Monitoring -->
<g id="node15" class="node"><title>\\Monitoring</title>
<polygon fill="none" stroke="black" points="777,-1168 693,-1168 693,-1132 777,-1132 777,-1168"/>
<text text-anchor="middle" x="735" y="-1147.1" font-family="Courier,monospace" font-size="11.00">Monitoring</text>
</g>
<!-- \\Monitoring&#45;&gt;\\AppMonitoringModel -->
<g id="edge29" class="edge"><title>\\Monitoring&#45;&gt;\\AppMonitoringModel</title>
<path fill="none" stroke="black" d="M692.642,-1156.91C651.219,-1163.6 586.333,-1173.89 530,-1182 501.385,-1186.12 469.966,-1190.34 442.176,-1193.96"/>
<polygon fill="none" stroke="black" points="441.579,-1190.51 432.114,-1195.27 442.482,-1197.45 441.579,-1190.51"/>
</g>
<!-- \\AppModel -->
<g id="node44" class="node"><title>\\AppModel</title>
<ellipse fill="none" stroke="black" cx="62" cy="-1204" rx="62.2254" ry="18.3848"/>
<text text-anchor="middle" x="62" y="-1200.4" font-family="Times Roman,serif" font-size="14.00" fill="gray">\AppModel</text>
</g>
<!-- \\AppMonitoringModel&#45;&gt;\\AppModel -->
<g id="edge31" class="edge"><title>\\AppMonitoringModel&#45;&gt;\\AppModel</title>
<path fill="none" stroke="black" d="M293.945,-1204C246.143,-1204 182.655,-1204 134.187,-1204"/>
<polygon fill="none" stroke="black" points="134.084,-1200.5 124.084,-1204 134.084,-1207.5 134.084,-1200.5"/>
</g>
<!-- \\MonitoringSelfFailCheck -->
<g id="node17" class="node"><title>\\MonitoringSelfFailCheck</title>
<polygon fill="none" stroke="black" points="821,-1384 649,-1384 649,-1348 821,-1348 821,-1384"/>
<text text-anchor="middle" x="735" y="-1363.1" font-family="Courier,monospace" font-size="11.00">MonitoringSelfFailCheck</text>
</g>
<!-- \\MonitoringSelfFailCheck&#45;&gt;\\MonitoringChecker -->
<g id="edge33" class="edge"><title>\\MonitoringSelfFailCheck&#45;&gt;\\MonitoringChecker</title>
<path fill="none" stroke="black" d="M648.721,-1378.52C585.286,-1387.73 499.882,-1400.13 439.008,-1408.97"/>
<polygon fill="none" stroke="black" points="438.471,-1405.51 429.077,-1410.41 439.477,-1412.44 438.471,-1405.51"/>
</g>
<!-- \\MonitoringSelfCheck -->
<g id="node18" class="node"><title>\\MonitoringSelfCheck</title>
<polygon fill="none" stroke="black" points="807,-1330 663,-1330 663,-1294 807,-1294 807,-1330"/>
<text text-anchor="middle" x="735" y="-1309.1" font-family="Courier,monospace" font-size="11.00">MonitoringSelfCheck</text>
</g>
<!-- \\MonitoringSelfCheck&#45;&gt;\\MonitoringChecker -->
<g id="edge35" class="edge"><title>\\MonitoringSelfCheck&#45;&gt;\\MonitoringChecker</title>
<path fill="none" stroke="black" d="M662.479,-1324.99C642.743,-1329 621.449,-1333.75 602,-1339 538.882,-1356.03 468.143,-1380.73 420.112,-1398.37"/>
<polygon fill="none" stroke="black" points="418.688,-1395.16 410.518,-1401.91 421.112,-1401.73 418.688,-1395.16"/>
</g>
<!-- \\MonitoringController -->
<g id="node20" class="node"><title>\\MonitoringController</title>
<polygon fill="none" stroke="black" points="811,-682 659,-682 659,-646 811,-646 811,-682"/>
<text text-anchor="middle" x="735" y="-661.1" font-family="Courier,monospace" font-size="11.00">MonitoringController</text>
</g>
<!-- \\AppController -->
<g id="node48" class="node"><title>\\AppController</title>
<ellipse fill="none" stroke="black" cx="363" cy="-180" rx="82.0244" ry="18.3848"/>
<text text-anchor="middle" x="363" y="-176.4" font-family="Times Roman,serif" font-size="14.00" fill="gray">\AppController</text>
</g>
<!-- \\MonitoringController&#45;&gt;\\AppController -->
<g id="edge37" class="edge"><title>\\MonitoringController&#45;&gt;\\AppController</title>
<path fill="none" stroke="black" d="M658.689,-663.964C637.778,-660.201 616.816,-652.335 602,-637 467.358,-497.648 667.401,-343.632 530,-207 509.228,-186.345 479.293,-177.686 450.486,-174.811"/>
<polygon fill="none" stroke="black" points="450.602,-171.31 440.361,-174.025 450.061,-178.289 450.602,-171.31"/>
</g>
<!-- \\MonitoringUpdateTask -->
<g id="node21" class="node"><title>\\MonitoringUpdateTask</title>
<polygon fill="none" stroke="black" points="811,-628 659,-628 659,-592 811,-592 811,-628"/>
<text text-anchor="middle" x="735" y="-607.1" font-family="Courier,monospace" font-size="11.00">MonitoringUpdateTask</text>
</g>
<!-- \\AdvancedTask -->
<g id="node50" class="node"><title>\\AdvancedTask</title>
<ellipse fill="none" stroke="black" cx="363" cy="-126" rx="82.939" ry="18.3848"/>
<text text-anchor="middle" x="363" y="-122.4" font-family="Times Roman,serif" font-size="14.00" fill="gray">\AdvancedTask</text>
</g>
<!-- \\MonitoringUpdateTask&#45;&gt;\\AdvancedTask -->
<g id="edge39" class="edge"><title>\\MonitoringUpdateTask&#45;&gt;\\AdvancedTask</title>
<path fill="none" stroke="black" d="M658.689,-609.964C637.778,-606.201 616.816,-598.335 602,-583 467.358,-443.648 667.401,-289.632 530,-153 509.601,-132.715 480.364,-124.001 452.038,-120.972"/>
<polygon fill="none" stroke="black" points="452.332,-117.484 442.072,-120.128 451.741,-124.459 452.332,-117.484"/>
</g>
<!-- \\MonitoringRunTask -->
<g id="node22" class="node"><title>\\MonitoringRunTask</title>
<polygon fill="none" stroke="black" points="800,-574 670,-574 670,-538 800,-538 800,-574"/>
<text text-anchor="middle" x="735" y="-553.1" font-family="Courier,monospace" font-size="11.00">MonitoringRunTask</text>
</g>
<!-- \\MonitoringRunTask&#45;&gt;\\AdvancedTask -->
<g id="edge41" class="edge"><title>\\MonitoringRunTask&#45;&gt;\\AdvancedTask</title>
<path fill="none" stroke="black" d="M669.269,-557.302C645.139,-554.366 619.479,-546.674 602,-529 482.356,-408.023 652.039,-271.561 530,-153 509.644,-133.224 480.861,-124.531 452.912,-121.371"/>
<polygon fill="none" stroke="black" points="452.945,-117.86 442.671,-120.447 452.316,-124.832 452.945,-117.86"/>
</g>
<!-- \\MonitoringShell -->
<g id="node23" class="node"><title>\\MonitoringShell</title>
<polygon fill="none" stroke="black" points="794,-520 676,-520 676,-484 794,-484 794,-520"/>
<text text-anchor="middle" x="735" y="-499.1" font-family="Courier,monospace" font-size="11.00">MonitoringShell</text>
</g>
<!-- \\AdvancedShell -->
<g id="node53" class="node"><title>\\AdvancedShell</title>
<ellipse fill="none" stroke="black" cx="363" cy="-72" rx="85.7684" ry="18.3848"/>
<text text-anchor="middle" x="363" y="-68.4" font-family="Times Roman,serif" font-size="14.00" fill="gray">\AdvancedShell</text>
</g>
<!-- \\MonitoringShell&#45;&gt;\\AdvancedShell -->
<g id="edge43" class="edge"><title>\\MonitoringShell&#45;&gt;\\AdvancedShell</title>
<path fill="none" stroke="black" d="M675.744,-503.983C649.827,-501.67 621.053,-494.265 602,-475 482.356,-354.023 652.039,-217.561 530,-99 510.387,-79.9459 482.951,-71.1801 455.976,-67.7395"/>
<polygon fill="none" stroke="black" points="455.985,-64.2217 445.677,-66.6712 455.263,-71.1844 455.985,-64.2217"/>
</g>
<!-- \\MonitoringSchema -->
<g id="node24" class="node"><title>\\MonitoringSchema</title>
<polygon fill="none" stroke="black" points="797,-466 673,-466 673,-430 797,-430 797,-466"/>
<text text-anchor="middle" x="735" y="-445.1" font-family="Courier,monospace" font-size="11.00">MonitoringSchema</text>
</g>
<!-- \\CakeSchema -->
<g id="node55" class="node"><title>\\CakeSchema</title>
<ellipse fill="none" stroke="black" cx="363" cy="-18" rx="77.0746" ry="18.3848"/>
<text text-anchor="middle" x="363" y="-14.4" font-family="Times Roman,serif" font-size="14.00" fill="gray">\CakeSchema</text>
</g>
<!-- \\MonitoringSchema&#45;&gt;\\CakeSchema -->
<g id="edge45" class="edge"><title>\\MonitoringSchema&#45;&gt;\\CakeSchema</title>
<path fill="none" stroke="black" d="M731.758,-429.78C719.226,-365.151 667.613,-145.39 530,-45 507.072,-28.2738 477.658,-20.3279 449.922,-16.9168"/>
<polygon fill="none" stroke="black" points="450.105,-13.4169 439.795,-15.8574 449.376,-20.3789 450.105,-13.4169"/>
</g>
</g>
</svg>
